<svg width="141" height="141" viewBox="0 0 141 141" fill="none" xmlns="http://www.w3.org/2000/svg">
<path fill-rule="evenodd" clip-rule="evenodd" d="M0.723633 70.1433C0.723633 108.808 32.0935 140.178 70.7587 140.178C109.424 140.178 140.794 108.808 140.794 70.1433C140.794 31.4781 109.424 0.1082 70.7587 0.1082C32.0935 0.1082 0.723633 30.7485 0.723633 70.1433Z" fill="white"/>
<path fill-rule="evenodd" clip-rule="evenodd" d="M8.74866 70.1432C8.74866 105.161 36.4709 132.883 71.4884 132.883C105.776 132.883 134.228 105.161 134.228 70.1432C134.228 35.8552 105.776 7.40349 71.4884 7.40349C36.4709 7.40349 8.74866 35.1257 8.74866 70.1432Z" fill="#CB3836"/>
<path d="M75.1359 28.5599V76.709L97.7513 54.0935L103.588 59.9298L71.4882 92.0292L39.3887 59.9298L45.225 54.823L67.8405 76.709V28.5599H75.1359Z" fill="white"/>
<path d="M99.2105 97.136H43.7661V103.702H99.2105V97.136Z" fill="white"/>
</svg>
