<svg width="208" height="293" viewBox="0 0 208 293" fill="none" xmlns="http://www.w3.org/2000/svg">
<path d="M142.896 48.6387C145 47 149.779 47.3666 150 48.6387C150.442 51.0134 149.146 53.2185 147.422 54.3211L134.693 62.2933C132.041 63.9471 128.431 63.6045 126 60C126 60 140.792 50.2774 142.896 48.6387Z" fill="#F2F2F2"/>
<path d="M194 212.196H94.387L84 157.396C86.3413 91.9981 151.856 99.9251 183.996 106.43L179.782 166.874H192.765L194 212.196Z" fill="#E5E5E6"/>
<path d="M52.0421 291.196L137 204.468L83.2502 158.196L0 234.906L52.0421 291.196Z" fill="#E5E5E6"/>
<path d="M117 225.38L59.7574 180.196L0 235.62L51.9574 292.196L117 225.38Z" fill="#183D68"/>
<path d="M94.274 185.482L201.782 185.269L201.398 0L93.9326 0.213394L94.274 185.482Z" fill="#C93636"/>
<path d="M147.793 68.841C164.993 68.7983 179.376 79.2974 179.376 92.6558C179.419 106.313 164.694 116.556 147.879 116.599C130.466 116.641 116.296 105.972 116.296 92.7839C116.254 79.5961 130.381 68.8837 147.793 68.841Z" fill="white"/>
<path d="M102.469 28.5949L102.725 157.058C113.437 157.058 122.186 165.722 122.186 176.477L173.785 176.392C173.742 165.637 182.492 156.93 193.204 156.888L192.948 28.3815C182.236 28.3815 173.486 19.7176 173.444 8.96257L121.845 9.04793C121.888 19.8457 113.181 28.5522 102.469 28.5949ZM168.962 13.9987C170.968 23.4734 178.48 30.8995 187.912 32.9054L188.168 152.406C178.693 154.412 171.224 161.924 169.304 171.356L126.71 171.441C124.704 161.966 117.193 154.498 107.761 152.534L107.505 33.0335C116.98 31.0275 124.448 23.5587 126.412 14.084L168.962 13.9987Z" fill="white"/>
<path d="M129.314 95.2166C130.722 100.039 134.777 103.539 139.557 103.539C144.892 103.539 149.288 99.2284 150.099 93.5521C150.141 93.296 150.184 92.9973 150.184 92.6985C150.653 89.3269 153.043 86.7662 155.946 86.7662C159.061 86.7662 161.665 89.7964 161.793 93.5094C161.793 93.5948 161.793 93.7228 161.793 93.8082C161.793 96.4543 160.598 98.7589 158.805 99.9539L162.305 103.411C164.652 101.49 166.274 98.5029 166.615 95.0885H168.408V93.4667V90.1805H166.189C164.823 85.3578 160.726 81.8581 155.946 81.8581C150.397 81.8581 145.788 86.6381 145.319 92.6985C145.276 92.9973 145.191 93.2534 145.148 93.5521C144.465 96.4969 142.203 98.6309 139.557 98.6309C136.911 98.6309 134.692 96.4543 133.966 93.5521C133.795 92.9119 133.71 92.2717 133.71 91.5889C133.71 88.9428 134.905 86.6381 136.697 85.4431L133.198 81.9861C130.808 83.9494 129.229 86.8942 128.887 90.3085H127.095V93.5948V95.2166H129.314Z" fill="#C93636"/>
<path d="M207.885 147.456C207.885 140.328 202.124 134.567 194.996 134.567C202.124 134.567 207.885 128.805 207.885 121.678C207.885 114.55 202.124 108.789 194.996 108.789H160.682C153.555 108.789 147.793 114.55 147.793 121.678C147.793 128.805 153.555 134.567 160.682 134.567C153.555 134.567 147.793 140.328 147.793 147.456C147.793 154.583 153.555 160.345 160.682 160.345C153.555 160.345 147.793 166.106 147.793 173.234C147.793 180.361 153.555 186.123 160.682 186.123C153.555 186.123 147.793 191.884 147.793 199.012C147.793 206.139 153.555 211.901 160.682 211.901H194.996C202.124 211.901 207.885 206.139 207.885 199.012C207.885 191.884 202.124 186.123 194.996 186.123C202.124 186.123 207.885 180.361 207.885 173.234C207.885 166.106 202.124 160.345 194.996 160.345C202.124 160.345 207.885 154.583 207.885 147.456Z" fill="#E5E5E6"/>
<path d="M167.383 113.398C166.999 113.355 160.426 113.27 160.426 113.27C155.774 113.27 152.019 117.026 152.019 121.678C152.019 126.33 155.774 130.085 160.426 130.085C160.426 130.085 166.956 130.043 167.383 129.957V113.398Z" fill="#F2F2F2"/>
<path d="M167.383 138.792C166.999 138.749 160.426 138.664 160.426 138.664C155.774 138.664 152.019 142.419 152.019 147.071C152.019 151.723 155.774 155.479 160.426 155.479C160.426 155.479 166.956 155.437 167.383 155.351V138.792Z" fill="#F2F2F2"/>
<path d="M167.383 165.466C166.999 165.423 160.426 165.338 160.426 165.338C155.774 165.338 152.019 169.094 152.019 173.746C152.019 178.398 155.774 182.154 160.426 182.154C160.426 182.154 166.956 182.068 167.383 182.025V165.466Z" fill="#F2F2F2"/>
<path d="M167.383 190.775C166.999 190.732 160.426 190.647 160.426 190.647C155.774 190.647 152.019 194.402 152.019 199.054C152.019 203.706 155.774 207.462 160.426 207.462C160.426 207.462 166.956 207.419 167.383 207.334V190.775Z" fill="#F2F2F2"/>
<path d="M145.5 50.196C152 45.696 154.5 46.1961 157.5 48.696C160.5 51.196 162.462 66.7596 149.448 75.2982C139.901 81.5627 100.689 107.307 100.689 107.307L78 122.196L87.9316 89.3718C87.9316 89.3718 139 54.6961 145.5 50.196Z" fill="#E5E5E6"/>
<path d="M149.896 47.8347C152 46.196 156.779 46.5625 157 47.8347C157.442 50.2094 156.146 52.4145 154.422 53.517L141.693 61.4893C139.041 63.1431 135.431 62.8004 133 59.196C133 59.196 147.792 49.4734 149.896 47.8347Z" fill="#F2F2F2"/>
<path d="M86.8654 90.196C86.8654 90.196 50.2775 117.378 64.1333 155.731C77.989 194.042 67.6405 173.91 67.6405 173.91L93.3603 160.573C93.3603 160.573 107.086 157.048 107 130.205C106.956 103.363 106.956 103.363 106.956 103.363L86.8654 90.196Z" fill="#E5E5E6"/>
<path d="M61 180.196L116 224.196" stroke="white" stroke-width="5" stroke-linecap="round"/>
<path d="M64.5293 190.196L58 197.097" stroke="white" stroke-width="3" stroke-linecap="round"/>
<path d="M74.5293 200.196L68 207.097" stroke="white" stroke-width="3" stroke-linecap="round"/>
<path d="M84.5293 208.196L78 215.097" stroke="white" stroke-width="3" stroke-linecap="round"/>
<path d="M95.5293 217.196L89 224.097" stroke="white" stroke-width="3" stroke-linecap="round"/>
<path d="M105.529 226.196L99 233.097" stroke="white" stroke-width="3" stroke-linecap="round"/>
</svg>
