<svg width="208" height="145" viewBox="0 0 208 145" fill="none" xmlns="http://www.w3.org/2000/svg">
<rect width="208" height="145" rx="22" fill="#CA3736"/>
<path d="M162.346 28H56.2308C48.7 28 42.5385 34.1615 42.5385 41.6923V46.8269C42.5385 48.7096 44.0788 50.25 45.9615 50.25C47.8442 50.25 49.3846 48.7096 49.3846 46.8269V41.6923C49.3846 41.0077 49.5558 40.3231 49.7269 39.6385L88.0654 72.5L49.7269 105.362C49.5558 104.677 49.3846 103.992 49.3846 103.308V98.1731C49.3846 96.2904 47.8442 94.75 45.9615 94.75C44.0788 94.75 42.5385 96.2904 42.5385 98.1731V103.308C42.5385 110.838 48.7 117 56.2308 117H162.346C169.877 117 176.038 110.838 176.038 103.308V41.6923C176.038 34.1615 169.877 28 162.346 28ZM54.8615 35.0173C55.2038 34.8462 55.7173 34.8462 56.2308 34.8462H162.346C162.86 34.8462 163.373 34.8462 163.715 35.0173L111.513 79.6885C110.144 80.7154 108.433 80.7154 107.063 79.6885L54.8615 35.0173ZM162.346 110.154H56.2308C55.7173 110.154 55.2038 110.154 54.8615 109.983L93.3711 76.95L102.613 84.9942C104.496 86.7058 106.892 87.5615 109.288 87.5615C111.685 87.5615 114.081 86.7058 115.963 84.9942L125.206 76.95L163.715 109.983C163.373 110.154 162.86 110.154 162.346 110.154ZM169.192 103.308C169.192 103.992 169.021 104.677 168.85 105.362L130.512 72.5L168.85 39.6385C169.021 40.3231 169.192 41.0077 169.192 41.6923V103.308ZM32.2692 63.9423C32.2692 62.0596 33.8096 60.5192 35.6923 60.5192H56.2308C58.1135 60.5192 59.6538 62.0596 59.6538 63.9423C59.6538 65.825 58.1135 67.3654 56.2308 67.3654H35.6923C33.8096 67.3654 32.2692 65.825 32.2692 63.9423ZM56.2308 84.4808H25.4231C23.5404 84.4808 22 82.9404 22 81.0577C22 79.175 23.5404 77.6346 25.4231 77.6346H56.2308C58.1135 77.6346 59.6538 79.175 59.6538 81.0577C59.6538 82.9404 58.1135 84.4808 56.2308 84.4808Z" fill="white"/>
</svg>
