<svg width="103" height="100" viewBox="0 0 103 100" fill="none" xmlns="http://www.w3.org/2000/svg">
<path d="M8.68289 78.8061H2V2.03061H88.8775V11.6275" stroke="#183D68" stroke-width="3"/>
<path d="M23.2038 21.2945C24.2894 21.2945 25.1675 22.1727 25.1675 23.2566C25.1675 24.3405 24.2894 25.2187 23.2038 25.2187C22.1199 25.2187 21.2417 24.3405 21.2417 23.2566C21.2417 22.1727 22.121 21.2945 23.2038 21.2945Z" fill="#183D68"/>
<path d="M28.7285 21.2945C29.8124 21.2945 30.6906 22.1727 30.6906 23.2566C30.6906 24.3405 29.8124 25.2187 28.7285 25.2187C27.6446 25.2187 26.7664 24.3405 26.7664 23.2566C26.7664 22.1727 27.6446 21.2945 28.7285 21.2945Z" fill="#183D68"/>
<path d="M34.253 21.2945C35.3369 21.2945 36.215 22.1727 36.215 23.2566C36.215 24.3405 35.3369 25.2187 34.253 25.2187C33.169 25.2187 32.2909 24.3405 32.2909 23.2566C32.2909 22.1727 33.1702 21.2945 34.253 21.2945Z" fill="#183D68"/>
<path d="M9.37896 7.53461C10.4646 7.53461 11.3427 8.41275 11.3427 9.49669C11.3427 10.5806 10.4646 11.4588 9.37896 11.4588C8.29502 11.4588 7.41687 10.5806 7.41687 9.49669C7.41687 8.41275 8.29615 7.53461 9.37896 7.53461Z" fill="#183D68"/>
<path d="M14.9037 7.53459C15.9876 7.53459 16.8657 8.41273 16.8657 9.49667C16.8657 10.5806 15.9876 11.4588 14.9037 11.4588C13.8197 11.4588 12.9416 10.5806 12.9416 9.49667C12.9416 8.41273 13.8197 7.53459 14.9037 7.53459Z" fill="#183D68"/>
<path d="M20.4281 7.53459C21.5121 7.53459 22.3902 8.41273 22.3902 9.49667C22.3902 10.5806 21.5121 11.4588 20.4281 11.4588C19.3442 11.4588 18.4661 10.5806 18.4661 9.49667C18.4661 8.41273 19.3453 7.53459 20.4281 7.53459Z" fill="#183D68"/>
<path d="M58.2191 44.2994H21.4543V46.9732H58.2191V44.2994Z" fill="#E6E6E5"/>
<path d="M38.8341 50.9839H21.4543V53.6577H38.8341V50.9839Z" fill="#E6E6E5"/>
<path d="M94.3154 37.6149H21.4543V40.2887H94.3154V37.6149Z" fill="#E6E6E5"/>
<path d="M75.6731 76.0376C75.6731 75.4686 75.6519 74.9206 75.5883 74.3515L79.3422 73.3819L77.6455 66.9745L73.828 67.9651C73.0221 66.3 71.9616 64.7614 70.7103 63.4124L73.1705 60.2509L67.9108 56.2041L65.4294 59.4078C63.8175 58.5858 62.0784 57.9956 60.2333 57.6795V53.5905H53.5738V57.6584C51.8346 57.9746 50.1592 58.5226 48.6109 59.2813L46.1719 56.0355L40.8486 60.019L43.2664 63.2228C42.3544 64.1923 41.5273 65.2462 40.8274 66.3843L37.0946 65.0143L34.7829 71.2321L38.452 72.581C38.2399 73.6981 38.1127 74.8573 38.1127 76.0376C38.1127 76.4381 38.1339 76.8596 38.1551 77.2601L34.4224 78.2297L36.1191 84.6371L39.7669 83.6886C40.5517 85.438 41.6121 87.0399 42.8634 88.4521L40.5941 91.3607L45.875 95.3864L48.1019 92.5199C49.7774 93.4052 51.6226 94.0375 53.5525 94.3958V98H60.2121V94.3958C62.0572 94.0586 63.7963 93.4684 65.4294 92.6464L67.6139 95.555L72.9372 91.5926L70.7103 88.6418C71.6435 87.6301 72.4706 86.4919 73.1705 85.2905L76.6911 86.5762L78.9817 80.3795L75.3974 79.0727C75.5883 78.061 75.6731 77.0493 75.6731 76.0376ZM56.9035 88.4942C49.841 88.4942 44.1147 82.8034 44.1147 75.7847C44.1147 68.766 49.841 63.0752 56.9035 63.0752C63.966 63.0752 69.6923 68.766 69.6923 75.7847C69.6711 82.8034 63.966 88.4942 56.9035 88.4942Z" stroke="#C93636" stroke-width="3" stroke-miterlimit="10"/>
<path d="M35.4918 92.4278H14.1014V15.556H101V92.4278H79.9437" stroke="#183D68" stroke-width="3"/>
<path d="M14.1014 30.5962H99.9973" stroke="#183D68" stroke-width="3"/>
</svg>
