<svg width="121" height="119" viewBox="0 0 121 119" fill="none" xmlns="http://www.w3.org/2000/svg">
<path d="M73.0575 58.7119C72.7396 58.7119 72.481 58.9706 72.481 59.2884C72.481 59.6063 72.7396 59.865 73.0575 59.865C73.3754 59.865 73.634 59.6063 73.634 59.2884C73.634 58.9705 73.3754 58.7119 73.0575 58.7119Z" fill="#C93636"/>
<path d="M85.3787 33.9403C82.5604 33.9403 80.2676 36.2332 80.2676 39.0514C80.2676 41.8697 82.5604 44.1626 85.3787 44.1626C88.197 44.1626 90.4899 41.8697 90.4899 39.0515C90.4899 36.2332 88.197 33.9403 85.3787 33.9403Z" fill="#C93636"/>
<path d="M31.8921 47.7945H31.4009L30.9655 48.0221L10.0995 58.9311V49.7943V47.7943H8.09951H6.07469C3.8943 47.7943 2 45.9029 2 43.7016V6.13006C2 3.92875 3.8943 2.03735 6.07469 2.03735H64.2904C66.3618 2.03735 68.1122 3.81617 68.1122 6.13006V43.7018C68.1122 45.9031 66.2178 47.7945 64.0375 47.7945H31.8921Z" fill="white" stroke="#183D68" stroke-width="4"/>
<path d="M90.2908 62.6735L89.8542 62.4443H89.3612H56.9629C54.7902 62.4443 52.8882 60.5492 52.8882 58.3266V20.856C52.8882 18.5208 54.646 16.7383 56.7099 16.7383H114.926C117.098 16.7383 119 18.6334 119 20.856V58.3266C119 60.5492 117.098 62.4443 114.926 62.4443H113.154H111.154V64.4443V73.6258L90.2908 62.6735Z" fill="white" stroke="#183D68" stroke-width="4"/>
<path d="M62.1348 104.763H61.1416L60.5413 105.554L53.0392 115.445L45.5161 105.32L44.9163 104.513H43.9107H24.168C21.9606 104.513 20.0933 102.634 20.0933 100.506V63.7168C20.0933 61.589 21.9606 59.7103 24.168 59.7103H82.3837C84.4811 59.7103 86.2054 61.4774 86.2054 63.7168V100.756C86.2054 102.884 84.3381 104.763 82.1307 104.763H62.1348Z" fill="white" stroke="#183D68" stroke-width="4"/>
<path d="M49.6882 96.0093H55.2108V82.9976H58.917C58.917 82.9976 59.2641 80.8979 59.4333 78.602H55.2322V75.6076C55.2322 75.1603 55.8338 74.5594 56.4301 74.5594H59.4393V70H55.3466C49.5524 70 49.6882 74.3829 49.6882 75.0374V78.6172H47V82.996H49.6882V96.0093Z" fill="#C93636"/>
<path d="M39.9348 17.0002C43.834 17.0192 46.9904 20.1755 47.0093 24.0748C47.0093 31.2186 34.0047 38.2932 34.0047 38.2932C34.0047 38.2932 21 31.1146 21 24.0748C21 20.1676 24.1674 17.0002 28.0746 17.0002C30.4663 16.9816 32.7023 18.1845 34.0047 20.1907C35.316 18.1943 37.5462 16.9944 39.9348 17.0002Z" fill="#D7443E"/>
<rect x="73.5044" y="27.1776" width="23.7477" height="23.7477" rx="5.36492" fill="#C93636"/>
<circle cx="85.2992" cy="38.9725" r="6.03554" fill="white"/>
<circle cx="91.7758" cy="31.9836" r="1.97897" fill="white"/>
</svg>
