<svg width="184" height="158" viewBox="0 0 184 158" fill="none" xmlns="http://www.w3.org/2000/svg">
<mask id="path-1-inside-1_34_1278" fill="white">
<rect y="16.2671" width="184" height="122.346" rx="4.81675"/>
</mask>
<rect y="16.2671" width="184" height="122.346" rx="4.81675" fill="white" stroke="#183D68" stroke-width="15.4136" mask="url(#path-1-inside-1_34_1278)"/>
<path fill-rule="evenodd" clip-rule="evenodd" d="M68.8821 150.331C72.53 150.331 75.4873 147.374 75.4873 143.726C75.4873 143.726 75.4873 143.726 75.4873 143.726H110.4V143.726C110.4 147.374 113.357 150.331 117.005 150.331H117.005H130.215V157.88H55.6719V150.331H68.8821C68.8821 150.331 68.8821 150.331 68.8821 150.331Z" fill="#183D68"/>
<path d="M18.3037 24.9373H164.733L151.897 130.906H31.14L18.3037 24.9373Z" fill="#EEEEEE"/>
<rect x="33.7173" y="9.52363" width="114.639" height="118.492" fill="white" stroke="white" stroke-width="5.7801"/>
<path d="M74 25H41V27H74V25Z" fill="#E6E6E5"/>
<path d="M68 30H41V32H68V30Z" fill="#E6E6E5"/>
<path d="M78 20H41V22H78V20Z" fill="#E6E6E5"/>
<rect x="41" y="35" width="41" height="17" fill="#E5E5E6"/>
<rect x="41" y="87" width="41" height="17" fill="#E5E5E6"/>
<rect x="87" y="87" width="59" height="17" fill="#E5E5E6"/>
<rect x="87" y="18" width="59" height="64" fill="#E5E5E6"/>
<path d="M138 34H116V36H138V34Z" fill="#183D68"/>
<path d="M141 24H116V26H141V24Z" fill="#183D68"/>
<path d="M141 29H116V31H141V29Z" fill="#183D68"/>
<path d="M68 67H41V69H68V67Z" fill="#E5E5E6"/>
<path d="M82 56H41V58H82V56Z" fill="#E5E5E6"/>
<path d="M82 62H41V64H82V62Z" fill="#E5E5E6"/>
<path d="M82 73H41V75H82V73Z" fill="#E5E5E6"/>
<path d="M82 79H41V81H82V79Z" fill="#E5E5E6"/>
<path d="M92 38.225H113V23H92V38.225ZM93.7669 36.4379L97.9568 30.6125L100.544 34.2091L102.147 36.4379H98.9406H93.7669ZM105.004 28.0077L111.067 36.4379H102.893L102.638 36.0843L100.917 33.6904L105.004 28.0077ZM96.6644 24.9788C97.5789 24.9788 98.3202 25.7202 98.3202 26.6347C98.3202 27.5491 97.5789 28.2905 96.6644 28.2905C95.75 28.2905 95.0086 27.5491 95.0086 26.6347C95.0088 25.7202 95.7499 24.9788 96.6644 24.9788Z" fill="#183D68"/>
<path d="M138 54H116V56H138V54Z" fill="#183D68"/>
<path d="M141 44H116V46H141V44Z" fill="#183D68"/>
<path d="M141 49H116V51H141V49Z" fill="#183D68"/>
<path d="M92 58.225H113V43H92V58.225ZM93.7669 56.4379L97.9568 50.6125L100.544 54.2091L102.147 56.4379H98.9406H93.7669ZM105.004 48.0077L111.067 56.4379H102.893L102.638 56.0843L100.917 53.6904L105.004 48.0077ZM96.6644 44.9788C97.5789 44.9788 98.3202 45.7202 98.3202 46.6347C98.3202 47.5491 97.5789 48.2905 96.6644 48.2905C95.75 48.2905 95.0086 47.5491 95.0086 46.6347C95.0088 45.7202 95.7499 44.9788 96.6644 44.9788Z" fill="#183D68"/>
<path d="M138 74H116V76H138V74Z" fill="#183D68"/>
<path d="M141 64H116V66H141V64Z" fill="#183D68"/>
<path d="M141 69H116V71H141V69Z" fill="#183D68"/>
<path d="M92 78.225H113V63H92V78.225ZM93.7669 76.4379L97.9568 70.6125L100.544 74.2091L102.147 76.4379H98.9406H93.7669ZM105.004 68.0077L111.067 76.4379H102.893L102.638 76.0843L100.917 73.6904L105.004 68.0077ZM96.6644 64.9788C97.5789 64.9788 98.3202 65.7202 98.3202 66.6347C98.3202 67.5491 97.5789 68.2905 96.6644 68.2905C95.75 68.2905 95.0086 67.5491 95.0086 66.6347C95.0088 65.7202 95.7499 64.9788 96.6644 64.9788Z" fill="#183D68"/>
<path d="M31 12L151 12V0L31 0V12Z" fill="#C93636"/>
<rect x="99" y="3" width="44.25" height="6" rx="3" fill="white"/>
<circle cx="44" cy="6" r="3" fill="white"/>
<circle cx="52" cy="6" r="3" fill="white"/>
<circle cx="60" cy="6" r="3" fill="white"/>
</svg>
