<svg width="305" height="350" viewBox="0 0 305 350" fill="none" xmlns="http://www.w3.org/2000/svg">
<path d="M182.72 71.0695C171.804 44.953 142.445 31.8431 115.714 41.1487L120.661 53.0402C126.329 52.2324 131.828 55.3493 134.047 60.6282L141.303 78.0694C143.482 83.3633 141.816 89.4609 137.247 92.9116L142.256 104.952L188.766 85.6038L182.72 71.0695Z" fill="#183D68"/>
<path d="M191.185 91.4176L92.3516 132.533L110.491 176.136C121.844 203.427 153.172 216.349 180.465 204.995C207.756 193.641 220.677 162.312 209.324 135.02L191.185 91.4176Z" fill="#183D68"/>
<path d="M89.9331 126.719L136.443 107.371L131.434 95.3301C125.766 96.1379 120.267 93.021 118.048 87.7435L110.793 70.3024C108.613 65.007 110.279 58.9094 114.847 55.4587L109.9 43.5673C84.4546 55.9677 73.0572 86.0321 83.8868 112.185L89.9331 126.719Z" fill="#183D68"/>
<path d="M116.606 67.8839L123.862 85.3251C125.197 88.5357 128.883 90.0559 132.094 88.7203C135.304 87.3846 136.825 83.6986 135.489 80.488L128.233 63.0469C126.897 59.8348 123.212 58.316 120.001 59.6517C116.791 60.9873 115.27 64.6719 116.606 67.8839Z" fill="#C93636"/>
<g clip-path="url(#clip0_34_91)">
<path d="M162.543 208.978L136.751 218.804L91.0818 98.9203C87.8734 90.4979 91.0447 81.4921 98.1756 78.7756C105.306 76.0592 113.666 80.6724 116.874 89.0947L162.543 208.978Z" fill="#E5E5E6"/>
<path d="M213.541 264.861L187.597 274.744L141.927 154.861C138.719 146.438 141.89 137.432 149.021 134.716C156.152 131.999 164.512 136.613 167.72 145.035L213.389 264.919L213.541 264.861Z" fill="#E5E5E6"/>
<path d="M204.396 183.39L182.245 191.829L168.796 156.527C166.134 149.538 168.805 141.954 174.722 139.7C180.942 137.33 188.422 141.458 191.221 148.805L204.396 183.39Z" fill="#E5E5E6"/>
<path d="M216.493 235.213L204.469 238.767L167.035 192.493L188.998 154.372C190.758 151.239 193.383 149.008 196.417 147.852C202.638 145.482 209.814 149.725 211.869 156.945L214.387 165.836C219.219 183.079 220.591 200.819 218.466 218.045L216.493 235.213Z" fill="#E5E5E6"/>
<path d="M164.764 240.349L86.7217 210.16C83.8467 208.998 82.1627 205.946 82.6408 203.096L82.9898 201.732C85.9035 187.489 99.6344 180.206 113.736 185.299L165.949 207.886L164.764 240.349Z" fill="#E5E5E6"/>
<path d="M122.747 221.266L127.852 226.914C139.792 240.013 153.848 250.459 169.088 257.171L188.395 230.321L144.049 199.197L122.747 221.266Z" fill="#E5E5E6"/>
<path opacity="0.3" d="M200.639 230.993L198.818 231.686L183.494 237.524L174.846 240.818L153.605 248.91C158.649 252.118 163.777 255.09 169.156 257.35L176.879 246.61L187.596 274.744L213.541 264.861L202.755 236.548L204.469 238.767L216.493 235.213L217.783 224.461L200.639 230.993Z" fill="#C4C4C4"/>
<path d="M219.202 228.641L153.354 253.725L172.605 304.259L238.452 279.175L219.202 228.641Z" fill="white"/>
<path d="M223.298 231.184L151.837 258.407L171.088 308.941L242.548 281.718L223.298 231.184Z" fill="#C93636"/>
<path d="M164.391 260.992L167.57 269.944" stroke="white" stroke-width="3" stroke-linecap="round"/>
<path d="M177.843 256.629L181.022 265.582" stroke="white" stroke-width="3" stroke-linecap="round"/>
<path d="M189.515 251.358L192.694 260.31" stroke="white" stroke-width="3" stroke-linecap="round"/>
<path d="M202.53 245.651L205.709 254.603" stroke="white" stroke-width="3" stroke-linecap="round"/>
<path d="M215.092 240.834L218.271 249.786" stroke="white" stroke-width="3" stroke-linecap="round"/>
</g>
<path d="M97.1284 12.9031L95.4665 35.5523" stroke="#C93636" stroke-width="8" stroke-linecap="round"/>
<path d="M66.0151 22.8195L81.8682 39.8618" stroke="#C93636" stroke-width="8" stroke-linecap="round"/>
<path d="M52.3721 50.9204L76.4761 53.3414" stroke="#C93636" stroke-width="8" stroke-linecap="round"/>
<defs>
<clipPath id="clip0_34_91">
<rect width="138.166" height="241.043" fill="white" transform="translate(42.4937 99.9873) rotate(-20.854)"/>
</clipPath>
</defs>
</svg>
