<svg width="342" height="263" viewBox="0 0 342 263" fill="none" xmlns="http://www.w3.org/2000/svg">
<rect x="181.621" width="93.4658" height="27.6149" fill="#C4C4C4"/>
<path d="M132.481 216.685C111.022 223.76 88.2539 223.498 67.056 215.899C41.671 206.99 21.2582 188.647 9.74336 164.277C-1.77152 139.907 -3.08003 112.655 5.81783 87.2365C16.2859 58.412 36.1752 37.9727 64.1773 27.229L96.6283 125.233L193.72 159.822C182.466 186.812 160.484 207.514 132.481 216.685Z" fill="#183D68"/>
<path d="M115.994 121.04L196.86 90.9052C203.141 110.558 203.403 129.949 197.122 149.864L115.994 121.04Z" fill="#C93636"/>
<path d="M74.1218 23.8225C122.798 10.4584 173.307 34.8282 193.196 81.2096L103.956 114.227L74.1218 23.8225Z" fill="#C4C4C4"/>
<path d="M242.375 9.21089H195.79" stroke="white" stroke-width="2" stroke-linecap="round" stroke-linejoin="round"/>
<path d="M242.375 18.7851H217.691" stroke="white" stroke-width="2" stroke-linecap="round" stroke-linejoin="round"/>
<rect x="248.534" y="108.335" width="93.4658" height="27.6149" fill="#C93636"/>
<path d="M333.131 122.332C333.132 123.964 332.649 125.56 331.742 126.918C330.836 128.276 329.547 129.334 328.039 129.96C326.53 130.585 324.871 130.749 323.269 130.431C321.668 130.113 320.197 129.327 319.042 128.173C317.888 127.019 317.101 125.548 316.782 123.947C316.464 122.345 316.627 120.686 317.251 119.177C317.876 117.669 318.934 116.38 320.291 115.472C321.649 114.565 323.245 114.081 324.877 114.081C327.066 114.081 329.165 114.95 330.713 116.497C332.26 118.045 333.13 120.143 333.131 122.332Z" fill="white"/>
<path d="M309.288 117.546H262.703" stroke="white" stroke-width="2" stroke-linecap="round" stroke-linejoin="round"/>
<path d="M309.288 127.12H284.604" stroke="white" stroke-width="2" stroke-linecap="round" stroke-linejoin="round"/>
<rect x="201.801" y="234.727" width="93.4658" height="27.6149" fill="#183D68"/>
<path d="M262.555 243.938H215.97" stroke="white" stroke-width="2" stroke-linecap="round" stroke-linejoin="round"/>
<path d="M262.555 253.512H237.871" stroke="white" stroke-width="2" stroke-linecap="round" stroke-linejoin="round"/>
<path d="M129.578 66.913V13.8074H181.621" stroke="#E6E6E5" stroke-width="2"/>
<circle cx="129.578" cy="66.913" r="5.31056" fill="#183D68"/>
<path d="M96.6521 186.401V248.003H201.27" stroke="#E6E6E5" stroke-width="2"/>
<path d="M183.214 122.674H248.003" stroke="#E6E6E5" stroke-width="2"/>
<circle cx="182.683" cy="122.143" r="5.31056" fill="white"/>
<circle cx="96.6521" cy="185.87" r="5.31056" fill="white"/>
<g clip-path="url(#clip0_34_1276)">
<path d="M285.708 245.433L279.93 244.498L277.211 238.975L274.492 244.498L268.714 245.433L272.878 249.851L271.943 255.969L277.211 253.165L282.479 255.969L281.545 249.851L285.708 245.433Z" fill="white"/>
</g>
<path d="M265.543 12.178C265.364 8.41585 261.96 5.31056 258.079 5.31056C254.197 5.31056 250.853 8.41585 250.674 12.178C250.554 14.7459 250.972 17.4929 258.079 23.2257C265.245 17.4929 265.603 14.7459 265.543 12.178Z" fill="white"/>
<path d="M258.079 15.9402C259.728 15.9402 261.064 14.6034 261.064 12.9544C261.064 11.3053 259.728 9.9685 258.079 9.9685C256.43 9.9685 255.093 11.3053 255.093 12.9544C255.093 14.6034 256.43 15.9402 258.079 15.9402Z" fill="#E6E6E5"/>
<defs>
<clipPath id="clip0_34_1276">
<rect width="16.9938" height="16.9938" fill="white" transform="translate(268.714 238.975)"/>
</clipPath>
</defs>
</svg>
