<svg width="132" height="168" viewBox="0 0 132 168" fill="none" xmlns="http://www.w3.org/2000/svg">
<path d="M130.266 33.9648L130.017 37.8127L130.669 37.8548L130.918 34.0069L130.266 33.9648Z" fill="#193D69"/>
<path d="M131.251 18.3834L130.435 31.0359L131.087 31.0779L131.903 18.4255L131.251 18.3834Z" fill="#193D69"/>
<path d="M123.523 0H46.6643C42.6122 0 39.1483 3.26781 38.8869 7.31989L28.9528 160.58C28.6914 164.632 31.7631 167.9 35.8152 167.9H112.674C116.726 167.9 120.19 164.632 120.451 160.58L130.386 7.31989C130.582 3.26781 127.51 0 123.523 0Z" fill="#193D69"/>
<path opacity="0.7" d="M121.04 0H46.6643C42.6122 0 39.1483 3.26781 38.8869 7.31989L28.9528 160.58C28.6914 164.632 31.7631 167.9 35.8152 167.9H110.191C114.243 167.9 117.706 164.632 117.968 160.58L127.902 7.31989C128.163 3.26781 125.092 0 121.04 0Z" fill="white"/>
<path d="M114.765 156.593H32.9396C31.6324 156.593 30.6521 155.482 30.7174 154.241L39.7366 15.4894C39.8019 14.313 40.7823 13.398 41.9587 13.398H123.785C125.092 13.398 126.072 14.509 126.007 15.7508L117.053 154.437C116.922 155.678 115.942 156.593 114.765 156.593Z" fill="white"/>
<path d="M96.5965 8.88847H66.8594C66.2059 8.88847 65.683 8.36562 65.7484 7.71206C65.8137 7.05849 66.3366 6.53564 66.9901 6.53564H96.7272C97.3807 6.53564 97.9036 7.05849 97.8382 7.71206C97.8382 8.36562 97.25 8.88847 96.5965 8.88847Z" fill="white"/>
<path d="M73.395 162.41C73.3296 164.044 71.9572 165.351 70.3232 165.351C68.6893 165.351 67.4476 164.044 67.5783 162.41C67.6436 160.776 69.0161 159.469 70.65 159.469C72.2186 159.469 73.4603 160.776 73.395 162.41Z" fill="white"/>
<path opacity="0.2" d="M105.877 51.8275H36.0112L31.567 120.386H105.877C109.929 120.386 113.197 117.118 113.197 113.066V59.1474C113.197 55.0953 109.929 51.8275 105.877 51.8275Z" fill="#193D69"/>
<path d="M99.3414 114.308H13.7249C9.67278 114.308 6.40497 111.04 6.40497 106.988V53.0692C6.40497 49.0171 9.67278 45.7493 13.7249 45.7493H99.3414C103.394 45.7493 106.661 49.0171 106.661 53.0692V106.988C106.661 110.975 103.394 114.308 99.3414 114.308Z" fill="#CA3736"/>
<path d="M4.05217 44.9651C3.8561 44.9651 3.72539 44.8997 3.59468 44.769L2.41827 43.5926C2.15684 43.3312 2.15684 42.939 2.41827 42.6776C2.67969 42.4162 3.07183 42.4162 3.33325 42.6776L4.50966 43.854C4.77109 44.1154 4.77109 44.5076 4.50966 44.769C4.37895 44.8997 4.24824 44.9651 4.05217 44.9651Z" fill="#CA3736"/>
<path d="M2.28753 49.0171H0.653623C0.261486 49.0171 6.10352e-05 48.7557 6.10352e-05 48.3635C6.10352e-05 47.9714 0.261486 47.71 0.653623 47.71H2.28753C2.67966 47.71 2.94109 47.9714 2.94109 48.3635C2.94109 48.7557 2.67966 49.0171 2.28753 49.0171Z" fill="#CA3736"/>
<path d="M8.2349 43.2004C7.90812 43.2004 7.58134 42.939 7.58134 42.6122L7.45062 40.9783C7.45062 40.5862 7.71205 40.3248 8.03883 40.2594C8.43097 40.2594 8.69239 40.5208 8.75775 40.8476L8.88846 42.4815C8.88846 42.8083 8.62703 43.1351 8.2349 43.2004Z" fill="#CA3736"/>
<path d="M63.8529 107.249L90.1261 133.523V107.249H63.8529Z" fill="#CA3736"/>
<path d="M71.0421 95.7468L69.8004 90.1915C69.4736 88.7537 69.4736 87.2505 69.8004 85.7473L71.565 77.8392C73.1335 70.7807 69.5389 63.7222 63.3955 60.6505C63.4608 60.5198 63.5262 60.3891 63.5262 60.193C63.9837 58.167 62.7419 56.2063 60.7159 55.7488C58.6898 55.2913 56.7291 56.5331 56.2716 58.5591C56.2063 58.6898 56.2063 58.8859 56.2063 59.0166C49.2785 59.1473 43.0043 64.049 41.4358 71.0421L39.6712 78.9502C39.3444 80.3881 38.6908 81.7605 37.7758 82.937L34.2466 87.4465C32.7434 89.3419 33.7238 92.1522 36.1419 92.7404L67.1861 99.6681C69.4736 100.191 71.6303 98.0996 71.0421 95.7468Z" fill="white"/>
<path d="M47.6446 97.446C46.5989 97.1846 45.6839 98.0996 45.88 99.1453C46.2068 101.237 47.8407 103.001 49.9974 103.459C52.2195 103.982 54.3763 103.001 55.5527 101.302C56.1409 100.452 55.6834 99.276 54.7031 99.0146L47.6446 97.446Z" fill="white"/>
<path d="M23.7896 86.4008C23.4629 86.4008 23.1361 86.2701 23.0054 85.9433C19.8683 81.3031 18.7572 75.6824 19.8683 70.1925C20.9793 64.7026 24.1164 59.9969 28.7567 56.9252C29.2142 56.5984 29.8024 56.7291 30.1292 57.1866C30.456 57.6441 30.3253 58.2323 29.8678 58.5591C25.6196 61.3694 22.7439 65.6829 21.7636 70.65C20.7833 75.6171 21.7636 80.7148 24.5739 84.8976C24.9007 85.3551 24.77 85.9433 24.3125 86.2701C24.1818 86.4008 23.9857 86.4008 23.7896 86.4008Z" fill="white"/>
<path d="M27.9072 83.6558C27.5804 83.6558 27.2536 83.5251 27.1229 83.1983C24.7701 79.6691 23.9204 75.421 24.7701 71.2382C25.6197 67.0554 28.0379 63.4608 31.5671 61.108C32.0246 60.7812 32.6128 60.9119 32.9396 61.3694C33.2664 61.8269 33.1357 62.4151 32.6782 62.7419C29.5411 64.8333 27.4497 67.9704 26.7308 71.6303C26.0118 75.2902 26.7308 79.0155 28.8222 82.1526C29.1489 82.6101 29.0182 83.1983 28.5607 83.5251C28.2993 83.5905 28.1032 83.6558 27.9072 83.6558Z" fill="white"/>
<path d="M32.09 80.9109C31.7632 80.9109 31.4365 80.7801 31.3058 80.4534C29.6719 78.0352 29.0836 75.0942 29.6719 72.2185C30.2601 69.3428 31.894 66.8593 34.3121 65.2254C34.7696 64.8986 35.3578 65.0293 35.6846 65.4868C36.0114 65.9443 35.8807 66.5325 35.4232 66.8593C33.3972 68.1664 32.09 70.2578 31.5672 72.6106C31.1097 74.9634 31.5672 77.3816 32.9397 79.4077C33.2664 79.8652 33.1357 80.4534 32.6782 80.7801C32.4822 80.8455 32.2861 80.9109 32.09 80.9109Z" fill="white"/>
<path d="M80.3228 100.256C79.996 100.256 79.6039 100.06 79.4732 99.7335C79.2117 99.276 79.4078 98.6878 79.8653 98.4264C84.3749 96.0736 87.7081 92.1522 89.2766 87.3158C90.8452 82.4795 90.3877 77.3163 88.0348 72.8068C87.7734 72.3493 87.9695 71.7611 88.427 71.4996C88.8845 71.2382 89.4727 71.4343 89.7341 71.8918C92.283 76.8588 92.8058 82.5448 91.1066 87.904C89.4073 93.2632 85.7474 97.5767 80.7803 100.191C80.5842 100.191 80.4535 100.256 80.3228 100.256Z" fill="white"/>
<path d="M78.0354 95.8121C77.7086 95.8121 77.3165 95.616 77.1858 95.2892C76.9243 94.8317 77.1204 94.2435 77.5779 93.9821C80.9111 92.2829 83.3292 89.3418 84.5057 85.8126C85.6167 82.218 85.3553 78.4273 83.5907 75.1595C83.3292 74.702 83.5253 74.1138 83.9828 73.8524C84.4403 73.591 85.0285 73.7871 85.2899 74.2445C87.2506 78.0352 87.6427 82.3487 86.3356 86.4008C85.0285 90.4529 82.2182 93.786 78.4275 95.7467C78.2968 95.7467 78.1661 95.8121 78.0354 95.8121Z" fill="white"/>
<path d="M75.7479 91.3679C75.4211 91.3679 75.029 91.1718 74.8983 90.845C74.6368 90.3876 74.8329 89.7993 75.2904 89.5379C77.4471 88.4269 79.0157 86.5315 79.7346 84.2441C80.4535 81.9566 80.2575 79.5384 79.1464 77.3817C78.885 76.9242 79.081 76.336 79.5385 76.0746C79.996 75.8131 80.5842 76.0092 80.8457 76.4667C83.5906 81.8259 81.4992 88.4922 76.14 91.2372C76.0093 91.3025 75.8786 91.3679 75.7479 91.3679Z" fill="white"/>
</svg>
