<svg width="135" height="118" viewBox="0 0 135 118" fill="none" xmlns="http://www.w3.org/2000/svg">
<path d="M19.248 73.8182L2 116H3.20335H132.764L115.516 73.8182H19.248Z" stroke="#183D68" stroke-width="4" stroke-linecap="round" stroke-linejoin="round"/>
<path d="M28.3638 73.8182L54.7274 105.455" stroke="#183D68" stroke-width="4" stroke-linecap="round" stroke-linejoin="round"/>
<path d="M31.5273 116L120.109 84.3636" stroke="#183D68" stroke-width="4" stroke-linecap="round" stroke-linejoin="round"/>
<path d="M111.673 116L93.7456 94.9091" stroke="#183D68" stroke-width="4" stroke-linecap="round" stroke-linejoin="round"/>
<path d="M70.5972 0C50.7973 0 34.6909 16.1083 34.6909 35.9063C34.6909 62.3958 67.8193 93.88 69.2298 95.2085C69.6154 95.5689 70.1063 95.7501 70.5972 95.7501C71.0881 95.7501 71.579 95.5689 71.9648 95.2085C73.3751 93.88 106.504 62.3958 106.504 35.9063C106.504 16.1083 90.3971 0 70.5972 0Z" fill="#CA3636"/>
<path d="M70.8914 54.0066C59.8926 54.0066 50.9434 45.0573 50.9434 34.0586C50.9434 23.0599 59.8928 14.1106 70.8914 14.1106C81.8899 14.1106 90.8394 23.0601 90.8394 34.0586C90.8394 45.0572 81.8901 54.0066 70.8914 54.0066Z" fill="white"/>
</svg>
