<svg width="154" height="119" viewBox="0 0 154 119" fill="none" xmlns="http://www.w3.org/2000/svg">
<rect width="154" height="103" rx="2.98606" fill="#183D68"/>
<rect x="3" y="3" width="149" height="97" fill="white"/>
<path fill-rule="evenodd" clip-rule="evenodd" d="M57.8504 112.09C60.9718 112.09 63.5022 109.56 63.5022 106.438H93.3756C93.3756 109.56 95.906 112.09 99.0274 112.09H99.0279H110.331V118.549H46.5464V112.09H57.8498C57.85 112.09 57.8502 112.09 57.8504 112.09Z" fill="#183D68"/>
<rect x="12.7212" y="21.3279" width="127.262" height="24.1855" fill="#E6E6E5"/>
<rect x="41" y="50" width="46" height="23" fill="#E6E6E5"/>
<rect x="94" y="50" width="46" height="23" fill="#E6E6E5"/>
<rect x="13" y="50" width="22" height="39" fill="#C93636"/>
<rect x="41" y="77" width="41" height="2" fill="#E6E6E5"/>
<rect x="41" y="81" width="46" height="2" fill="#E6E6E5"/>
<rect x="41" y="85" width="46" height="2" fill="#E6E6E5"/>
<rect x="94" y="77" width="41" height="2" fill="#E6E6E5"/>
<rect x="94" y="81" width="46" height="2" fill="#E6E6E5"/>
<rect x="94" y="85" width="46" height="2" fill="#E6E6E5"/>
<rect x="14" y="11" width="54" height="6" fill="#E6E6E5"/>
<rect x="72" y="8" width="68" height="10" fill="#C93636"/>
</svg>
