<svg width="395" height="237" viewBox="0 0 395 237" fill="none" xmlns="http://www.w3.org/2000/svg">
<mask id="path-1-inside-1_34_1275" fill="white">
<rect x="23" width="258.19" height="171.676" rx="4.81675"/>
</mask>
<rect x="23" width="258.19" height="171.676" rx="4.81675" fill="white" stroke="#183D68" stroke-width="15.4136" mask="url(#path-1-inside-1_34_1275)"/>
<path fill-rule="evenodd" clip-rule="evenodd" d="M119.656 188.119C124.775 188.119 128.924 183.97 128.924 178.851H177.914C177.914 183.97 182.064 188.119 187.183 188.119H187.183H205.72V198.712H101.12V188.119H119.656C119.656 188.119 119.656 188.119 119.656 188.119Z" fill="#183D68"/>
<path d="M72.9617 28.7283L64.6844 18L45 44.3789H93.3188L80.3441 26.9448L72.5115 37.4509L66.5355 37.4398L72.9617 28.7283Z" fill="#CA3636"/>
<rect x="194.884" y="31" width="26.1161" height="115.819" rx="5" fill="#E5E5E6"/>
<rect x="233" y="16" width="26" height="131" rx="5" fill="#E5E5E6"/>
<rect x="45" y="84.3678" width="26.1161" height="62.4516" rx="5" fill="#E5E5E6"/>
<rect x="82.4707" y="69.6064" width="26.1161" height="77.2129" rx="5" fill="#E5E5E6"/>
<rect x="119.942" y="57.1161" width="26.1161" height="89.7032" rx="5" fill="#E5E5E6"/>
<rect x="157.413" y="42.3549" width="26.1161" height="104.465" rx="5" fill="#E5E5E6"/>
<rect x="45" y="154" width="214" height="8" fill="#E5E5E6"/>
<circle cx="59.1936" cy="132.626" r="14.1935" fill="#C93636"/>
<circle cx="59.1936" cy="132.626" r="7.38065" fill="white"/>
<path d="M54.084 142.277L97.2324 83.7999L135.271 120.135L177.284 65.0645L219 96L255 42" stroke="#183D68" stroke-width="6" stroke-linecap="round"/>
<circle cx="59.1936" cy="132.626" r="14.1935" fill="#C93636"/>
<circle cx="59.1931" cy="132.626" r="7.38065" fill="white"/>
<circle cx="96.6643" cy="83.8" r="14.1935" fill="#C93636"/>
<circle cx="96.6638" cy="83.8" r="7.38065" fill="white"/>
<circle cx="134.135" cy="119" r="14.1935" fill="#C93636"/>
<circle cx="134.136" cy="119" r="7.38065" fill="white"/>
<circle cx="177.284" cy="65.6323" r="14.1935" fill="#C93636"/>
<circle cx="177.283" cy="65.6322" r="7.38065" fill="white"/>
<circle cx="219.194" cy="94.1936" r="14.1935" fill="#C93636"/>
<circle cx="219.194" cy="94.1935" r="7.38065" fill="white"/>
<circle cx="251.194" cy="42.1936" r="14.1935" fill="#C93636"/>
<circle cx="251.194" cy="42.1935" r="7.38065" fill="white"/>
<path d="M223 121C223 115.477 227.477 111 233 111H384.815C390.338 111 394.815 115.477 394.815 121V226.297C394.815 231.82 390.338 236.297 384.815 236.297H233C227.477 236.297 223 231.82 223 226.297V121Z" fill="#183D68"/>
<path d="M229.002 165.771L229.002 183.777L230.503 183.777L230.503 165.771L229.002 165.771Z" fill="#D5D4DE"/>
<path d="M232.501 231.796C229.74 231.796 227.501 229.557 227.501 226.796L227.501 120.502C227.501 117.74 229.74 115.502 232.501 115.502L386.063 115.502C388.825 115.502 391.063 117.74 391.063 120.502L391.063 226.796C391.063 229.557 388.825 231.796 386.063 231.796L232.501 231.796Z" fill="white"/>
<path d="M57.8144 104H9.26382C4.14755 104 0 108.261 0 113.518V226.865C0 232.122 4.14755 236.383 9.26382 236.383H57.8144C62.9307 236.383 67.0783 232.122 67.0783 226.865V113.518C67.0783 108.261 62.9307 104 57.8144 104Z" fill="#183D68"/>
<path d="M37.9664 108.754H27.7598V109.681H37.9664V108.754Z" fill="#D5D4DE"/>
<path d="M42.034 109.22C42.0348 109.351 42.0009 109.479 41.9367 109.588C41.8725 109.697 41.7809 109.782 41.6734 109.833C41.5659 109.883 41.4474 109.897 41.3329 109.872C41.2184 109.847 41.1131 109.785 41.0304 109.693C40.9476 109.601 40.8911 109.483 40.8681 109.355C40.845 109.227 40.8564 109.094 40.9009 108.974C40.9453 108.853 41.0208 108.749 41.1177 108.677C41.2146 108.604 41.3286 108.565 41.4452 108.565C41.6006 108.565 41.7498 108.634 41.8601 108.757C41.9704 108.88 42.0329 109.046 42.034 109.22Z" fill="#D5D4DE"/>
<path d="M2.54297 112.306C2.54297 109.545 4.78155 107.306 7.54297 107.306H59.5491C62.3106 107.306 64.5491 109.545 64.5491 112.306V228.605C64.5491 231.367 62.3106 233.605 59.5491 233.605H7.54297C4.78155 233.605 2.54297 231.367 2.54297 228.605V112.306Z" fill="white"/>
<path d="M21.8013 107.256H46.4636V108.986C46.4636 109.536 46.3668 110.081 46.1787 110.59C45.9906 111.098 45.715 111.561 45.3674 111.95C45.0199 112.339 44.6073 112.648 44.1533 112.858C43.6992 113.069 43.2125 113.178 42.721 113.178H25.5439C24.5513 113.178 23.5993 112.736 22.8974 111.95C22.1956 111.164 21.8013 110.097 21.8013 108.986V107.256Z" fill="#E5E5E6"/>
<path d="M37.2042 109.009H26.9976V109.936H37.2042V109.009Z" fill="#C4C4C4"/>
<path d="M41.2713 109.474C41.2721 109.605 41.2382 109.733 41.174 109.842C41.1098 109.951 41.0182 110.036 40.9107 110.087C40.8032 110.138 40.6847 110.151 40.5702 110.126C40.4557 110.102 40.3504 110.039 40.2677 109.947C40.1849 109.855 40.1284 109.738 40.1054 109.609C40.0823 109.481 40.0937 109.349 40.1382 109.228C40.1826 109.107 40.2581 109.004 40.355 108.931C40.4519 108.858 40.5659 108.82 40.6825 108.82C40.8379 108.82 40.9871 108.888 41.0974 109.011C41.2077 109.134 41.2702 109.3 41.2713 109.474Z" fill="#C4C4C4"/>
<path d="M260.782 138.507L255.814 132L244 148H273L265.213 137.425L260.512 143.798L256.925 143.791L260.782 138.507Z" fill="#CA3636"/>
<rect x="335.368" y="140.144" width="15.9201" height="70.6022" rx="5" fill="#E5E5E6"/>
<rect x="358.603" y="131" width="15.8493" height="79.8562" rx="5" fill="#E5E5E6"/>
<rect x="244" y="172.676" width="15.9201" height="38.0698" rx="5" fill="#E5E5E6"/>
<rect x="266.842" y="163.678" width="15.9201" height="47.0681" rx="5" fill="#E5E5E6"/>
<rect x="289.684" y="156.064" width="15.9201" height="54.6821" rx="5" fill="#E5E5E6"/>
<rect x="312.525" y="147.066" width="15.9201" height="63.6804" rx="5" fill="#E5E5E6"/>
<rect x="244" y="215.123" width="130.452" height="4.87671" fill="#E5E5E6"/>
<circle cx="252.652" cy="202.094" r="8.65223" fill="#C93636"/>
<circle cx="252.652" cy="202.094" r="4.49916" fill="white"/>
<path d="M249.538 207.977L275.84 172.33L299.028 194.48L324.639 160.909L350.069 179.767L372.014 146.849" stroke="#183D68" stroke-width="6" stroke-linecap="round"/>
<circle cx="252.652" cy="202.094" r="8.65223" fill="#C93636"/>
<circle cx="252.652" cy="202.094" r="4.49916" fill="white"/>
<circle cx="275.494" cy="172.33" r="8.65223" fill="#C93636"/>
<circle cx="275.494" cy="172.33" r="4.49916" fill="white"/>
<circle cx="298.336" cy="193.788" r="8.65223" fill="#C93636"/>
<circle cx="298.336" cy="193.788" r="4.49916" fill="white"/>
<circle cx="324.639" cy="161.255" r="8.65223" fill="#C93636"/>
<circle cx="324.638" cy="161.255" r="4.49916" fill="white"/>
<circle cx="350.186" cy="178.666" r="8.65223" fill="#C93636"/>
<circle cx="350.187" cy="178.666" r="4.49916" fill="white"/>
<circle cx="369.693" cy="146.967" r="8.65223" fill="#C93636"/>
<circle cx="369.693" cy="146.967" r="4.49916" fill="white"/>
<rect x="43.0449" y="165.496" width="6.28056" height="27.8529" rx="3.14028" fill="#E5E5E6"/>
<rect x="52.2114" y="161.889" width="6.25263" height="31.5037" rx="3.12632" fill="#E5E5E6"/>
<rect x="7" y="178.331" width="6.28056" height="15.0187" rx="3.14028" fill="#E5E5E6"/>
<rect x="16.0112" y="174.781" width="6.28056" height="18.5686" rx="3.14028" fill="#E5E5E6"/>
<rect x="25.0225" y="171.777" width="6.28056" height="21.5724" rx="3.14028" fill="#E5E5E6"/>
<rect x="34.0337" y="168.227" width="6.28056" height="25.1222" rx="3.14028" fill="#E5E5E6"/>
<rect x="7" y="195.076" width="51.464" height="1.92389" fill="#E5E5E6"/>
<circle cx="10.4133" cy="189.936" r="3.41335" fill="#C93636"/>
<circle cx="10.4136" cy="189.936" r="1.77494" fill="white"/>
<path d="M9.18457 192.257L19.5612 178.194L28.7089 186.932L38.8124 173.688L48.8446 181.128L57.502 168.142" stroke="#183D68" stroke-width="3" stroke-linecap="round"/>
<circle cx="10.4133" cy="189.936" r="3.41335" fill="#C93636"/>
<circle cx="10.4131" cy="189.936" r="1.77494" fill="white"/>
<circle cx="19.4246" cy="178.194" r="3.41335" fill="#C93636"/>
<circle cx="19.4244" cy="178.194" r="1.77494" fill="white"/>
<circle cx="28.4358" cy="186.659" r="3.41335" fill="#C93636"/>
<circle cx="28.4361" cy="186.659" r="1.77494" fill="white"/>
<circle cx="38.8123" cy="173.825" r="3.41335" fill="#C93636"/>
<circle cx="38.812" cy="173.825" r="1.77494" fill="white"/>
<circle cx="48.8909" cy="180.693" r="3.41335" fill="#C93636"/>
<circle cx="48.8912" cy="180.693" r="1.77494" fill="white"/>
<circle cx="56.5867" cy="168.188" r="3.41335" fill="#C93636"/>
<circle cx="56.587" cy="168.188" r="1.77494" fill="white"/>
<path d="M36.2543 136.771L30.2585 129L16 148.108H51L41.6017 135.479L35.9281 143.089L31.5994 143.081L36.2543 136.771Z" fill="#CA3636"/>
</svg>
