<svg width="116" height="121" viewBox="0 0 116 121" fill="none" xmlns="http://www.w3.org/2000/svg">
<path d="M76.0241 74.3225L76.024 64.8857C75.8428 64.6714 75.6528 64.4627 75.452 64.2619C73.5742 62.3841 71.0778 61.35 68.4231 61.3503C67.3155 61.35 66.5611 61.3501 66.5611 61.3501C65.9152 61.3502 65.3916 61.8739 65.3914 62.5198C65.3914 62.5198 65.3913 63.2742 65.3916 64.3812C65.3913 67.0364 66.4254 69.5329 68.3032 71.4107C70.181 73.2885 72.6774 74.3225 75.3321 74.3223C75.5829 74.3224 75.8143 74.3224 76.0241 74.3225Z" fill="#C93636"/>
<path d="M85.9664 61.3498C83.3112 61.3495 80.8147 62.3836 78.9369 64.2614C78.7361 64.4622 78.5461 64.6708 78.3649 64.8852L78.3649 74.322C78.5744 74.3219 78.8061 74.3219 79.0563 74.3218C81.7115 74.3221 84.208 73.288 86.0857 71.4103C87.9635 69.5325 88.9976 67.036 88.9973 64.3813C88.9976 63.2738 88.9975 62.5193 88.9975 62.5193C88.9973 61.8734 88.4737 61.3498 87.8278 61.3497C87.8279 61.3496 87.0735 61.3495 85.9664 61.3498Z" fill="#C93636"/>
<path d="M76.0241 88.4992L76.024 79.0625C75.8428 78.8481 75.6528 78.6394 75.452 78.4386C73.5742 76.5608 71.0778 75.5268 68.4231 75.5271C67.3155 75.5268 66.5611 75.5269 66.5611 75.5269C65.9152 75.527 65.3916 76.0506 65.3914 76.6965C65.3914 76.6965 65.3913 77.4509 65.3916 78.558C65.3913 81.2132 66.4254 83.7097 68.3032 85.5875C70.181 87.4653 72.6774 88.4993 75.3321 88.499C75.5829 88.4991 75.8142 88.4991 76.0241 88.4992Z" fill="#C93636"/>
<path d="M85.9664 75.5266C83.3111 75.5263 80.8147 76.5603 78.9369 78.4381C78.7361 78.6389 78.5461 78.8476 78.3648 79.0619L78.3649 88.4987C78.5744 88.4986 78.8061 88.4985 79.0563 88.4985C81.7115 88.4988 84.208 87.4647 86.0857 85.587C87.9635 83.7092 88.9976 81.2127 88.9973 78.558C88.9976 77.4505 88.9975 76.696 88.9975 76.696C88.9973 76.0501 88.4737 75.5265 87.8278 75.5264C87.8278 75.5264 87.0734 75.5262 85.9664 75.5266Z" fill="#C93636"/>
<path d="M76.3668 45.7432L73.7086 48.4013C72.3042 49.8058 71.5308 51.673 71.531 53.6589C71.5312 55.6451 72.3045 57.5122 73.7086 58.9163L76.3668 61.5745C76.8237 62.0313 77.5644 62.0313 78.0213 61.5745L80.6794 58.9163C82.0839 57.5118 82.8573 55.6447 82.8572 53.6587C82.8569 51.6725 82.0835 49.8054 80.6794 48.4013L78.0213 45.7432C77.5644 45.2863 76.8237 45.2863 76.3668 45.7432V45.7432Z" fill="#C93636"/>
<path d="M76.0247 99.7337C76.0246 100.38 76.5484 100.904 77.1945 100.904C77.8405 100.904 78.3643 100.38 78.3644 99.7337L78.3644 90.8384L76.0247 90.8388L76.0247 99.7337Z" fill="#C93636"/>
<path d="M52.2635 86.6715L52.2635 78.8206C52.1127 78.6423 51.9547 78.4687 51.7876 78.3016C50.2254 76.7394 48.1484 75.8791 45.9398 75.8793C45.0184 75.8791 44.3908 75.8792 44.3908 75.8792C43.8534 75.8793 43.4178 76.3149 43.4177 76.8523C43.4177 76.8523 43.4175 77.4799 43.4178 78.4009C43.4176 80.6099 44.2779 82.6869 45.8401 84.2491C47.4023 85.8113 49.4792 86.6716 51.6879 86.6714C51.8965 86.6714 52.0889 86.6715 52.2635 86.6715Z" fill="#C93636"/>
<path d="M60.5348 75.8789C58.3257 75.8787 56.2488 76.7389 54.6865 78.3012C54.5195 78.4682 54.3614 78.6418 54.2106 78.8201L54.2107 86.6711C54.385 86.671 54.5777 86.671 54.7859 86.6709C56.9949 86.6712 59.0718 85.8109 60.634 84.2487C62.1963 82.6864 63.0566 80.6095 63.0563 78.4009C63.0566 77.4795 63.0565 76.8519 63.0565 76.8519C63.0564 76.3145 62.6207 75.8789 62.0834 75.8788C62.0834 75.8788 61.4558 75.8786 60.5348 75.8789Z" fill="#C93636"/>
<path d="M52.5488 63.3985L50.3373 65.6099C49.1689 66.7784 48.5255 68.3318 48.5256 69.984C48.5258 71.6364 49.1692 73.1897 50.3373 74.3579L52.5488 76.5693C52.9289 76.9494 53.5452 76.9494 53.9252 76.5693L56.1367 74.3579C57.3051 73.1894 57.9486 71.6361 57.9485 69.9838C57.9483 68.3314 57.3048 66.778 56.1367 65.6099L53.9252 63.3985C53.5452 63.0184 52.9289 63.0184 52.5488 63.3985V63.3985Z" fill="#C93636"/>
<path d="M52.2639 96.018C52.2639 96.5555 52.6996 96.9913 53.2372 96.9913C53.7746 96.9913 54.2104 96.5555 54.2104 96.018L54.2104 88.6176L52.2639 88.6179L52.2639 96.018Z" fill="#C93636"/>
<path d="M110.86 72.5794V4.09346C110.86 2.93727 109.923 2 108.766 2H4.09346C2.93727 2 2 2.93727 2 4.09346V108.766C2 109.923 2.93727 110.86 4.09346 110.86H67.7944" stroke="#183C68" stroke-width="4" stroke-linejoin="round"/>
<circle cx="16.1308" cy="14.0374" r="3.66355" fill="#C93636"/>
<circle cx="28.6914" cy="14.0374" r="3.66355" fill="#C93636"/>
<circle cx="40.2055" cy="14.0374" r="3.66355" fill="#C93636"/>
<path d="M5.14014 25.0281H107.72" stroke="#183C68" stroke-width="4" stroke-linecap="round"/>
<circle cx="67.9438" cy="67.9439" r="33.5888" stroke="#183D68" stroke-width="4"/>
<path d="M89.9253 94.1122L114 118.187" stroke="#183C68" stroke-width="4" stroke-linecap="round"/>
</svg>
