<svg width="116" height="119" viewBox="0 0 116 119" fill="none" xmlns="http://www.w3.org/2000/svg">
<path d="M106 67.4835V4C106 2.89543 105.105 2 104 2H4C2.89543 2 2 2.89543 2 4V101C2 102.105 2.89543 103 4 103H64.8571" stroke="#183C68" stroke-width="4" stroke-linejoin="round"/>
<circle cx="15.5" cy="12.5" r="3.5" fill="#C93636"/>
<circle cx="27.5" cy="12.5" r="3.5" fill="#C93636"/>
<circle cx="38.5" cy="12.5" r="3.5" fill="#C93636"/>
<path d="M5 23H103" stroke="#183C68" stroke-width="4" stroke-linecap="round"/>
<rect x="35" y="37" width="54" height="2" fill="#E6E6E5"/>
<rect x="35" y="43" width="54" height="2" fill="#E6E6E5"/>
<rect x="35" y="48" width="54" height="2" fill="#E6E6E5"/>
<circle cx="21.5" cy="43.5" r="9.5" fill="#C93636"/>
<rect x="35" y="64" width="29" height="2" fill="#E6E6E5"/>
<rect x="35" y="70" width="25" height="2" fill="#E6E6E5"/>
<rect x="35" y="76" width="20" height="2" fill="#E6E6E5"/>
<ellipse cx="21.5" cy="70" rx="9.5" ry="9" fill="#C93636"/>
<circle cx="83.5" cy="83.5" r="21.5" stroke="#183D68" stroke-width="4"/>
<path d="M98 101L114 117" stroke="#183C68" stroke-width="4" stroke-linecap="round"/>
<path d="M25.3579 45.186C25.3579 45.6713 25.2319 46.1287 24.9799 46.558C24.7373 46.978 24.3733 47.328 23.8879 47.608C23.4119 47.8787 22.8473 48.0373 22.1939 48.084V49.218H21.2979V48.07C20.3646 47.986 19.6133 47.706 19.0439 47.23C18.4746 46.7447 18.1806 46.0913 18.1619 45.27H20.2619C20.3179 45.942 20.6633 46.348 21.2979 46.488V43.814C20.6259 43.646 20.0846 43.478 19.6739 43.31C19.2633 43.142 18.9086 42.8713 18.6099 42.498C18.3113 42.1247 18.1619 41.616 18.1619 40.972C18.1619 40.16 18.4513 39.4973 19.0299 38.984C19.6179 38.4707 20.3739 38.1767 21.2979 38.102V36.968H22.1939V38.102C23.0899 38.1767 23.8039 38.4473 24.3359 38.914C24.8773 39.3807 25.1806 40.0247 25.2459 40.846H23.1319C23.1039 40.5753 23.0059 40.342 22.8379 40.146C22.6793 39.9407 22.4646 39.796 22.1939 39.712V42.358C22.8939 42.5353 23.4446 42.708 23.8459 42.876C24.2566 43.0347 24.6113 43.3007 24.9099 43.674C25.2086 44.038 25.3579 44.542 25.3579 45.186ZM20.2059 40.874C20.2059 41.182 20.2993 41.434 20.4859 41.63C20.6726 41.8167 20.9433 41.9707 21.2979 42.092V39.67C20.9619 39.7167 20.6959 39.8427 20.4999 40.048C20.3039 40.2533 20.2059 40.5287 20.2059 40.874ZM22.1939 46.516C22.5486 46.4507 22.8239 46.306 23.0199 46.082C23.2253 45.858 23.3279 45.5873 23.3279 45.27C23.3279 44.962 23.2299 44.7147 23.0339 44.528C22.8379 44.3413 22.5579 44.1873 22.1939 44.066V46.516Z" fill="white"/>
<path d="M25.3579 72.186C25.3579 72.6713 25.2319 73.1287 24.9799 73.558C24.7373 73.978 24.3733 74.328 23.8879 74.608C23.4119 74.8787 22.8473 75.0373 22.1939 75.084V76.218H21.2979V75.07C20.3646 74.986 19.6133 74.706 19.0439 74.23C18.4746 73.7447 18.1806 73.0913 18.1619 72.27H20.2619C20.3179 72.942 20.6633 73.348 21.2979 73.488V70.814C20.6259 70.646 20.0846 70.478 19.6739 70.31C19.2633 70.142 18.9086 69.8713 18.6099 69.498C18.3113 69.1247 18.1619 68.616 18.1619 67.972C18.1619 67.16 18.4513 66.4973 19.0299 65.984C19.6179 65.4707 20.3739 65.1767 21.2979 65.102V63.968H22.1939V65.102C23.0899 65.1767 23.8039 65.4473 24.3359 65.914C24.8773 66.3807 25.1806 67.0247 25.2459 67.846H23.1319C23.1039 67.5753 23.0059 67.342 22.8379 67.146C22.6793 66.9407 22.4646 66.796 22.1939 66.712V69.358C22.8939 69.5353 23.4446 69.708 23.8459 69.876C24.2566 70.0347 24.6113 70.3007 24.9099 70.674C25.2086 71.038 25.3579 71.542 25.3579 72.186ZM20.2059 67.874C20.2059 68.182 20.2993 68.434 20.4859 68.63C20.6726 68.8167 20.9433 68.9707 21.2979 69.092V66.67C20.9619 66.7167 20.6959 66.8427 20.4999 67.048C20.3039 67.2533 20.2059 67.5287 20.2059 67.874ZM22.1939 73.516C22.5486 73.4507 22.8239 73.306 23.0199 73.082C23.2253 72.858 23.3279 72.5873 23.3279 72.27C23.3279 71.962 23.2299 71.7147 23.0339 71.528C22.8379 71.3413 22.5579 71.1873 22.1939 71.066V73.516Z" fill="white"/>
<path d="M86.2034 80.2169L81.4068 74L70 89.2862H98L90.4814 79.1834L85.9425 85.2715L82.4795 85.265L86.2034 80.2169Z" fill="#CA3636"/>
</svg>
