<svg width="121" height="125" viewBox="0 0 121 125" fill="none" xmlns="http://www.w3.org/2000/svg">
<rect x="4.73529" y="2.44117" width="114.529" height="79.8235" rx="7.80882" fill="white" stroke="#183C68" stroke-width="3.47059"/>
<path d="M47.4667 24.0826L66.338 34.9779L47.4667 45.8733L47.4667 24.0826Z" fill="#C93636" stroke="#C93636" stroke-width="3.47059"/>
<path d="M3.86768 64.0441H121" stroke="#183C68" stroke-width="3.47059"/>
<path d="M25.5586 72.7206H104.514" stroke="#183D68" stroke-width="3.47059"/>
<circle cx="22.9559" cy="72.7206" r="4.33824" fill="#C93636"/>
<path d="M75.0146 21.5294V48.4265" stroke="#C93636" stroke-width="3.47059"/>
<path d="M17.7457 94.5323L23.922 79.3772L30.0984 94.5323H17.7457Z" fill="#CA3636" stroke="white" stroke-width="1.28466"/>
<rect x="0.589844" y="91.4003" width="49.4102" height="30.1951" rx="3.85399" fill="#CA3636"/>
<path d="M20.2236 111.207H13.7952L12.7315 114.283H9.33226L15.1364 98.1191H18.9056L24.7097 114.283H21.2873L20.2236 111.207ZM19.3449 108.617L17.0094 101.865L14.6739 108.617H19.3449ZM32.5214 98.1422C34.2172 98.1422 35.7048 98.4737 36.9844 99.1366C38.2793 99.7994 39.2736 100.748 39.9673 101.981C40.6765 103.199 41.031 104.617 41.031 106.236C41.031 107.854 40.6765 109.273 39.9673 110.49C39.2736 111.693 38.2793 112.626 36.9844 113.288C35.7048 113.951 34.2172 114.283 32.5214 114.283H26.8792V98.1422H32.5214ZM32.4058 111.531C34.1016 111.531 35.4119 111.069 36.3369 110.144C37.2618 109.219 37.7243 107.916 37.7243 106.236C37.7243 104.555 37.2618 103.245 36.3369 102.305C35.4119 101.349 34.1016 100.871 32.4058 100.871H30.1165V111.531H32.4058Z" fill="white"/>
</svg>
