<svg width="168" height="168" viewBox="0 0 168 168" fill="none" xmlns="http://www.w3.org/2000/svg">
<rect x="0.391357" width="167" height="168" rx="17" fill="#CA3736"/>
<path d="M110.813 76.5156C113.143 76.5156 115.032 74.6268 115.032 72.2969C115.032 69.9669 113.143 68.0781 110.813 68.0781C108.483 68.0781 106.594 69.9669 106.594 72.2969C106.594 74.6268 108.483 76.5156 110.813 76.5156Z" fill="white"/>
<path d="M120.516 36.4375H115.032V32.2188C115.032 29.8887 113.143 28 110.813 28C108.483 28 106.594 29.8887 106.594 32.2188V36.4375H87.3992V32.2188C87.3992 29.8887 85.5104 28 83.1804 28C80.8504 28 78.9617 29.8887 78.9617 32.2188V36.4375H59.9773V32.2188C59.9773 29.8887 58.0886 28 55.7585 28C53.4285 28 51.5398 29.8887 51.5398 32.2188V36.4375H46.2664C36.9615 36.4375 29.3914 44.0076 29.3914 53.3125V119.125C29.3914 128.43 36.9615 136 46.2664 136H78.5398C80.8698 136 82.7585 134.111 82.7585 131.781C82.7585 129.451 80.8698 127.562 78.5398 127.562H46.2664C41.6139 127.562 37.8289 123.777 37.8289 119.125V53.3125C37.8289 48.6601 41.6139 44.875 46.2664 44.875H51.5398V49.0938C51.5398 51.4238 53.4285 53.3125 55.7585 53.3125C58.0886 53.3125 59.9773 51.4238 59.9773 49.0938V44.875H78.9617V49.0938C78.9617 51.4238 80.8504 53.3125 83.1804 53.3125C85.5104 53.3125 87.3992 51.4238 87.3992 49.0938V44.875H106.594V49.0938C106.594 51.4238 108.483 53.3125 110.813 53.3125C113.143 53.3125 115.032 51.4238 115.032 49.0938V44.875H120.516C125.169 44.875 128.954 48.6601 128.954 53.3125V77.3594C128.954 79.6894 130.843 81.5781 133.173 81.5781C135.503 81.5781 137.391 79.6894 137.391 77.3594V53.3125C137.391 44.0076 129.821 36.4375 120.516 36.4375Z" fill="white"/>
<path d="M111.868 84.9531C97.7942 84.9531 86.3445 96.4028 86.3445 110.477C86.3445 124.55 97.7942 136 111.868 136C125.942 136 137.391 124.55 137.391 110.477C137.391 96.4028 125.942 84.9531 111.868 84.9531ZM111.868 127.562C102.447 127.562 94.782 119.898 94.782 110.477C94.782 101.055 102.447 93.3906 111.868 93.3906C121.289 93.3906 128.954 101.055 128.954 110.477C128.954 119.898 121.289 127.562 111.868 127.562Z" fill="white"/>
<path d="M117.985 106.258H116.087V101.828C116.087 99.4981 114.198 97.6094 111.868 97.6094C109.538 97.6094 107.649 99.4981 107.649 101.828V110.477C107.649 112.807 109.538 114.695 111.868 114.695H117.985C120.315 114.695 122.204 112.807 122.204 110.477C122.204 108.147 120.315 106.258 117.985 106.258Z" fill="white"/>
<path d="M92.4617 76.5156C94.7916 76.5156 96.6804 74.6268 96.6804 72.2969C96.6804 69.9669 94.7916 68.0781 92.4617 68.0781C90.1317 68.0781 88.2429 69.9669 88.2429 72.2969C88.2429 74.6268 90.1317 76.5156 92.4617 76.5156Z" fill="white"/>
<path d="M74.1101 94.8672C76.4401 94.8672 78.3289 92.9784 78.3289 90.6484C78.3289 88.3185 76.4401 86.4297 74.1101 86.4297C71.7802 86.4297 69.8914 88.3185 69.8914 90.6484C69.8914 92.9784 71.7802 94.8672 74.1101 94.8672Z" fill="white"/>
<path d="M55.7585 76.5156C58.0885 76.5156 59.9773 74.6268 59.9773 72.2969C59.9773 69.9669 58.0885 68.0781 55.7585 68.0781C53.4286 68.0781 51.5398 69.9669 51.5398 72.2969C51.5398 74.6268 53.4286 76.5156 55.7585 76.5156Z" fill="white"/>
<path d="M55.7585 94.8672C58.0885 94.8672 59.9773 92.9784 59.9773 90.6484C59.9773 88.3185 58.0885 86.4297 55.7585 86.4297C53.4286 86.4297 51.5398 88.3185 51.5398 90.6484C51.5398 92.9784 53.4286 94.8672 55.7585 94.8672Z" fill="white"/>
<path d="M55.7585 113.219C58.0885 113.219 59.9773 111.33 59.9773 109C59.9773 106.67 58.0885 104.781 55.7585 104.781C53.4286 104.781 51.5398 106.67 51.5398 109C51.5398 111.33 53.4286 113.219 55.7585 113.219Z" fill="white"/>
<path d="M74.1101 113.219C76.4401 113.219 78.3289 111.33 78.3289 109C78.3289 106.67 76.4401 104.781 74.1101 104.781C71.7802 104.781 69.8914 106.67 69.8914 109C69.8914 111.33 71.7802 113.219 74.1101 113.219Z" fill="white"/>
<path d="M74.1101 76.5156C76.4401 76.5156 78.3289 74.6268 78.3289 72.2969C78.3289 69.9669 76.4401 68.0781 74.1101 68.0781C71.7802 68.0781 69.8914 69.9669 69.8914 72.2969C69.8914 74.6268 71.7802 76.5156 74.1101 76.5156Z" fill="white"/>
</svg>
