<svg width="184" height="158" viewBox="0 0 184 158" fill="none" xmlns="http://www.w3.org/2000/svg">
<mask id="path-1-inside-1_34_1280" fill="white">
<rect y="16.2671" width="184" height="122.346" rx="4.81675"/>
</mask>
<rect y="16.2671" width="184" height="122.346" rx="4.81675" fill="white" stroke="#183D68" stroke-width="15.4136" mask="url(#path-1-inside-1_34_1280)"/>
<path fill-rule="evenodd" clip-rule="evenodd" d="M68.8821 150.331C72.53 150.331 75.4873 147.374 75.4873 143.726C75.4873 143.726 75.4873 143.726 75.4873 143.726H110.4V143.726C110.4 147.374 113.357 150.331 117.005 150.331H117.005H130.215V157.88H55.6719V150.331H68.8821C68.8821 150.331 68.8821 150.331 68.8821 150.331Z" fill="#183D68"/>
<path d="M18.3037 24.9373H164.733L151.897 130.906H31.14L18.3037 24.9373Z" fill="#EEEEEE"/>
<rect x="33.7173" y="9.52363" width="114.639" height="118.492" fill="white" stroke="white" stroke-width="5.7801"/>
<path d="M64 98.5509H41V100.551H64V98.5509Z" fill="#183D68"/>
<path d="M64 102.551H41V104.551H64V102.551Z" fill="#183D68"/>
<path d="M91 98.5509H68V100.551H91V98.5509Z" fill="#183D68"/>
<path d="M91 102.551H68V104.551H91V102.551Z" fill="#183D68"/>
<path d="M117 98.5509H94V100.551H117V98.5509Z" fill="#183D68"/>
<path d="M117 102.551H94V104.551H117V102.551Z" fill="#183D68"/>
<path d="M41.3516 96.4387H64.0256V80H41.3516V96.4387ZM43.2593 94.5091L47.7832 88.2193L50.5762 92.1027L52.3071 94.5091H48.8454H43.2593ZM55.3922 85.4069L61.9389 94.5091H53.1129L52.8381 94.1274L50.9791 91.5426L55.3922 85.4069ZM46.3878 82.1366C47.3752 82.1366 48.1756 82.937 48.1756 83.9244C48.1756 84.9118 47.3752 85.7122 46.3878 85.7122C45.4005 85.7122 44.6 84.9118 44.6 83.9244C44.6002 82.9371 45.4004 82.1366 46.3878 82.1366Z" fill="#183D68"/>
<path d="M67.5542 96.4387H90.2283V80H67.5542V96.4387ZM69.462 94.5091L73.9858 88.2193L76.7788 92.1027L78.5098 94.5091H75.048H69.462ZM81.5948 85.4069L88.1416 94.5091H79.3155L79.0407 94.1274L77.1818 91.5426L81.5948 85.4069ZM72.5905 82.1366C73.5779 82.1366 74.3783 82.937 74.3783 83.9244C74.3783 84.9118 73.5779 85.7122 72.5905 85.7122C71.6031 85.7122 70.8027 84.9118 70.8027 83.9244C70.8028 82.9371 71.6031 82.1366 72.5905 82.1366Z" fill="#183D68"/>
<path d="M93.757 96.4387H116.431V80H93.757V96.4387ZM95.6647 94.5091L100.189 88.2193L102.982 92.1027L104.713 94.5091H101.251H95.6647ZM107.798 85.4069L114.344 94.5091H105.518L105.243 94.1274L103.385 91.5426L107.798 85.4069ZM98.7932 82.1366C99.7806 82.1366 100.581 82.937 100.581 83.9244C100.581 84.9118 99.7806 85.7122 98.7932 85.7122C97.8059 85.7122 97.0054 84.9118 97.0054 83.9244C97.0056 82.9371 97.8058 82.1366 98.7932 82.1366Z" fill="#183D68"/>
<path d="M143 98.5509H120V100.551H143V98.5509Z" fill="#183D68"/>
<path d="M143 102.551H120V104.551H143V102.551Z" fill="#183D68"/>
<path d="M119.735 96.4387H142.409V80H119.735V96.4387ZM121.643 94.5091L126.167 88.2193L128.96 92.1027L130.691 94.5091H127.229H121.643ZM133.776 85.4069L140.323 94.5091H131.497L131.222 94.1274L129.363 91.5426L133.776 85.4069ZM124.772 82.1366C125.759 82.1366 126.559 82.937 126.559 83.9244C126.559 84.9118 125.759 85.7122 124.772 85.7122C123.784 85.7122 122.984 84.9118 122.984 83.9244C122.984 82.9371 123.784 82.1366 124.772 82.1366Z" fill="#183D68"/>
<path d="M57.5739 29.4406L54.1477 25L46 35.9187H66L60.6295 28.7024L57.3875 33.0511L54.9139 33.0465L57.5739 29.4406Z" fill="#CA3636"/>
<path d="M128 27H73V29H128V27Z" fill="#E6E6E5"/>
<path d="M118 32H73V34H118V32Z" fill="#E6E6E5"/>
<path d="M108 37H73V39H108V37Z" fill="#E6E6E5"/>
<rect x="41" y="44" width="101" height="32" fill="#183D68"/>
<path d="M74.5 19L75.1906 20.5494L76.8776 20.7275L75.6175 21.8631L75.9695 23.5225L74.5 22.675L73.0305 23.5225L73.3825 21.8631L72.1224 20.7275L73.8094 20.5494L74.5 19Z" fill="#C93636"/>
<path d="M80.5 19L81.1906 20.5494L82.8776 20.7275L81.6175 21.8631L81.9695 23.5225L80.5 22.675L79.0305 23.5225L79.3825 21.8631L78.1224 20.7275L79.8094 20.5494L80.5 19Z" fill="#C93636"/>
<path d="M86.5 19L87.1906 20.5494L88.8776 20.7275L87.6175 21.8631L87.9695 23.5225L86.5 22.675L85.0305 23.5225L85.3825 21.8631L84.1224 20.7275L85.8094 20.5494L86.5 19Z" fill="#C93636"/>
<path d="M92.5 19L93.1906 20.5494L94.8776 20.7275L93.6175 21.8631L93.9695 23.5225L92.5 22.675L91.0305 23.5225L91.3825 21.8631L90.1224 20.7275L91.8094 20.5494L92.5 19Z" fill="#C93636"/>
<path d="M98.5 19L99.1906 20.5494L100.878 20.7275L99.6175 21.8631L99.9695 23.5225L98.5 22.675L97.0305 23.5225L97.3825 21.8631L96.1224 20.7275L97.8094 20.5494L98.5 19Z" fill="#C93636"/>
<path d="M31 12L151 12V0L31 0V12Z" fill="#C93636"/>
<rect x="99" y="3" width="44.25" height="6" rx="3" fill="white"/>
<circle cx="44" cy="6" r="3" fill="white"/>
<circle cx="52" cy="6" r="3" fill="white"/>
<circle cx="60" cy="6" r="3" fill="white"/>
</svg>
