<svg width="119" height="120" viewBox="0 0 119 120" fill="none" xmlns="http://www.w3.org/2000/svg">
<path d="M21.9204 117.5L53.2362 111.628H67.3283L97.0783 117.5" stroke="#183C68" stroke-width="4" stroke-linecap="square"/>
<path d="M52.8447 101.842V110.845" stroke="#183C68" stroke-width="4" stroke-linecap="square"/>
<path d="M67.7197 101.842V110.845" stroke="#183C68" stroke-width="4" stroke-linecap="square"/>
<rect y="19.6106" width="119" height="84.5526" rx="9" fill="#183C68"/>
<rect x="3.91455" y="23.5251" width="111.171" height="77.2021" rx="4" fill="white"/>
<path d="M31.6094 3.61328L51.9487 20.3477L93.8984 3.61328" stroke="#183C68" stroke-width="4" stroke-linecap="square"/>
<path d="M62.8911 78.2415C61.0215 76.3718 57.979 76.3718 56.1093 78.2415C54.2396 80.1113 54.2396 83.1536 56.1093 85.0234C57.0442 85.9583 58.2723 86.4258 59.5002 86.4258C60.7281 86.4258 61.9563 85.9585 62.891 85.0234C64.7609 83.1538 64.7609 80.1113 62.8911 78.2415Z" fill="#C93636"/>
<path d="M47.6318 69.7644L51.0227 73.1552C55.6971 68.4809 63.3027 68.4809 67.9771 73.1552L71.368 69.7644C64.8241 63.2204 54.1759 63.2204 47.6318 69.7644Z" fill="#C93636"/>
<path d="M59.5002 52.8597C51.8147 52.8597 44.5892 55.8526 39.1548 61.2871L42.5456 64.6779C47.0743 60.1493 53.0956 57.6551 59.5001 57.6551C65.9046 57.6551 71.9259 60.1493 76.4546 64.6779L79.8454 61.2871C74.4112 55.8526 67.1857 52.8597 59.5002 52.8597Z" fill="#C93636"/>
<path d="M59.4999 40.8711C48.6122 40.8711 38.3761 45.1111 30.6772 52.8099L34.0681 56.2007C40.8612 49.4077 49.8932 45.6666 59.4999 45.6666C69.1067 45.6666 78.1386 49.4077 84.9318 56.2008L88.3226 52.8099C80.6238 45.1111 70.3877 40.8711 59.4999 40.8711Z" fill="#C93636"/>
</svg>
