<svg width="141" height="120" viewBox="0 0 141 120" fill="none" xmlns="http://www.w3.org/2000/svg">
<path d="M99.6345 67.2588V115.113C99.6345 116.585 98.4405 117.779 96.9678 117.779H4.66666C3.1939 117.779 2 116.585 2 115.113V43.6548C2 42.1821 3.19391 40.9882 4.66667 40.9882H77.1897" stroke="#183D68" stroke-width="4" stroke-linejoin="round"/>
<path d="M61.7467 105.701C61.7467 107.148 60.9105 108.463 59.6021 109.077C59.0961 109.316 58.554 109.432 58.0154 109.432C57.1625 109.432 56.3176 109.138 55.6351 108.573L35.2414 91.6735H24.3797C22.3199 91.6752 20.6494 90.0039 20.6494 87.944V73.0818C20.6494 71.0211 22.3199 69.3506 24.3797 69.3506H35.2423L55.636 52.4515C56.7502 51.528 58.2953 51.3311 59.6029 51.9492C60.9105 52.5628 61.7475 53.8783 61.7475 55.3246L61.7467 105.701Z" fill="#C93636"/>
<path d="M67.754 90.1291C67.7962 90.1291 67.8371 90.1275 67.8797 90.1246C68.3855 90.0895 68.8503 89.8405 69.1543 89.444C70.974 87.0652 71.9355 84.2362 71.9355 81.264C71.9355 78.0729 70.8482 75.0846 68.79 72.6233C68.4773 72.2499 68.017 72.0231 67.5241 71.9989C67.0179 71.9694 66.5501 72.1553 66.2011 72.4964L65.9678 72.7247C65.3347 73.3431 65.2826 74.3292 65.8475 75.0082C67.3313 76.7945 68.1154 78.9575 68.1154 81.2636C68.1154 83.4076 67.4248 85.4514 66.1163 87.1756C65.6002 87.8553 65.6721 88.8023 66.285 89.4L66.5187 89.6292C66.8475 89.9509 67.2925 90.1291 67.754 90.1291Z" fill="#C93636"/>
<path d="M73.8416 96.0058C74.3308 95.9856 74.7878 95.7666 75.1038 95.4016C78.5144 91.4535 80.3923 86.4323 80.3915 81.2636C80.3915 75.8917 78.3829 70.7226 74.7361 66.7102C74.4164 66.3585 73.9615 66.1508 73.4805 66.1375C72.9739 66.1217 72.5322 66.3056 72.1923 66.6394L71.9632 66.8637C71.3122 67.5023 71.2812 68.5252 71.8929 69.2009C74.9098 72.5295 76.5719 76.8135 76.5719 81.2636C76.5719 85.542 75.0194 89.7015 72.2014 92.9767C71.6183 93.6549 71.6617 94.6568 72.3031 95.2832L72.5327 95.5075C72.8614 95.8288 73.3056 96.0075 73.7684 96.0075C73.7932 96.0075 73.8176 96.0067 73.8416 96.0058Z" fill="#C93636"/>
<path d="M91.8579 54.149C92.0135 51.2525 89.7833 48.7693 86.8868 48.6139C83.9902 48.4584 81.5071 50.6885 81.3516 53.5851C81.2738 55.0334 81.7925 56.3784 82.6925 57.3806C83.5926 58.3828 84.8743 59.0426 86.3227 59.1201C89.2193 59.2758 91.7024 57.0456 91.8579 54.149Z" fill="#C93636"/>
<path d="M87.5914 35.481L87.3094 40.734C94.5509 41.1228 100.126 47.3303 99.7373 54.5718L104.99 54.8538C105.535 44.716 97.7293 36.0253 87.5914 35.481Z" fill="#C93636"/>
<path d="M110.088 32.7763C104.454 26.5036 96.7152 22.8001 88.2961 22.3483L88.0142 27.6013C95.0299 27.9779 101.479 31.0641 106.174 36.2912C110.868 41.5184 113.246 48.2611 112.87 55.2769L118.123 55.5588C118.575 47.14 115.721 39.049 110.088 32.7763Z" fill="#C93636"/>
<path d="M119.873 23.9881C111.892 15.1018 100.928 9.85537 89.001 9.21515L88.719 14.4682C99.2428 15.0332 108.917 19.6625 115.959 27.5033C123 35.344 126.568 45.4579 126.003 55.9818L131.256 56.2637C131.896 44.3368 127.853 32.8744 119.873 23.9881Z" fill="#C93636"/>
</svg>
