<svg width="111" height="109" viewBox="0 0 111 109" fill="none" xmlns="http://www.w3.org/2000/svg">
<path d="M23.7993 14.5296L13.1043 25.9153L15.2663 35.3052L12.2704 38.4946L8.07036 38.3581L3.88258 42.8163L14.6246 52.9067L19.2312 48.0026L17.838 45.0155L20.254 42.4434C20.254 42.4434 26.0792 38.1676 33.8045 43.4231L44.3062 32.2431L39.3128 23.8731C34.1981 13.7753 50.3867 13.9408 50.3867 13.9408L50.5288 13.1705C34.5517 3.90799 23.7993 14.5296 23.7993 14.5296Z" stroke="#C93636" stroke-width="3" stroke-miterlimit="10"/>
<path d="M44.3061 32.2431L33.8367 43.3887L41.4556 50.5455L51.9251 39.3998L44.3061 32.2431Z" stroke="#C93636" stroke-width="3" stroke-miterlimit="10"/>
<path d="M100.853 80.7758C97.4095 78.2517 94.8953 79.8278 94.8953 79.8278L71.4207 57.7773C68.306 55.1099 66.4635 56.865 66.4635 56.865L63.0811 60.4659L59.6987 64.0668C59.6987 64.0668 58.0621 66.0154 60.919 68.9573L84.3936 91.0078C84.3936 91.0078 82.9777 93.6155 85.7121 96.8941L100.853 80.7758Z" stroke="#C93636" stroke-width="3" stroke-miterlimit="10"/>
<path d="M41.1473 75.2421C41.2211 75.1691 41.2581 75.1325 41.3319 75.0594L76.6896 40.0556C76.948 39.7998 77.1329 39.5437 77.3178 39.2875C83.3275 41.8885 90.6046 40.7499 95.5502 35.8537C100.385 31.0672 101.632 24.0592 99.3119 18.0982L88.5348 28.7674L79.2906 19.4297L90.0677 8.76049C84.1669 6.41719 77.1098 7.63031 72.2749 12.4169C67.3292 17.313 66.1175 24.5783 68.6578 30.6138C68.3998 30.7961 68.1418 30.9785 67.8835 31.2342L32.5257 66.2381C32.4888 66.2746 32.4519 66.3112 32.415 66.3477C26.4792 63.6737 19.1655 64.7754 14.1829 69.7081C9.34802 74.4946 8.10087 81.5026 10.4212 87.4636L21.1983 76.7944L30.4791 86.169L19.702 96.8382C25.6393 99.2184 32.6596 98.0418 37.4945 93.2553C42.3667 88.3588 43.5777 81.2404 41.1473 75.2421Z" stroke="#183D68" stroke-width="3" stroke-miterlimit="10"/>
</svg>
