<svg width="344" height="276" viewBox="0 0 344 276" fill="none" xmlns="http://www.w3.org/2000/svg">
<path fill-rule="evenodd" clip-rule="evenodd" d="M319.525 259.533H246.301C248.733 241.843 264.198 228.203 282.913 228.203C301.627 228.203 317.092 241.843 319.525 259.533Z" fill="#183D68"/>
<path fill-rule="evenodd" clip-rule="evenodd" d="M246.538 258.891C246.521 259.059 246.512 259.227 246.512 259.394C246.512 266.611 262.954 270.196 283.018 270.196C303.083 270.196 319.525 266.611 319.525 259.394C319.525 259.227 319.516 259.059 319.498 258.891L246.538 258.891Z" fill="#183D68"/>
<path d="M300.244 219.303C300.244 227.215 292.982 234.44 282.971 234.44C272.96 234.44 265.697 227.215 265.697 219.303C265.697 211.391 272.96 204.166 282.971 204.166C292.982 204.166 300.244 211.391 300.244 219.303Z" fill="white" stroke="white" stroke-width="9.5999"/>
<circle cx="282.97" cy="216.099" r="20.6491" fill="#183D68"/>
<circle cx="317.427" cy="247.554" r="10.1645" fill="#C93636"/>
<path d="M312.699 242.611L322.791 252.703" stroke="white" stroke-width="3"/>
<path d="M322.792 242.611L312.699 252.703" stroke="white" stroke-width="3"/>
<path fill-rule="evenodd" clip-rule="evenodd" d="M336.622 97.3489H275.42C277.453 82.563 290.379 71.163 306.021 71.163C321.663 71.163 334.589 82.563 336.622 97.3489Z" fill="#183D68"/>
<path fill-rule="evenodd" clip-rule="evenodd" d="M275.619 96.8122C275.604 96.9528 275.596 97.0931 275.596 97.2331C275.596 103.265 289.339 106.261 306.109 106.261C322.88 106.261 336.622 103.265 336.622 97.2331C336.622 97.0931 336.615 96.9528 336.6 96.8122L275.619 96.8122Z" fill="#183D68"/>
<path d="M319.719 63.7238C319.719 69.8281 314.08 75.5876 306.07 75.5876C298.06 75.5876 292.421 69.8281 292.421 63.7238C292.421 57.6195 298.06 51.8599 306.07 51.8599C314.08 51.8599 319.719 57.6195 319.719 63.7238Z" fill="white" stroke="white" stroke-width="9.5999"/>
<circle cx="306.07" cy="61.0457" r="17.2589" fill="#183D68"/>
<circle cx="334.87" cy="87.3364" r="8.49572" fill="#C93636"/>
<path d="M330.918 83.2052L339.353 91.6405" stroke="white" stroke-width="3"/>
<path d="M339.353 83.2052L330.918 91.6405" stroke="white" stroke-width="3"/>
<path fill-rule="evenodd" clip-rule="evenodd" d="M98.1013 267.496H44.8921C46.6597 254.641 57.8973 244.73 71.4967 244.73C85.096 244.73 96.3337 254.641 98.1013 267.496Z" fill="#183D68"/>
<path fill-rule="evenodd" clip-rule="evenodd" d="M45.0648 267.029C45.052 267.152 45.0456 267.274 45.0456 267.395C45.0456 272.639 56.9932 275.244 71.5734 275.244C86.1537 275.244 98.1013 272.639 98.1013 267.395C98.1013 267.274 98.0949 267.152 98.0822 267.029L45.0648 267.029Z" fill="#183D68"/>
<path d="M82.7786 238.262C82.7786 243.165 78.2177 247.95 71.5388 247.95C64.8599 247.95 60.299 243.165 60.299 238.262C60.299 233.36 64.8599 228.575 71.5388 228.575C78.2177 228.575 82.7786 233.36 82.7786 238.262Z" fill="white" stroke="white" stroke-width="9.5999"/>
<circle cx="71.5389" cy="235.934" r="15.0049" fill="#183D68"/>
<circle cx="96.5773" cy="258.791" r="7.38619" fill="#C93636"/>
<path d="M93.1411 255.2L100.475 262.533" stroke="white" stroke-width="3"/>
<path d="M100.475 255.2L93.1412 262.533" stroke="white" stroke-width="3"/>
<path fill-rule="evenodd" clip-rule="evenodd" d="M240.993 38.6943H203.835C205.069 29.7171 212.917 22.7957 222.414 22.7957C231.911 22.7957 239.759 29.7171 240.993 38.6943Z" fill="#183D68"/>
<path fill-rule="evenodd" clip-rule="evenodd" d="M203.956 38.3685C203.947 38.4539 203.943 38.539 203.943 38.624C203.943 42.2861 212.286 44.1052 222.468 44.1052C232.65 44.1052 240.994 42.2861 240.994 38.624C240.994 38.539 240.989 38.4539 240.981 38.3685L203.956 38.3685Z" fill="#183D68"/>
<path d="M228.845 18.279C228.845 20.7678 226.45 23.5964 222.444 23.5964C218.437 23.5964 216.042 20.7678 216.042 18.279C216.042 15.7902 218.437 12.9616 222.444 12.9616C226.45 12.9616 228.845 15.7902 228.845 18.279Z" fill="white" stroke="white" stroke-width="9.5999"/>
<circle cx="222.444" cy="16.653" r="10.4787" fill="#183D68"/>
<circle cx="239.929" cy="32.6153" r="5.15813" fill="#C93636"/>
<path d="M237.53 30.107L242.651 35.2285" stroke="white" stroke-width="2"/>
<path d="M242.651 30.107L237.53 35.2285" stroke="white" stroke-width="2"/>
<path fill-rule="evenodd" clip-rule="evenodd" d="M37.1585 172.158H0C1.23439 163.181 9.08218 156.259 18.5793 156.259C28.0764 156.259 35.9241 163.181 37.1585 172.158Z" fill="#183D68"/>
<path fill-rule="evenodd" clip-rule="evenodd" d="M0.120942 171.832C0.112042 171.917 0.107552 172.002 0.107552 172.087C0.107552 175.749 8.45112 177.569 18.6332 177.569C28.8153 177.569 37.1589 175.749 37.1589 172.087C37.1589 172.002 37.1544 171.917 37.1455 171.832L0.120942 171.832Z" fill="#183D68"/>
<path d="M25.01 151.742C25.01 154.231 22.6153 157.06 18.6086 157.06C14.6019 157.06 12.2072 154.231 12.2072 151.742C12.2072 149.254 14.6019 146.425 18.6086 146.425C22.6153 146.425 25.01 149.254 25.01 151.742Z" fill="white" stroke="white" stroke-width="9.5999"/>
<circle cx="18.6088" cy="150.116" r="10.4787" fill="#183D68"/>
<circle cx="36.0942" cy="166.079" r="5.15813" fill="#C93636"/>
<path d="M33.6948 163.57L38.8163 168.692" stroke="white" stroke-width="2"/>
<path d="M38.8162 163.57L33.6947 168.692" stroke="white" stroke-width="2"/>
<path fill-rule="evenodd" clip-rule="evenodd" d="M109.486 60.0944H40.9426C43.2196 43.535 57.6957 30.7676 75.2141 30.7676C92.7325 30.7676 107.209 43.535 109.486 60.0944Z" fill="#183D68"/>
<path fill-rule="evenodd" clip-rule="evenodd" d="M41.1653 59.4933C41.1489 59.6508 41.1406 59.8079 41.1406 59.9646C41.1406 66.7197 56.5312 70.0753 75.3132 70.0753C94.0952 70.0753 109.486 66.7197 109.486 59.9646C109.486 59.8079 109.478 59.6508 109.461 59.4933L41.1653 59.4933Z" fill="#183D68"/>
<path d="M91.1304 22.4361C91.1304 29.6443 84.5 36.2987 75.2683 36.2987C66.0366 36.2987 59.4062 29.6443 59.4062 22.4361C59.4062 15.228 66.0366 8.57359 75.2683 8.57359C84.5 8.57359 91.1304 15.228 91.1304 22.4361Z" fill="white" stroke="white" stroke-width="9.5999"/>
<circle cx="75.2682" cy="19.4368" r="19.329" fill="#183D68"/>
<circle cx="43.4871" cy="48.8809" r="9.51472" fill="#C93636"/>
<path d="M38.6191 44.2542L48.0662 53.7013" stroke="white" stroke-width="3"/>
<path d="M48.0667 44.2542L38.6196 53.7013" stroke="white" stroke-width="3"/>
<rect x="249.252" y="145.683" width="22.5278" height="7.32154" fill="#C4C4C4"/>
<circle cx="172.376" cy="148.781" r="85.8873" fill="#183D68"/>
<circle cx="172.376" cy="148.781" r="76.8762" fill="#C4C4C4"/>
<circle cx="172.376" cy="148.781" r="68.4282" fill="white"/>
<rect x="177.163" y="225.094" width="22.5278" height="7.32154" transform="rotate(90 177.163 225.094)" fill="#C4C4C4"/>
<circle cx="172.376" cy="148.781" r="85.8873" fill="#183D68"/>
<circle cx="172.376" cy="148.781" r="76.8762" fill="#C4C4C4"/>
<circle cx="172.376" cy="148.781" r="68.4282" fill="white"/>
<rect x="75.2249" y="145.683" width="22.5278" height="7.32154" fill="#C4C4C4"/>
<rect x="177.163" y="51.0666" width="22.5278" height="7.32154" transform="rotate(90 177.163 51.0666)" fill="#C4C4C4"/>
<rect x="177.163" y="225.094" width="22.5278" height="7.32154" transform="rotate(90 177.163 225.094)" fill="#C4C4C4"/>
<path fill-rule="evenodd" clip-rule="evenodd" d="M223.963 181.939H119.077C122.561 156.599 144.713 137.062 171.52 137.062C198.327 137.062 220.478 156.599 223.963 181.939Z" fill="#C93636"/>
<path fill-rule="evenodd" clip-rule="evenodd" d="M119.418 181.019C119.392 181.26 119.38 181.5 119.38 181.74C119.38 192.077 142.931 197.212 171.671 197.212C200.412 197.212 223.963 192.077 223.963 181.74C223.963 181.5 223.95 181.26 223.925 181.019L119.418 181.019Z" fill="#C93636"/>
<path d="M198.42 124.313C198.42 136.986 186.885 148.071 171.603 148.071C156.321 148.071 144.785 136.986 144.785 124.313C144.785 111.64 156.321 100.555 171.603 100.555C186.885 100.555 198.42 111.64 198.42 124.313Z" fill="white" stroke="white" stroke-width="9.5999"/>
<circle cx="171.603" cy="119.723" r="29.5777" fill="#C93636"/>
<ellipse cx="198.982" cy="173.004" rx="14.5596" ry="15.1663" fill="white"/>
<path d="M190.489 173.684L195.289 178.463L207.475 166.33" stroke="#C93636" stroke-width="3"/>
</svg>
