<svg width="381" height="374" viewBox="0 0 381 374" fill="none" xmlns="http://www.w3.org/2000/svg">
<path fill-rule="evenodd" clip-rule="evenodd" d="M278.291 225.547C278.291 226.354 278.291 227.162 278.291 227.969C278.291 229.815 278.175 231.776 278.06 233.621C273.907 300.062 218.656 352.776 151.061 352.776C143.564 352.776 136.297 352.084 129.261 350.93C111.958 347.931 95.925 341.472 81.8525 332.244C55.5531 315.172 36.0592 288.758 27.9848 257.729C26.1392 250.693 24.8704 243.426 24.2937 236.044C24.1783 234.429 24.063 232.814 23.9476 231.314C23.8323 229.469 23.8323 227.508 23.8323 225.547C23.8323 224.855 23.8323 224.163 23.8323 223.471C23.8323 223.24 23.8323 223.009 23.8323 222.778C23.8323 222.432 23.8323 221.971 23.8323 221.625C23.8323 220.702 23.9476 219.779 23.9476 218.857C24.2937 212.051 25.2165 205.361 26.6006 198.786C32.5987 170.987 47.594 146.533 68.4721 128.77C90.7343 109.737 119.571 98.3176 151.061 98.3176C156.483 98.3176 161.789 98.6637 166.98 99.3557C183.705 101.432 199.508 106.853 213.58 114.812C251.415 136.152 277.137 176.293 278.175 222.548C278.175 223.471 278.291 224.509 278.291 225.547Z" fill="#C4C4C4"/>
<path d="M128.222 114.236C125.454 114.466 121.878 114.351 119.341 115.274C119.341 115.158 119.341 115.043 119.341 114.928C118.649 114.466 117.38 113.659 116.688 112.505C116.457 112.159 114.842 112.044 114.842 111.698C114.842 111.006 113.112 111.237 112.65 111.121C112.65 111.467 112.535 111.813 112.65 112.044C112.535 110.66 110.805 111.121 109.997 110.891C110.113 111.237 109.882 111.237 109.882 111.467C109.075 111.006 109.075 112.39 108.959 112.967C108.613 112.621 108.498 111.813 108.152 111.698C107.46 111.352 107.344 112.159 106.768 112.275C106.768 112.505 106.652 112.852 106.768 113.082C106.883 113.198 106.883 113.313 106.883 113.544C106.883 113.428 106.768 113.313 106.768 113.082C106.191 112.967 105.73 112.275 105.268 112.967C103.077 111.006 103.077 117.35 103.192 118.273C102.961 118.273 102.384 118.158 102.154 118.042C102.269 117.119 102.961 115.274 102.269 114.351C102.038 114.005 101.231 113.544 100.885 114.12C100.539 115.043 101.231 114.812 101.462 115.274C100.193 114.928 100.077 115.62 99.3854 116.543C98.8086 117.235 98.1165 116.658 98.8086 118.273C98.0012 117.696 97.8858 119.542 97.8858 120.118C99.1547 120.003 100.424 119.426 101.577 119.426C100.885 120.118 99.1547 120.58 98.3472 120.926C97.0784 121.503 96.0403 122.079 94.6561 122.887C93.5026 123.579 93.3873 124.156 92.2338 124.732C91.1956 125.194 90.0422 126.001 89.1194 126.693C87.5045 127.962 86.351 129.577 85.1975 131.423C84.8515 131.884 83.698 133.845 83.698 134.422C83.698 134.422 83.8133 135.921 83.698 135.921C84.044 136.152 85.3129 135.575 85.6589 135.46C84.7361 137.651 88.1966 137.19 88.7733 135.806C89.1194 134.998 90.7342 133.73 91.5417 133.037C93.618 131.307 95.8096 130.038 97.7705 128.424C99.1547 127.27 100.539 126.578 102.269 126.347C103.423 126.232 106.768 125.309 107.46 124.271C108.383 123.233 111.151 122.656 112.42 122.425C114.727 121.964 117.034 121.618 119.225 120.926C121.417 120.349 123.839 119.888 125.339 118.158C126.723 116.543 129.722 117.004 131.222 115.62C132.26 116.543 133.298 114.582 134.336 114.697C134.913 114.697 137.566 114.236 137.566 113.774C134.451 113.659 131.337 113.89 128.222 114.236Z" fill="#E5E5E6"/>
<path d="M36.982 243.31C36.7513 242.042 35.9439 241.696 36.29 243.31C36.29 243.887 35.5979 245.963 36.636 245.502C36.8667 244.464 37.2127 244.233 36.982 243.31Z" fill="#E5E5E6"/>
<path d="M38.4811 256.23C38.7118 254.269 38.8272 251.846 38.3658 249.77C38.1351 248.847 37.7891 248.155 37.7891 247.117C37.7891 246.425 37.6737 243.772 36.6356 245.271C36.2895 247.002 37.5584 249.193 37.7891 250.924C38.0198 252.077 37.2123 256.46 38.4811 256.23Z" fill="#E5E5E6"/>
<path d="M39.6348 253.115C39.6348 253.346 39.9808 255.537 40.5576 254.499C40.9036 253.807 40.2115 252.769 39.6348 253.115Z" fill="#E5E5E6"/>
<path d="M68.4717 128.77C68.1256 129.346 67.6642 129.808 67.5489 130.384C67.3182 131.307 66.6261 132.23 66.28 133.037C65.934 133.73 65.7033 134.883 65.2419 135.46C64.5498 136.498 63.7424 136.383 64.0884 137.882C64.3191 138.805 65.8186 139.612 65.0112 140.65C64.4345 141.458 65.3573 142.381 65.0112 143.303C64.6652 144.111 64.0884 145.034 63.9731 145.61C63.8577 146.072 63.8577 147.687 62.9349 146.879C63.281 147.802 62.2428 149.302 61.6661 150.109C61.5508 150.224 60.2819 150.224 60.7433 151.032C61.0894 151.609 61.2047 152.07 60.3973 152.647C61.3201 152.185 62.4735 150.916 62.4735 152.762C62.4735 153.569 62.1275 155.415 61.4354 155.992C61.3201 155.992 61.2047 156.107 61.2047 156.223C61.3201 156.223 61.4354 156.222 61.4354 155.992C62.4735 156.453 60.8587 159.106 60.3973 159.798C59.4745 161.413 57.8596 161.529 58.321 159.452C57.975 159.914 56.8215 161.529 56.2447 161.529C55.0913 161.413 55.7833 158.76 57.0522 159.222C56.1294 157.837 53.2457 160.606 53.9378 158.068C54.2838 156.799 55.4373 155.761 56.1294 154.723C57.3982 152.993 59.0131 151.032 60.2819 149.071C59.2438 149.071 57.975 150.57 57.5136 151.378C56.4754 152.877 54.3992 152.762 52.7843 152.877C52.7843 152.993 52.7843 152.993 52.7843 153.108C53.7071 153.223 54.2838 155.069 53.4764 155.761C52.2075 156.915 50.9387 154.262 51.7462 153.223C50.4773 152.762 49.3238 154.954 48.7471 155.876C50.4773 154.608 51.1694 155.876 50.362 157.491C49.6699 158.76 48.9778 159.798 48.401 161.067C49.3238 159.914 48.5164 161.99 49.0931 161.99C50.2466 162.105 50.1313 162.797 49.4392 163.489C50.1313 162.913 50.4773 162.221 50.9387 161.529C51.5155 160.721 52.0922 159.452 52.3229 161.067C52.3229 161.413 51.7461 161.99 51.8615 162.221C52.0922 162.682 51.9768 163.489 51.6308 163.951C51.0541 164.758 50.1313 165.104 49.5545 166.027C48.6317 167.411 46.3248 167.988 45.2866 169.257C45.0559 169.603 44.1332 171.218 43.7871 171.333C42.0569 171.795 43.095 169.142 43.4411 168.449C42.1722 169.026 41.0188 169.949 40.096 170.987C39.0578 172.256 38.7118 173.64 37.9043 174.909C39.6346 175.486 36.5202 178.023 36.0588 178.369C35.482 178.715 35.136 179.638 34.5592 180.1C33.6365 180.792 33.2904 180.907 33.0597 182.061C32.5983 183.675 31.3295 185.06 31.0988 186.559C30.8681 188.059 29.7146 189.443 29.2532 190.827C28.6765 192.557 29.0225 194.518 27.9844 196.133C27.6383 196.71 27.6383 197.402 27.2923 197.979C27.0616 198.325 26.7156 198.555 26.4849 198.901C32.5983 170.987 47.5936 146.533 68.4717 128.77Z" fill="#E5E5E6"/>
<path d="M35.4821 242.388C35.4821 242.503 35.3667 242.618 35.3667 242.734C34.79 245.156 37.443 242.964 35.4821 242.388Z" fill="#E5E5E6"/>
<path d="M31.2142 239.85C31.2142 240.311 31.0988 242.734 32.3676 241.926C33.0597 241.465 33.8672 243.08 34.2132 242.157C34.5593 241.35 32.0216 238.466 31.2142 239.85Z" fill="#E5E5E6"/>
<path d="M35.1361 240.773C34.6747 241.35 35.2514 242.272 35.5975 242.388C35.7128 242.042 35.7128 240.081 35.1361 240.773Z" fill="#E5E5E6"/>
<path d="M26.7158 230.853C26.7158 230.853 26.139 230.276 26.0237 230.276C25.9083 230.161 25.6776 230.507 25.5623 230.391C25.1009 230.391 25.5623 229.93 25.4469 229.584C24.7548 228.431 24.9855 227.508 24.6395 226.239C24.8702 225.085 24.0627 224.393 24.0627 223.355C24.0627 223.125 24.0627 222.894 24.0627 222.663C24.1781 222.548 24.1781 222.432 24.1781 222.202C24.9855 222.317 25.3316 224.855 25.3316 225.662C25.3316 225.893 25.4469 226.124 25.4469 226.354V226.47C25.6776 227.508 26.4851 228.431 26.4851 229.469C26.8311 229.238 26.8311 230.276 26.7158 230.853Z" fill="#E5E5E6"/>
<path d="M23.9478 221.625C23.9478 220.702 24.0631 219.779 24.0631 218.857C24.4091 219.433 24.2938 220.933 23.9478 221.625Z" fill="#E5E5E6"/>
<path d="M27.177 240.427C27.2924 240.542 27.2924 241.004 27.4077 241.119C27.8691 241.35 27.5231 241.696 28.0998 241.696C27.7538 240.196 28.9073 241.004 29.2533 240.196C29.484 239.619 30.2914 241.004 30.6375 241.004C30.7528 239.158 30.4068 237.774 29.2533 236.274C28.6766 235.582 28.2152 235.582 27.6384 235.236L27.4077 235.467C27.0617 235.813 27.177 235.236 27.0617 235.121C26.7156 235.005 26.7156 233.737 26.1389 235.005C25.6775 235.813 26.4849 236.274 26.3696 237.082C26.2543 237.658 24.6394 237.889 25.3315 238.812C26.0236 239.735 26.0236 239.504 26.6003 239.965C26.831 240.427 26.9463 240.196 27.177 240.427Z" fill="#E5E5E6"/>
<path d="M81.7367 332.244C55.5526 315.172 36.0588 288.758 27.9844 257.729C28.5611 257.268 28.2151 255.999 29.0225 255.999C30.6374 256.114 28.9072 259.344 30.176 259.344C30.0606 258.421 29.9453 257.383 29.9453 256.345C29.9453 255.653 30.7527 256.46 30.6374 257.152C30.7527 257.152 30.8681 257.152 30.8681 257.152C30.8681 257.037 30.8681 256.806 30.8681 256.691C31.4448 257.383 32.483 257.268 32.2523 258.767C31.9062 258.652 31.4448 258.652 31.0988 258.421C31.2141 259.344 31.9062 258.998 32.1369 259.459C32.3676 259.921 32.483 261.074 32.7137 261.305C33.0597 261.766 34.0978 261.651 34.6746 262.112C35.0206 262.343 35.136 263.035 35.482 263.266C35.7127 262.689 35.136 261.305 35.9434 261.074C36.5202 260.843 36.5202 261.651 36.6355 261.997C36.6355 262.228 38.0197 262.574 38.3657 262.574C39.1732 262.574 40.3266 261.766 39.6346 263.496C39.5192 263.842 39.5192 265.803 39.5192 265.803C40.2113 266.38 39.7499 267.649 40.5573 267.995C41.1341 268.341 41.5955 268.918 41.9415 269.495C42.2876 270.071 42.6336 270.763 42.8643 271.34C42.9797 271.571 43.095 271.802 43.2104 272.032C43.3257 272.263 43.3257 272.263 43.3257 272.494C43.4411 273.301 43.6718 272.84 44.0178 273.416C44.9406 274.801 45.2866 275.723 47.0169 276.185C48.5164 276.531 49.5545 278.03 50.708 279.068C51.6308 279.876 52.4382 281.721 53.015 282.875C53.4764 283.913 53.7071 285.989 54.7452 286.797C56.7061 288.527 56.014 291.18 55.3219 293.256C55.4373 293.256 55.5526 293.256 55.5526 293.256C55.5526 291.872 56.5908 292.564 57.2829 292.91C58.2056 293.372 58.4363 293.487 59.0131 294.41C59.0131 294.41 60.974 295.563 61.32 295.679C62.1275 296.025 62.4735 297.063 63.3963 297.409C63.8577 297.524 64.2038 298.332 64.4345 298.793C64.6651 299.139 64.6651 299.485 64.7805 299.831C64.8958 300.408 65.4726 299.716 65.934 299.947C66.7414 300.293 67.2028 300.869 68.1256 301.1C68.8177 301.331 69.8558 301.792 70.5479 302.253C72.9702 303.753 74.0084 306.521 76.2 308.136C76.8921 308.598 78.3916 308.713 78.6223 309.751C78.7377 310.443 79.3144 311.251 79.5451 311.943C80.0065 312.866 80.9293 314.134 80.8139 315.172C80.8139 316.903 80.4679 317.71 79.7758 319.094C79.3144 320.132 79.6604 321.401 78.853 322.439C78.2763 323.132 79.3144 324.746 79.7758 325.669C80.1218 326.246 80.1218 326.938 80.3525 327.515C80.6986 328.091 81.16 328.091 81.3907 328.553C81.16 328.438 81.0446 328.438 80.8139 328.322C81.2753 329.13 81.0446 329.937 81.6214 330.745C81.9674 331.091 81.7367 331.783 81.7367 332.244Z" fill="#E5E5E6"/>
<path d="M26.2546 233.967C26.8313 233.737 27.062 231.43 26.2546 231.66C26.1393 231.776 25.1011 234.429 26.2546 233.967Z" fill="#E5E5E6"/>
<path d="M24.2938 236.043C24.1785 234.429 24.0631 232.814 23.9478 231.314C24.6398 232.237 25.3319 233.39 25.678 234.313C26.1394 235.582 25.1012 236.159 24.2938 236.043Z" fill="#E5E5E6"/>
<path d="M277.368 226.354C276.445 225.547 275.061 226.354 274.253 225.431C273.331 224.509 273.331 222.894 273.215 221.74C273.1 221.048 273.331 218.972 272.639 218.741C271.831 218.511 271.139 220.702 270.793 221.164C270.216 221.856 269.87 222.663 269.524 223.355C269.293 223.701 269.293 224.509 268.947 224.624C268.371 224.855 268.025 225.085 268.14 225.778C267.217 225.431 265.833 224.97 265.026 225.893C264.333 226.7 264.449 225.201 263.641 225.201C263.872 224.047 264.103 221.625 263.526 220.587C262.603 219.087 261.911 220.125 261.45 221.394C260.412 220.356 260.758 218.165 259.604 216.896C258.566 215.742 257.643 214.704 257.067 213.32C256.72 212.628 256.374 211.936 256.374 211.244C256.259 210.206 256.49 209.859 257.413 209.744C257.643 209.744 258.797 209.629 259.027 209.744C259.489 210.09 259.489 210.667 259.95 211.244C260.758 212.166 261.104 213.897 261.796 214.935C262.488 215.973 263.065 215.396 263.872 216.204C264.218 216.55 264.795 216.319 264.91 216.896C265.026 217.357 265.141 217.472 265.372 217.818C265.602 218.049 266.871 219.087 267.102 219.203C267.563 219.433 268.371 219.087 268.717 219.549C268.832 219.664 269.063 220.01 269.178 220.01C270.678 220.241 271.254 218.28 272.869 218.049C273.215 219.087 273.561 220.241 273.792 221.394C274.253 222.894 276.214 221.74 276.906 222.548C277.022 222.663 277.483 222.778 278.175 222.894C277.137 176.639 251.299 136.498 213.58 115.158C212.888 115.274 212.311 115.505 211.619 115.851L211.965 116.081L211.85 116.312C211.043 116.312 210.35 116.081 209.774 115.735V115.505H210.466C208.966 114.236 206.659 113.544 204.468 113.774V114.12C206.083 114.812 207.351 115.62 208.62 116.658C205.621 116.081 203.891 116.543 205.621 118.965C203.545 117.811 201.353 117.465 200.315 118.619C200.546 118.734 200.661 118.85 200.892 118.965L199.508 118.619C199.623 118.388 199.738 118.388 199.969 118.388C200.084 118.158 199.969 117.811 199.854 117.581H198.124C198.008 117.119 197.777 116.773 197.547 116.427L196.97 116.197H197.201L197.547 116.427C213.119 113.774 194.548 112.275 187.396 111.237C187.511 111.121 187.627 111.006 187.511 110.891C181.167 109.276 174.246 109.506 168.594 111.467C167.672 111.237 166.633 111.352 165.826 111.813V112.159C164.673 112.044 163.75 112.505 163.519 113.544C164.557 113.082 165.595 113.082 166.633 113.313C165.249 114.005 163.98 114.928 163.173 115.851V116.427L163.634 116.658C162.942 116.658 162.135 116.889 161.904 117.465L162.25 117.696C160.635 118.504 159.251 118.965 157.752 119.426C157.06 119.196 156.829 119.426 156.829 120.003L157.175 120.234C155.329 120.58 153.714 121.157 152.1 121.964V123.925C151.753 125.078 152.215 126.693 153.022 127.962C152.676 129.346 153.368 130.154 154.983 130.269L155.214 130.615C158.098 130.615 160.635 129.923 162.942 128.308C163.75 129.346 164.211 130.384 164.557 131.538C165.48 132.461 166.287 133.153 167.21 133.614V133.96C165.941 133.96 164.903 134.422 164.557 135.229C164.557 135.575 164.442 135.921 164.326 136.383C164.326 135.921 164.326 135.575 164.557 135.229C164.557 134.191 164.096 133.384 162.942 132.922C161.789 129 159.943 131.423 158.328 134.998L157.982 135.229C157.867 136.037 158.213 136.498 159.136 136.613C159.02 136.959 159.02 137.421 159.02 137.767L159.366 137.997C157.867 139.266 153.83 141.458 150.6 142.611L150.369 143.996C147.255 146.418 144.487 148.956 142.295 151.263C141.372 151.378 140.68 151.147 140.565 150.455C139.757 150.224 138.95 150.224 138.142 150.455C138.142 151.378 138.373 152.07 138.719 152.993C135.374 152.07 132.49 152.416 132.26 155.646C132.606 155.761 132.836 155.992 132.836 156.453C134.336 156.222 135.72 156.684 136.758 157.837H137.335C136.989 159.337 137.796 160.144 139.411 160.144C139.065 161.067 138.95 161.875 139.181 162.797H138.834C138.719 164.412 138.488 166.027 138.142 167.642C136.989 167.527 135.951 167.527 135.028 167.873C133.413 167.411 131.452 167.411 129.607 167.873C127.53 166.719 124.647 166.719 122.801 168.449C121.994 168.334 121.302 168.68 120.725 169.257C121.302 172.025 121.532 174.794 121.186 177.562C119.571 179.523 118.879 181.945 119.571 184.252L120.148 184.137C120.379 185.406 120.263 187.02 119.917 188.405C121.763 188.751 123.262 188.751 125.223 188.174C125.569 189.558 126.262 190.712 127.184 191.865C125.108 196.248 121.994 199.824 118.418 202.593H118.764C118.072 206.63 116.457 210.436 114.035 213.32C104.807 217.703 98.3472 227.508 99.5007 237.428L99.9621 237.312C100.539 243.195 101.116 251.154 101.116 256.229C105.73 266.149 118.533 268.687 130.875 265.457C138.027 263.612 144.256 264.189 144.948 268.11C150.023 268.11 147.14 275.031 152.33 276.877C155.214 279.415 160.174 280.914 162.942 280.683C162.366 283.567 163.519 284.374 165.941 284.951C165.134 286.335 164.442 288.181 164.211 289.911L164.557 288.988C167.326 290.027 169.056 294.294 169.979 295.794C171.709 298.447 170.555 299.831 176.092 302.023C178.86 305.137 171.247 306.175 172.516 308.828C173.093 309.751 174.016 311.02 172.862 311.943C165.365 320.132 174.016 325.438 172.632 326.938C173.554 328.553 174.823 329.937 176.553 331.091C176.323 333.398 179.437 333.051 182.205 332.244C187.511 331.321 186.127 329.476 190.626 328.207C192.702 327.63 200.315 327.976 202.507 327.284C203.776 326.131 205.044 325.323 206.429 324.631C213.465 315.634 211.735 311.02 215.656 311.366C221.539 309.174 226.73 303.868 231.575 297.409C234.343 293.718 229.152 288.066 233.535 284.836C235.727 283.221 237.803 279.991 241.148 278.146C243.34 276.877 246.685 277.338 249.107 275.377C251.876 273.07 256.144 273.416 257.643 270.187C260.758 266.842 262.488 262.228 262.027 258.536H260.988C257.297 260.151 252.914 261.882 248.877 263.15H248.185L247.839 262.92C246.685 261.882 246.339 260.843 246.801 259.805C246.224 258.421 248.992 257.96 249.915 258.075C254.875 255.422 260.066 252.769 265.602 249.77C265.948 249.078 265.833 248.04 266.525 247.463C266.986 247.117 267.909 247.002 268.486 246.886C269.755 246.425 271.946 245.963 271.946 244.233C271.946 243.426 271.946 243.426 272.869 243.31C274.253 243.08 273.677 242.272 274.369 241.58C275.061 240.888 276.56 240.773 276.906 239.965C277.137 237.774 277.829 235.928 278.983 233.967C279.098 232.122 279.213 230.276 279.213 228.315C277.945 227.277 277.714 226.585 277.368 226.354ZM219.578 159.568C221.309 159.337 222.462 158.991 224.192 158.299C224.077 158.76 223.731 158.875 223.269 158.76C223.962 160.029 223.962 161.067 223.385 162.336C222.116 161.644 220.847 161.529 219.578 162.105C218.54 161.298 218.54 160.375 219.578 159.568ZM205.737 168.565C207.236 167.988 207.351 166.373 206.775 164.758C208.274 164.412 208.736 163.374 208.159 161.875C208.966 161.413 209.543 160.606 209.774 159.568L210.12 159.337C211.619 160.26 213.003 160.836 214.503 161.067C221.309 163.605 243.225 169.257 224.654 173.755C224.308 172.602 223.5 172.256 222.577 172.948C222.231 172.717 221.885 172.487 221.885 172.025C218.656 171.218 215.426 171.91 213.465 174.332L212.888 174.563C211.619 173.871 210.004 173.871 208.505 174.332V173.986C208.043 173.525 207.582 173.294 207.005 173.294C205.852 171.795 205.506 170.295 205.737 168.565ZM166.518 137.651L166.403 137.19C167.095 136.959 167.441 136.498 167.326 135.69C171.363 136.037 174.362 134.652 175.4 131.307H174.477C174.708 130.384 174.823 129.577 174.823 128.654C178.284 126.693 177.592 124.963 173.9 123.694C173.9 122.887 173.9 122.079 173.785 121.272C175.746 120.234 177.361 119.196 179.091 118.042C179.091 117.696 178.86 117.35 178.514 117.119C179.552 115.851 181.052 115.735 182.552 116.543L182.321 116.773C181.859 117.811 180.937 118.734 179.898 119.426C178.976 118.965 178.284 118.965 178.284 120.003L178.63 120.234C178.63 121.272 179.206 122.195 180.014 122.541C179.668 123.464 179.783 124.271 180.36 125.078C180.821 125.309 181.283 125.309 181.859 125.194C185.32 125.886 189.818 126.463 193.51 126.463L192.818 126.693V127.155C190.164 125.886 187.281 126.001 185.32 127.731C184.166 127.385 183.128 127.501 183.013 128.424C182.782 129.231 183.013 129.923 183.59 130.5C183.013 130.731 182.782 131.192 182.898 131.769C182.667 133.268 182.551 134.652 182.436 136.152L181.167 136.383C181.052 136.844 180.821 137.19 180.475 137.305C177.015 136.152 173.324 136.959 170.555 139.266C170.325 138.805 169.979 138.459 169.632 138.228C169.863 137.075 169.286 136.613 167.902 136.844C167.326 137.305 166.172 137.882 165.134 138.228L164.557 137.882L166.518 137.651ZM198.47 201.324C191.664 198.209 188.896 201.554 188.434 208.245C186.358 206.053 183.59 204.784 180.706 204.784C178.399 200.516 174.131 198.555 168.825 198.901C168.479 198.325 168.133 197.633 168.018 196.94C167.441 196.594 166.749 196.594 166.287 197.171C165.941 196.018 166.749 194.98 168.018 194.057C168.018 192.557 167.556 191.173 166.633 190.02L166.979 189.789C167.441 188.866 167.556 188.174 167.556 187.136C167.326 187.02 167.21 186.905 166.979 186.79C166.518 186.79 166.057 187.136 165.941 187.597C163.519 186.098 160.174 186.213 157.175 187.597C156.021 186.674 154.522 187.02 153.138 187.943C151.638 187.136 149.908 187.136 148.524 187.943C145.64 187.713 142.526 188.751 140.449 190.827C136.528 192.557 133.759 193.019 129.376 192.788C129.145 192.096 128.799 191.404 128.453 190.712C131.221 189.674 134.913 188.289 137.22 187.251C139.296 186.674 140.334 185.406 140.68 183.214C142.756 178.831 146.217 173.063 149.677 167.873C153.945 169.488 157.521 168.565 160.751 165.335V164.989C162.712 165.335 163.98 166.488 164.442 168.449C162.827 170.295 164.903 170.064 166.403 169.949V170.295C165.711 170.18 165.595 170.526 165.826 171.102H167.441C168.479 172.487 169.748 173.755 171.132 174.794C176.323 176.293 179.206 180.1 179.091 185.29H179.898C181.859 182.983 182.321 180.676 180.821 178.369C180.937 177.331 181.513 176.87 182.552 177.447L182.667 178.369C186.819 177.447 182.09 174.794 178.745 172.948C179.091 172.487 178.976 171.91 178.63 171.448C175.169 169.949 172.055 167.757 169.286 164.874C168.94 163.143 169.402 161.99 170.901 161.413L171.247 161.644C171.017 162.682 171.363 163.374 171.939 164.182C172.516 164.412 172.862 164.412 173.208 163.951C177.13 167.296 181.513 170.41 185.897 173.179C185.781 174.678 185.781 176.293 186.012 177.793C186.358 178.023 186.704 178.139 187.05 178.139V178.369C186.704 179.754 187.742 180.907 189.472 181.599C189.357 184.944 191.087 187.367 194.086 188.866C194.317 189.212 194.432 189.443 194.548 189.789C196.97 191.519 197.547 190.25 196.855 187.136C197.893 187.367 197.662 186.328 197.316 185.867C197.777 186.213 198.585 185.982 198.816 185.406C198.816 185.752 199.046 187.828 199.508 187.943C199.854 188.059 199.854 185.982 199.854 185.982C200.431 186.905 200.892 186.328 200.892 187.482C200.661 188.174 200.892 188.52 201.584 188.405C202.622 188.52 203.084 187.828 202.853 186.905C202.045 185.867 201.123 185.06 200.084 184.252C198.931 183.56 198.585 182.522 197.893 181.253C197.085 179.754 195.24 179.177 194.548 177.447C195.932 179.292 199.738 178.023 198.008 176.293C199.046 176.985 199.277 176.293 199.969 175.716C200.2 175.832 200.43 175.832 200.661 175.947C199.854 176.524 200.661 176.754 199.738 177.562C199.392 177.908 199.046 178.369 199.508 178.715C200.546 179.638 200.777 178.6 201.353 178.715C203.199 179.177 200.084 181.599 203.083 182.176C202.391 182.061 201.815 182.176 201.699 182.983C201.584 184.483 202.622 184.483 203.776 185.06C202.968 185.406 202.507 186.098 202.737 187.02C203.776 187.367 203.776 186.444 204.583 186.674C206.083 186.905 205.39 189.904 206.659 189.327C208.043 194.403 208.505 188.751 210.004 189.558C210.927 191.173 212.542 191.519 214.388 190.712C214.734 190.25 214.849 189.674 214.503 189.212C217.733 191.288 220.962 191.634 223.846 189.212C224.308 189.674 224.884 189.789 225.576 189.789C225.461 190.25 225.576 190.712 225.922 190.942C224.654 207.091 213.926 208.706 198.47 201.324ZM244.148 255.307C243.801 254.615 243.34 254.269 242.879 253.576C242.302 252.769 241.725 252.308 241.148 251.731C240.341 250.808 238.38 250.001 238.265 248.732C238.034 246.54 237.342 244.925 236.65 243.08C236.304 242.388 235.266 241.58 234.574 241.234C233.766 240.773 233.882 238.697 233.882 237.889C233.882 236.159 233.766 233.737 232.959 232.122C232.728 231.545 232.036 231.084 231.69 230.622C230.882 229.815 229.844 230.045 229.844 228.661C229.844 227.969 230.652 227.623 230.421 226.7C230.306 226.354 229.844 226.239 229.729 225.893C229.383 225.316 229.037 224.739 228.691 224.163C227.191 221.51 225.692 218.165 225 215.742C225.692 216.665 226.961 216.088 226.73 214.935C228.229 214.935 228.806 217.357 229.614 218.28C230.306 218.972 230.536 219.549 230.652 220.472C230.767 221.164 231.575 221.625 231.921 222.202C232.382 223.24 232.382 224.509 232.959 225.431C233.535 226.47 233.882 226.008 234.689 226.585C238.034 229.007 235.381 234.313 238.265 236.966C238.957 237.543 239.764 237.774 240.341 238.466C241.148 239.389 241.033 240.427 241.495 241.465C242.071 243.08 243.109 244.349 243.917 246.079C244.263 246.771 245.647 248.501 244.84 249.424C244.032 250.231 244.724 250.577 244.955 251.616C245.416 253.23 245.07 255.191 245.647 256.806C244.494 256.922 244.494 255.999 244.148 255.307ZM252.914 184.483L252.683 183.56C253.145 182.407 253.26 180.676 252.914 179.292C252.337 178.023 248.415 171.102 246.108 167.642L245.186 167.411C244.955 166.604 244.378 166.142 243.571 165.912C243.571 164.989 243.571 164.066 243.686 163.259C245.07 162.797 246.108 162.105 246.685 161.182C247.262 160.49 248.069 160.029 248.992 159.798C249.454 160.375 250.03 160.606 250.722 160.606C250.838 160.49 250.953 160.375 251.068 160.26C252.222 160.952 252.799 162.336 252.683 163.72C250.492 163.143 249.8 163.951 250.607 166.027H249.338C250.722 168.68 253.029 170.987 255.682 172.487C256.259 175.601 257.874 178.946 259.72 181.138C260.873 183.099 262.027 185.982 263.065 188.981H260.758V189.443C260.066 189.212 259.258 189.212 258.566 189.327C258.105 188.866 257.413 188.52 256.72 188.289C255.452 186.905 254.183 185.867 252.914 184.483Z" fill="#E5E5E6"/>
<path d="M153.733 374C153.106 374 152.569 374 151.942 374C151.763 374 151.584 373.821 151.584 373.642C151.584 373.463 151.763 373.284 151.942 373.284C152.569 373.284 153.106 373.284 153.733 373.284C154.718 373.284 155.793 373.284 156.778 373.284C156.957 373.284 157.136 373.463 157.136 373.642C157.136 373.821 156.957 374 156.778 374C155.793 374 154.718 374 153.733 374ZM144.329 373.731C142.717 373.642 141.105 373.552 139.493 373.373C139.314 373.373 139.135 373.194 139.135 373.015C139.135 372.836 139.314 372.657 139.493 372.657C141.105 372.836 142.627 372.925 144.24 373.015C144.419 373.015 144.598 373.194 144.598 373.373C144.687 373.552 144.508 373.731 144.329 373.731ZM164.391 373.642C164.212 373.642 164.033 373.463 164.033 373.284C164.033 373.104 164.122 372.925 164.391 372.925C166.003 372.836 167.615 372.657 169.138 372.478C169.317 372.478 169.496 372.567 169.496 372.836C169.496 373.015 169.406 373.194 169.138 373.194C167.615 373.373 166.003 373.463 164.391 373.642ZM131.88 372.478C130.268 372.209 128.656 372.03 127.044 371.761C126.865 371.761 126.686 371.582 126.775 371.313C126.775 371.134 126.954 370.955 127.223 371.045C128.745 371.313 130.358 371.582 131.97 371.761C132.149 371.761 132.328 371.94 132.238 372.209C132.238 372.298 132.059 372.478 131.88 372.478ZM176.75 372.209C176.571 372.209 176.392 372.119 176.392 371.94C176.392 371.761 176.482 371.582 176.661 371.492C177.377 371.403 178.094 371.224 178.9 371.134C179.706 370.955 180.602 370.865 181.408 370.686C181.587 370.686 181.766 370.776 181.855 370.955C181.855 371.134 181.766 371.313 181.587 371.403C180.781 371.582 179.885 371.671 179.079 371.851C178.273 372.03 177.556 372.119 176.75 372.209ZM119.7 370.238C119.61 370.238 119.61 370.238 119.7 370.238C118.088 369.88 116.476 369.522 114.953 369.074C114.774 368.985 114.684 368.805 114.684 368.626C114.774 368.447 114.953 368.358 115.132 368.358C116.655 368.716 118.267 369.164 119.789 369.522C119.968 369.522 120.058 369.791 120.058 369.97C119.968 370.059 119.879 370.238 119.7 370.238ZM188.931 369.88C188.752 369.88 188.662 369.791 188.573 369.612C188.483 369.432 188.662 369.253 188.841 369.164C190.364 368.805 191.886 368.447 193.498 367.999C193.678 367.91 193.857 368.089 193.946 368.268C194.036 368.447 193.857 368.626 193.678 368.716C192.155 369.074 190.543 369.522 188.931 369.88C189.02 369.88 189.02 369.88 188.931 369.88ZM107.699 366.925H107.609C106.086 366.477 104.564 365.94 103.041 365.402C102.862 365.313 102.773 365.133 102.862 364.954C102.952 364.775 103.131 364.686 103.31 364.775C104.833 365.313 106.355 365.76 107.878 366.298C108.057 366.387 108.146 366.566 108.146 366.746C107.967 366.835 107.788 366.925 107.699 366.925ZM200.932 366.477C200.753 366.477 200.663 366.387 200.574 366.208C200.484 366.029 200.574 365.85 200.842 365.76C202.365 365.313 203.887 364.775 205.32 364.238C205.5 364.148 205.679 364.238 205.768 364.417C205.858 364.596 205.768 364.775 205.589 364.865C204.067 365.402 202.544 365.939 201.111 366.387C201.022 366.477 201.022 366.477 200.932 366.477ZM95.966 362.715C95.8764 362.715 95.8764 362.715 95.7869 362.715C94.2643 362.088 92.8313 361.461 91.3984 360.835C91.2192 360.745 91.1297 360.566 91.2192 360.387C91.3088 360.208 91.4879 360.118 91.667 360.208C93.1 360.834 94.6226 361.461 96.0556 362.088C96.2347 362.178 96.3242 362.357 96.2347 362.536C96.2347 362.626 96.1451 362.715 95.966 362.715ZM212.575 362.178C212.396 362.178 212.306 362.088 212.217 361.999C212.127 361.82 212.217 361.641 212.396 361.551C213.829 360.924 215.351 360.297 216.784 359.67C216.963 359.581 217.143 359.67 217.232 359.849C217.322 360.028 217.232 360.208 217.053 360.297C215.62 360.924 214.098 361.641 212.665 362.178C212.665 362.178 212.665 362.178 212.575 362.178ZM84.6813 357.521C84.5917 357.521 84.5917 357.521 84.5021 357.521C83.0692 356.804 81.6362 355.998 80.2927 355.282C80.1136 355.192 80.0241 355.013 80.1136 354.834C80.2032 354.655 80.3823 354.565 80.5614 354.655C81.9049 355.371 83.3378 356.177 84.7708 356.894C84.9499 356.983 85.0395 357.162 84.9499 357.342C84.9499 357.431 84.7708 357.521 84.6813 357.521ZM223.86 356.894C223.77 356.894 223.591 356.804 223.501 356.715C223.412 356.536 223.501 356.356 223.681 356.267C225.114 355.55 226.547 354.744 227.89 354.028C228.069 353.938 228.248 354.028 228.338 354.207C228.427 354.386 228.338 354.565 228.159 354.655C226.815 355.461 225.382 356.177 223.949 356.894H223.86ZM73.7548 351.431C73.6652 351.431 73.6652 351.431 73.5756 351.341C72.2322 350.535 70.8888 349.639 69.5454 348.744C69.3663 348.654 69.3662 348.385 69.4558 348.206C69.5454 348.027 69.8141 348.027 69.9932 348.117C71.3366 349.012 72.68 349.818 74.0235 350.714C74.2026 350.804 74.2026 351.072 74.113 351.162C74.0234 351.431 73.9339 351.431 73.7548 351.431ZM234.607 350.714C234.518 350.714 234.338 350.624 234.338 350.535C234.249 350.356 234.249 350.177 234.428 350.087C235.771 349.281 237.115 348.385 238.458 347.49C238.637 347.4 238.816 347.4 238.996 347.579C239.085 347.759 239.085 347.938 238.906 348.117C237.563 349.012 236.219 349.908 234.876 350.714C234.697 350.714 234.697 350.714 234.607 350.714ZM63.4552 344.534C63.3656 344.534 63.2761 344.534 63.2761 344.445C62.0222 343.46 60.6788 342.564 59.4249 341.579C59.2458 341.489 59.2458 341.221 59.3354 341.041C59.4249 340.862 59.6936 340.862 59.8727 340.952C61.1266 341.937 62.3805 342.922 63.6343 343.818C63.8134 343.907 63.8134 344.176 63.7239 344.355C63.7239 344.445 63.5448 344.534 63.4552 344.534ZM244.817 343.639C244.728 343.639 244.638 343.549 244.548 343.46C244.459 343.28 244.459 343.101 244.638 342.922C245.892 341.937 247.146 341.041 248.4 339.967C248.579 339.877 248.758 339.877 248.937 340.056C249.026 340.235 249.026 340.415 248.847 340.594C247.593 341.579 246.34 342.564 245.086 343.549C244.996 343.639 244.907 343.639 244.817 343.639ZM53.7826 336.743C53.693 336.743 53.6034 336.742 53.5139 336.653C52.3496 335.578 51.0957 334.503 49.9314 333.429C49.7523 333.339 49.7523 333.07 49.9314 332.891C50.021 332.712 50.2897 332.712 50.4688 332.891C51.6331 333.966 52.7974 335.041 54.0512 336.116C54.2304 336.205 54.2304 336.474 54.0512 336.653C53.9617 336.742 53.8721 336.743 53.7826 336.743ZM254.49 335.847C254.4 335.847 254.311 335.847 254.221 335.757C254.131 335.578 254.131 335.399 254.221 335.22C255.385 334.145 256.55 333.07 257.714 331.996C257.893 331.906 258.072 331.906 258.251 331.996C258.43 332.175 258.341 332.354 258.251 332.533C257.087 333.608 255.923 334.683 254.669 335.757C254.669 335.757 254.579 335.847 254.49 335.847ZM44.7369 328.234C44.6473 328.234 44.5577 328.234 44.4682 328.145C43.3934 326.98 42.2291 325.816 41.1544 324.652C41.0648 324.473 41.0648 324.293 41.1544 324.114C41.3335 324.025 41.5127 324.025 41.6918 324.114C42.7665 325.279 43.8413 326.443 45.0056 327.607C45.1847 327.786 45.1847 327.965 45.0056 328.145C44.916 328.234 44.8264 328.234 44.7369 328.234ZM263.446 327.249C263.356 327.249 263.267 327.249 263.177 327.159C262.998 326.98 262.998 326.801 263.177 326.622C264.252 325.458 265.416 324.293 266.401 323.129C266.491 322.95 266.76 322.95 266.939 323.129C267.118 323.219 267.118 323.487 266.939 323.667C265.864 324.831 264.789 325.995 263.625 327.159C263.625 327.159 263.535 327.249 263.446 327.249ZM36.3181 319.009C36.2285 319.009 36.139 319.009 36.0494 318.92C35.0642 317.666 33.9895 316.412 33.0043 315.158C32.9148 314.979 32.9148 314.8 33.0939 314.621C33.273 314.531 33.4521 314.531 33.6312 314.71C34.6164 315.964 35.6016 317.218 36.5868 318.382C36.6763 318.562 36.6763 318.741 36.4972 318.92C36.4972 319.009 36.4077 319.009 36.3181 319.009ZM271.685 317.935C271.596 317.935 271.506 317.935 271.417 317.845C271.238 317.755 271.238 317.487 271.327 317.308C272.312 316.054 273.298 314.8 274.283 313.546C274.372 313.367 274.641 313.367 274.82 313.457C274.999 313.546 274.999 313.815 274.91 313.994C273.925 315.248 272.939 316.502 271.954 317.755C271.954 317.845 271.865 317.935 271.685 317.935ZM28.7949 309.158C28.7054 309.158 28.6158 309.068 28.5262 308.978C27.6306 307.635 26.735 306.292 25.8394 305.038C25.7498 304.859 25.7498 304.68 25.929 304.5C26.1081 304.411 26.2872 304.411 26.4663 304.59C27.3619 305.933 28.2576 307.187 29.1532 308.531C29.2427 308.71 29.2427 308.889 29.0636 309.068C28.9741 309.068 28.8845 309.158 28.7949 309.158ZM279.209 307.993C279.119 307.993 279.03 307.993 279.03 307.904C278.85 307.814 278.85 307.545 278.94 307.366C279.836 306.112 280.731 304.769 281.627 303.426C281.716 303.247 281.985 303.247 282.164 303.336C282.343 303.426 282.343 303.694 282.254 303.873C281.358 305.217 280.462 306.56 279.567 307.904C279.388 307.904 279.298 307.993 279.209 307.993ZM22.0778 298.679C21.9883 298.679 21.8091 298.589 21.8091 298.5C21.0031 297.156 20.197 295.723 19.4805 294.29C19.391 294.111 19.4805 293.932 19.6597 293.843C19.8388 293.753 20.0179 293.843 20.1075 294.022C20.824 295.365 21.63 296.798 22.4361 298.142C22.5256 298.321 22.4361 298.5 22.3465 298.589C22.1674 298.679 22.0778 298.679 22.0778 298.679ZM285.836 297.425C285.747 297.425 285.747 297.425 285.657 297.335C285.478 297.246 285.388 296.977 285.568 296.888C286.374 295.544 287.09 294.111 287.896 292.678C287.986 292.499 288.165 292.41 288.344 292.499C288.523 292.589 288.613 292.768 288.523 292.947C287.807 294.38 287 295.813 286.194 297.156C286.105 297.425 286.015 297.425 285.836 297.425ZM16.1668 287.663C16.0772 287.663 15.8981 287.573 15.8085 287.484C15.092 286.051 14.4651 284.618 13.7486 283.095C13.6591 282.916 13.7486 282.737 13.9277 282.647C14.1069 282.558 14.286 282.647 14.3755 282.827C15.0025 284.26 15.719 285.692 16.3459 287.125C16.4355 287.305 16.3459 287.484 16.1668 287.573C16.3459 287.663 16.2563 287.663 16.1668 287.663ZM291.658 286.409C291.568 286.409 291.568 286.409 291.479 286.409C291.299 286.319 291.21 286.14 291.299 285.961C292.016 284.528 292.643 283.006 293.27 281.573C293.359 281.394 293.538 281.304 293.718 281.394C293.897 281.483 293.986 281.662 293.897 281.841C293.27 283.274 292.643 284.797 291.926 286.23C291.837 286.319 291.747 286.409 291.658 286.409ZM11.2409 276.289C11.0618 276.289 10.9722 276.199 10.8826 276.02C10.3453 274.497 9.71835 273.064 9.27054 271.542C9.18098 271.363 9.27054 271.184 9.44966 271.094C9.62879 271.004 9.80791 271.094 9.89747 271.273C10.4348 272.796 10.9722 274.318 11.5096 275.751C11.5991 275.93 11.5096 276.109 11.3305 276.199C11.3305 276.289 11.3305 276.289 11.2409 276.289ZM296.494 274.945H296.404C296.225 274.856 296.136 274.676 296.225 274.497C296.763 272.975 297.3 271.452 297.837 270.019C297.927 269.84 298.106 269.751 298.285 269.751C298.464 269.84 298.554 270.019 298.554 270.198C298.017 271.721 297.479 273.243 296.942 274.766C296.763 274.856 296.584 274.945 296.494 274.945ZM7.30019 264.556C7.12107 264.556 7.03151 264.466 6.94195 264.287C6.49414 262.765 6.04633 261.242 5.68809 259.63C5.59852 259.451 5.77765 259.272 5.95677 259.182C6.13589 259.093 6.31502 259.272 6.40458 259.451C6.76282 260.974 7.21063 262.496 7.65844 264.019C7.748 264.198 7.56887 264.377 7.38975 264.466C7.30019 264.556 7.30019 264.556 7.30019 264.556ZM300.345 263.123H300.256C300.076 263.033 299.987 262.854 299.987 262.675C300.435 261.153 300.793 259.63 301.241 258.018C301.33 257.839 301.509 257.749 301.689 257.749C301.868 257.839 301.957 258.018 301.957 258.197C301.599 259.72 301.151 261.332 300.703 262.854C300.614 263.033 300.524 263.123 300.345 263.123ZM4.2551 252.465C4.07598 252.465 3.89686 252.376 3.89686 252.197C3.53861 250.674 3.26993 249.062 3.00124 247.45C3.00124 247.271 3.0908 247.092 3.26993 247.002C3.44905 247.002 3.62817 247.092 3.71773 247.271C3.98642 248.793 4.2551 250.405 4.61335 251.928C4.61335 252.197 4.52379 252.376 4.2551 252.465ZM303.211 250.943C302.942 250.943 302.853 250.674 302.853 250.495C303.122 248.972 303.48 247.36 303.659 245.838C303.659 245.659 303.838 245.479 304.107 245.569C304.286 245.569 304.465 245.748 304.375 246.017C304.107 247.629 303.838 249.151 303.569 250.764C303.569 250.853 303.39 250.943 303.211 250.943ZM2.28475 240.195C2.10563 240.195 1.92651 240.106 1.92651 239.927C1.74738 238.314 1.56826 236.702 1.38914 235.18C1.38914 235.001 1.4787 234.822 1.74738 234.822C1.92651 234.822 2.10563 234.911 2.10563 235.18C2.28475 236.792 2.46387 238.314 2.643 239.927C2.643 240.016 2.46387 240.195 2.28475 240.195ZM305.092 238.673C304.823 238.673 304.734 238.494 304.734 238.314C304.734 237.956 304.823 237.508 304.823 237.15C304.913 235.986 305.092 234.732 305.181 233.568C305.181 233.389 305.361 233.21 305.54 233.21C305.719 233.21 305.898 233.389 305.898 233.568C305.808 234.732 305.719 235.986 305.54 237.15C305.54 237.508 305.45 237.956 305.45 238.314C305.45 238.583 305.271 238.673 305.092 238.673ZM1.21001 227.836C1.03089 227.836 0.851768 227.657 0.851768 227.478C0.762207 225.865 0.762207 224.253 0.762207 222.731C0.762207 222.552 0.94133 222.373 1.12045 222.373C1.29958 222.373 1.4787 222.552 1.4787 222.731C1.4787 224.343 1.56826 225.955 1.56826 227.478C1.56826 227.657 1.4787 227.836 1.21001 227.836ZM305.988 226.313C305.808 226.313 305.629 226.134 305.629 225.955C305.719 224.343 305.719 222.731 305.719 221.208V221.029C305.719 220.85 305.898 220.671 306.077 220.671C306.256 220.671 306.435 220.85 306.435 221.029V221.208C306.435 222.82 306.435 224.432 306.346 226.045C306.346 226.134 306.167 226.313 305.988 226.313ZM1.21001 215.387C1.03089 215.387 0.851768 215.208 0.851768 215.029C0.94133 213.416 1.03089 211.804 1.12045 210.282C1.12045 210.103 1.29958 209.924 1.4787 209.924C1.65782 209.924 1.83694 210.103 1.83694 210.282C1.74738 211.894 1.65782 213.416 1.56826 215.029C1.56826 215.208 1.38914 215.387 1.21001 215.387ZM305.898 213.685C305.719 213.685 305.54 213.506 305.54 213.327C305.45 211.715 305.361 210.103 305.181 208.58C305.181 208.401 305.271 208.222 305.54 208.222C305.719 208.222 305.898 208.311 305.898 208.58C305.988 210.192 306.167 211.804 306.256 213.327C306.256 213.506 306.077 213.685 305.898 213.685ZM2.19519 202.938C1.92651 202.938 1.83694 202.759 1.83694 202.579C2.01607 200.967 2.28475 199.355 2.46387 197.833C2.46387 197.654 2.643 197.474 2.91168 197.564C3.0908 197.564 3.26993 197.743 3.18037 198.012C2.91168 199.534 2.73256 201.146 2.55344 202.759C2.55344 202.848 2.37431 202.938 2.19519 202.938ZM304.734 201.236C304.555 201.236 304.375 201.147 304.375 200.967C304.196 199.534 303.928 198.101 303.748 196.668L303.659 196.31C303.659 196.131 303.749 195.952 303.928 195.862C304.107 195.862 304.286 195.952 304.375 196.131L304.465 196.489C304.734 197.922 304.913 199.355 305.092 200.878C305.092 201.057 305.002 201.236 304.734 201.236ZM4.2551 190.668C4.16554 190.668 4.16554 190.668 4.2551 190.668C3.98642 190.578 3.89686 190.399 3.89686 190.22C4.2551 188.697 4.52379 187.085 4.97159 185.563C5.06115 185.384 5.24028 185.294 5.4194 185.294C5.59852 185.384 5.68809 185.563 5.68809 185.742C5.32984 187.264 4.97159 188.877 4.61335 190.399C4.52379 190.578 4.43423 190.668 4.2551 190.668ZM302.584 189.056C302.405 189.056 302.315 188.966 302.226 188.787C301.868 187.264 301.509 185.652 301.151 184.13C301.062 183.951 301.241 183.772 301.42 183.682C301.599 183.592 301.778 183.772 301.868 183.951C302.226 185.473 302.584 187.085 302.942 188.608C303.032 188.787 302.853 188.966 302.584 189.056C302.674 189.056 302.674 189.056 302.584 189.056ZM7.21063 178.577H7.12107C6.94195 178.487 6.85238 178.308 6.85238 178.129C7.30019 176.607 7.748 175.084 8.28537 173.562C8.37493 173.382 8.55405 173.293 8.73317 173.293C8.9123 173.382 9.00186 173.562 9.00186 173.741C8.55405 175.263 8.01668 176.786 7.56887 178.308C7.56887 178.487 7.38975 178.577 7.21063 178.577ZM299.45 176.965C299.27 176.965 299.181 176.875 299.091 176.696C298.643 175.174 298.106 173.651 297.658 172.129C297.569 171.949 297.658 171.77 297.837 171.681C298.017 171.591 298.196 171.681 298.285 171.86C298.823 173.382 299.27 174.905 299.718 176.428C299.808 176.607 299.629 176.786 299.45 176.875C299.539 176.965 299.539 176.965 299.45 176.965ZM11.2409 166.844H11.1513C10.9722 166.755 10.8826 166.576 10.9722 166.397C11.5096 164.874 12.1365 163.441 12.7634 161.919C12.853 161.739 13.0321 161.65 13.2112 161.739C13.3904 161.829 13.4799 162.008 13.3904 162.187C12.7634 163.62 12.1365 165.143 11.5991 166.576C11.5096 166.755 11.3305 166.844 11.2409 166.844ZM295.419 165.232C295.24 165.232 295.151 165.143 295.061 164.964C294.434 163.531 293.897 162.008 293.27 160.575C293.18 160.396 293.27 160.217 293.449 160.127C293.628 160.038 293.807 160.127 293.897 160.306C294.524 161.739 295.151 163.262 295.778 164.695C295.867 164.874 295.778 165.053 295.598 165.143C295.509 165.232 295.419 165.232 295.419 165.232ZM16.1668 155.381C16.0772 155.381 16.0772 155.381 15.9876 155.381C15.8085 155.291 15.719 155.112 15.8085 154.933C16.525 153.5 17.2415 152.067 17.958 150.634C18.0476 150.455 18.2267 150.365 18.4058 150.455C18.5849 150.544 18.6745 150.723 18.5849 150.903C17.8684 152.336 17.1519 153.769 16.4355 155.201C16.4355 155.381 16.2563 155.381 16.1668 155.381ZM290.314 153.858C290.225 153.858 290.046 153.769 289.956 153.679C289.24 152.246 288.523 150.813 287.807 149.47C287.717 149.29 287.807 149.111 287.986 149.022C288.165 148.932 288.344 149.022 288.434 149.201C289.15 150.634 289.956 152.067 290.673 153.5C290.762 153.679 290.673 153.858 290.493 153.948C290.404 153.858 290.404 153.858 290.314 153.858ZM21.9883 144.454C21.8987 144.454 21.8987 144.454 21.8091 144.365C21.63 144.275 21.5405 144.006 21.7196 143.917C22.5256 142.573 23.3317 141.14 24.2273 139.797C24.3169 139.618 24.5855 139.618 24.7647 139.707C24.9438 139.797 24.9438 140.066 24.8542 140.245C24.0482 141.588 23.1526 142.932 22.3465 144.365C22.2569 144.365 22.0778 144.454 21.9883 144.454ZM284.314 142.932C284.224 142.932 284.045 142.842 284.045 142.752C283.239 141.409 282.343 140.066 281.537 138.722C281.448 138.543 281.448 138.364 281.627 138.185C281.806 138.095 281.985 138.095 282.164 138.274C283.06 139.618 283.866 140.961 284.672 142.305C284.761 142.484 284.761 142.663 284.582 142.752C284.493 142.932 284.403 142.932 284.314 142.932ZM28.7054 133.975C28.6158 133.975 28.5262 133.975 28.5262 133.886C28.3471 133.796 28.3471 133.528 28.4367 133.349C29.3323 132.005 30.3175 130.751 31.2131 129.497C31.3027 129.318 31.5713 129.318 31.7505 129.408C31.9296 129.497 31.9296 129.766 31.84 129.945C30.8548 131.199 29.9592 132.542 29.0636 133.796C28.9741 133.886 28.7949 133.975 28.7054 133.975ZM277.507 132.632C277.417 132.632 277.328 132.542 277.238 132.453C276.343 131.199 275.358 129.856 274.372 128.602C274.283 128.423 274.283 128.244 274.462 128.064C274.641 127.975 274.82 127.975 274.999 128.154C275.984 129.408 276.97 130.751 277.865 132.005C277.955 132.184 277.955 132.363 277.776 132.542C277.686 132.542 277.597 132.632 277.507 132.632ZM36.3181 124.124C36.2285 124.124 36.139 124.124 36.0494 124.034C35.8703 123.945 35.8703 123.676 35.9598 123.497C36.945 122.243 38.0198 121.079 39.0945 119.825C39.1841 119.646 39.4527 119.646 39.6319 119.825C39.811 119.914 39.811 120.183 39.6319 120.362C38.5571 121.526 37.572 122.78 36.4972 123.945C36.4972 124.034 36.4077 124.124 36.3181 124.124ZM269.805 122.78C269.715 122.78 269.626 122.78 269.536 122.691C268.461 121.437 267.476 120.273 266.401 119.108C266.312 118.929 266.312 118.75 266.401 118.571C266.581 118.481 266.76 118.481 266.939 118.571C268.013 119.735 269.088 120.989 270.073 122.153C270.163 122.332 270.163 122.512 270.073 122.691C269.984 122.78 269.894 122.78 269.805 122.78ZM44.6473 114.899C44.5577 114.899 44.4682 114.899 44.3786 114.809C44.1995 114.63 44.1995 114.451 44.3786 114.272C45.5429 113.108 46.6177 112.033 47.782 110.869C47.9611 110.689 48.1402 110.779 48.3193 110.869C48.4984 111.048 48.4089 111.227 48.3193 111.406C47.155 112.481 46.0803 113.645 44.916 114.809C44.8264 114.809 44.7369 114.899 44.6473 114.899ZM261.386 113.645C261.296 113.645 261.207 113.645 261.117 113.555C259.953 112.391 258.878 111.316 257.714 110.242C257.535 110.063 257.535 109.883 257.714 109.704C257.893 109.525 258.072 109.525 258.251 109.704C259.416 110.779 260.58 111.943 261.655 113.018C261.834 113.197 261.834 113.376 261.655 113.555C261.565 113.645 261.475 113.645 261.386 113.645ZM53.693 106.301C53.6034 106.301 53.5139 106.301 53.4243 106.211C53.3348 106.032 53.3348 105.853 53.4243 105.674C54.5886 104.599 55.8425 103.614 57.0963 102.629C57.2755 102.539 57.4546 102.539 57.6337 102.719C57.7233 102.898 57.7233 103.077 57.5441 103.256C56.2903 104.241 55.126 105.316 53.8721 106.301C53.8721 106.301 53.7826 106.301 53.693 106.301ZM252.251 105.226C252.161 105.226 252.072 105.226 251.982 105.137C250.818 104.151 249.564 103.077 248.31 102.092C248.131 102.002 248.131 101.733 248.22 101.554C248.31 101.375 248.579 101.375 248.758 101.465C250.012 102.45 251.265 103.525 252.43 104.51C252.609 104.599 252.609 104.868 252.43 105.047C252.43 105.137 252.34 105.226 252.251 105.226ZM63.3656 98.5987C63.2761 98.5987 63.1865 98.5091 63.097 98.4196C63.0074 98.2404 63.0074 98.0613 63.1865 97.8822C64.4404 96.897 65.7838 96.0014 67.1272 95.1058C67.3063 95.0162 67.4855 95.0162 67.6646 95.1953C67.7541 95.3745 67.7542 95.5536 67.575 95.7327C66.2316 96.6283 64.9777 97.5239 63.7239 98.5091C63.5448 98.5091 63.4552 98.5987 63.3656 98.5987ZM242.488 97.5239C242.399 97.5239 242.309 97.5239 242.309 97.4344C241.056 96.5388 239.712 95.5536 238.369 94.7475C238.19 94.658 238.19 94.3893 238.279 94.2102C238.369 94.031 238.637 94.031 238.816 94.1206C240.16 95.0162 241.503 95.9118 242.757 96.897C242.936 96.9866 242.936 97.2553 242.847 97.4344C242.668 97.5239 242.578 97.5239 242.488 97.5239ZM73.6652 91.6129C73.5756 91.6129 73.3965 91.5233 73.3965 91.4338C73.307 91.2546 73.307 91.0755 73.4861 90.986C74.8295 90.1799 76.2625 89.2843 77.6059 88.5678C77.785 88.4782 77.9642 88.5678 78.0537 88.6574C78.1433 88.8365 78.0537 89.0156 77.9641 89.1052C76.6207 89.9112 75.1877 90.7173 73.8443 91.5233C73.8443 91.6129 73.7548 91.6129 73.6652 91.6129ZM232.099 90.7173C232.01 90.7173 232.01 90.7173 231.92 90.6277C230.577 89.8217 229.144 89.0156 227.8 88.2096C227.621 88.12 227.532 87.8513 227.621 87.7617C227.711 87.5826 227.98 87.4931 228.069 87.5826C229.413 88.3887 230.845 89.1947 232.189 90.0008C232.368 90.0903 232.368 90.359 232.278 90.4486C232.278 90.6277 232.189 90.7173 232.099 90.7173ZM84.5021 85.5227C84.4126 85.5227 84.2335 85.4332 84.1439 85.3436C84.0543 85.1645 84.1439 84.9853 84.323 84.8958C85.756 84.1793 87.189 83.4628 88.622 82.7463C88.8011 82.6567 88.9802 82.7463 89.0698 82.9254C89.1593 83.1046 89.0698 83.2837 88.8906 83.3732C87.4577 84.0002 86.0247 84.7167 84.5917 85.4332C84.6813 85.5227 84.5917 85.5227 84.5021 85.5227ZM221.173 84.7167C221.083 84.7167 221.083 84.7167 220.994 84.7167C219.561 84.0002 218.128 83.2837 216.695 82.6567C216.516 82.5672 216.426 82.3881 216.516 82.2089C216.605 82.0298 216.784 81.9403 216.963 82.0298C218.396 82.6567 219.829 83.3732 221.262 84.0897C221.442 84.1793 221.531 84.3584 221.442 84.5375C221.442 84.7167 221.262 84.7167 221.173 84.7167ZM95.8764 80.3281C95.6973 80.3281 95.6078 80.2386 95.5182 80.149C95.4286 79.9699 95.5182 79.7908 95.6973 79.7012C97.1303 79.0743 98.6528 78.5369 100.175 77.9996C100.355 77.91 100.534 77.9996 100.623 78.1787C100.713 78.3578 100.623 78.5369 100.444 78.6265C98.9215 79.1639 97.4885 79.7908 95.966 80.3281H95.8764ZM209.799 79.7012H209.709C208.276 79.0743 206.753 78.5369 205.231 77.9996C205.052 77.91 204.962 77.7309 205.052 77.5517C205.141 77.3726 205.32 77.2831 205.5 77.3726C207.022 77.91 208.545 78.4474 209.978 79.0743C210.157 79.1639 210.246 79.343 210.157 79.5221C210.067 79.6117 209.888 79.7012 209.799 79.7012ZM107.519 76.1188C107.34 76.1188 107.251 76.0292 107.161 75.8501C107.072 75.671 107.161 75.4918 107.43 75.4023C108.952 74.9545 110.475 74.5067 111.997 74.0589C112.177 73.9693 112.356 74.1484 112.445 74.3275C112.535 74.5067 112.356 74.6858 112.177 74.7753C110.654 75.2231 109.132 75.671 107.609 76.1188C107.609 76.1188 107.609 76.1188 107.519 76.1188ZM198.066 75.5814H197.976C196.454 75.1336 194.931 74.6858 193.409 74.238C193.23 74.1484 193.14 73.9693 193.14 73.7902C193.23 73.611 193.409 73.5215 193.588 73.5215C195.11 73.9693 196.633 74.4171 198.156 74.8649C198.335 74.9545 198.424 75.1336 198.424 75.3127C198.335 75.4918 198.156 75.5814 198.066 75.5814ZM119.521 72.805C119.342 72.805 119.252 72.7154 119.162 72.5363C119.162 72.3572 119.252 72.1781 119.431 72.0885C120.954 71.7303 122.566 71.372 124.088 71.1033C124.267 71.1033 124.447 71.1929 124.536 71.372C124.536 71.5511 124.447 71.7303 124.267 71.8198C122.745 72.1781 121.133 72.4467 119.521 72.805ZM185.975 72.4467C184.363 72.0885 182.751 71.8198 181.228 71.4616C181.049 71.4616 180.87 71.2824 180.96 71.0138C180.96 70.8346 181.228 70.6555 181.408 70.7451C182.93 71.0138 184.542 71.372 186.154 71.6407C186.333 71.6407 186.513 71.9094 186.423 72.0885C186.333 72.3572 186.154 72.4467 185.975 72.4467ZM131.791 70.566C131.611 70.566 131.432 70.4764 131.432 70.2973C131.432 70.1181 131.522 69.939 131.701 69.8495C133.224 69.5808 134.836 69.4017 136.448 69.2225C136.627 69.2225 136.806 69.3121 136.806 69.5808C136.806 69.7599 136.716 69.939 136.448 69.939C134.925 70.1181 133.403 70.2973 131.791 70.566ZM173.705 70.2973C172.093 70.1181 170.481 69.939 168.959 69.7599C168.779 69.7599 168.6 69.5808 168.6 69.4017C168.6 69.2225 168.779 69.0434 168.959 69.0434C170.571 69.2225 172.183 69.4017 173.705 69.5808C173.884 69.5808 174.064 69.7599 173.974 69.939C174.064 70.2077 173.884 70.2973 173.705 70.2973ZM144.15 69.3121C143.971 69.3121 143.792 69.133 143.792 68.9538C143.792 68.7747 143.971 68.5956 144.15 68.5956C145.762 68.506 147.374 68.4165 148.897 68.4165C149.076 68.4165 149.255 68.5956 149.255 68.7747C149.255 68.9538 149.076 69.133 148.897 69.133C147.285 69.133 145.762 69.2225 144.15 69.3121ZM161.346 69.2225C159.734 69.133 158.122 69.0434 156.599 69.0434C156.42 69.0434 156.241 68.8643 156.241 68.6852C156.241 68.506 156.42 68.3269 156.599 68.3269C158.211 68.3269 159.823 68.4165 161.435 68.506C161.615 68.506 161.794 68.6852 161.794 68.8643C161.704 69.0434 161.525 69.2225 161.346 69.2225Z" fill="#183D68"/>
<path d="M17.3314 153.142C17.2418 153.142 17.2418 153.142 17.1522 153.142C16.9731 153.052 16.8836 152.873 16.9731 152.694C17.3314 151.977 17.7792 151.261 18.227 150.634C18.3165 150.455 18.5852 150.455 18.7644 150.544C18.9435 150.634 18.9435 150.903 18.8539 151.082C18.4061 151.709 17.9583 152.336 17.6001 153.052C17.5105 153.052 17.4209 153.142 17.3314 153.142Z" fill="#183D68"/>
<path d="M289.329 284.26C289.15 284.26 288.971 284.08 288.971 283.901C288.792 282.468 288.523 280.856 287.986 279.334C287.896 279.155 288.076 278.975 288.255 278.886C288.434 278.796 288.613 278.975 288.703 279.154C289.15 280.767 289.509 282.379 289.688 283.901C289.688 284.08 289.509 284.26 289.329 284.26ZM285.478 272.527C285.389 272.527 285.21 272.437 285.12 272.348C284.493 271.004 283.687 269.571 282.791 268.228C282.702 268.049 282.702 267.87 282.881 267.78C283.06 267.691 283.239 267.691 283.329 267.87C284.224 269.303 284.941 270.736 285.657 272.079C285.747 272.258 285.657 272.437 285.478 272.527C285.568 272.527 285.657 272.527 285.478 272.527ZM278.94 262.048C278.851 262.048 278.761 261.959 278.672 261.869C277.776 260.615 276.791 259.361 275.806 258.108C275.716 257.928 275.716 257.749 275.895 257.57C276.074 257.481 276.253 257.481 276.433 257.66C277.418 258.914 278.403 260.257 279.388 261.421C279.478 261.6 279.478 261.78 279.299 261.959C279.119 261.959 279.03 262.048 278.94 262.048ZM271.148 252.376C271.059 252.376 270.969 252.376 270.88 252.286C269.805 251.122 268.73 249.957 267.656 248.793C267.476 248.614 267.566 248.435 267.656 248.256C267.835 248.077 268.014 248.166 268.193 248.256C269.268 249.42 270.432 250.584 271.417 251.749C271.507 251.928 271.507 252.107 271.417 252.286C271.328 252.376 271.238 252.376 271.148 252.376ZM262.551 243.419C262.461 243.419 262.371 243.419 262.282 243.33C261.118 242.255 260.043 241.18 258.789 240.016C258.61 239.927 258.61 239.658 258.789 239.479C258.879 239.3 259.147 239.3 259.326 239.479C260.491 240.554 261.655 241.718 262.819 242.793C262.998 242.972 262.998 243.151 262.819 243.33C262.73 243.419 262.64 243.419 262.551 243.419ZM253.415 235.09C253.326 235.09 253.236 235.09 253.147 235.001C251.982 233.926 250.728 232.941 249.564 231.866C249.385 231.777 249.385 231.508 249.564 231.329C249.654 231.15 249.922 231.15 250.102 231.329C251.355 232.403 252.52 233.389 253.774 234.463C253.953 234.553 253.953 234.822 253.774 235.001C253.594 235.001 253.505 235.09 253.415 235.09ZM243.832 227.119C243.743 227.119 243.653 227.119 243.653 227.03C242.399 226.045 241.145 225.059 239.892 224.074C239.712 223.985 239.712 223.716 239.802 223.537C239.892 223.358 240.16 223.358 240.339 223.447C241.593 224.432 242.847 225.418 244.101 226.403C244.28 226.492 244.28 226.761 244.19 226.94C244.011 227.03 243.922 227.119 243.832 227.119ZM233.98 219.507C233.891 219.507 233.801 219.507 233.801 219.417C232.548 218.521 231.294 217.536 229.95 216.641C229.771 216.551 229.771 216.282 229.861 216.103C229.95 215.924 230.219 215.924 230.398 216.014C231.741 216.999 232.995 217.894 234.249 218.88C234.428 218.969 234.428 219.238 234.339 219.417C234.249 219.507 234.07 219.507 233.98 219.507ZM223.95 212.252C223.86 212.252 223.771 212.252 223.771 212.163C222.517 211.267 221.173 210.371 219.83 209.476C219.651 209.386 219.651 209.117 219.74 208.938C219.83 208.759 220.098 208.759 220.278 208.849C221.621 209.744 222.964 210.64 224.218 211.536C224.397 211.625 224.397 211.894 224.308 212.073C224.129 212.252 224.039 212.252 223.95 212.252ZM213.561 205.356C213.471 205.356 213.471 205.356 213.381 205.266C212.038 204.371 210.695 203.565 209.351 202.669C209.172 202.579 209.172 202.311 209.262 202.221C209.351 202.042 209.62 202.042 209.799 202.132C211.142 203.027 212.486 203.833 213.829 204.729C214.008 204.819 214.008 205.087 213.919 205.266C213.829 205.356 213.74 205.356 213.561 205.356ZM203.082 198.728C202.992 198.728 202.992 198.728 202.903 198.639C201.559 197.833 200.216 197.027 198.783 196.131C198.604 196.042 198.514 195.773 198.693 195.683C198.783 195.504 199.052 195.415 199.141 195.594C200.485 196.4 201.918 197.206 203.261 198.101C203.44 198.191 203.44 198.46 203.35 198.549C203.35 198.728 203.171 198.728 203.082 198.728ZM192.424 192.459C192.334 192.459 192.334 192.459 192.245 192.369C190.901 191.563 189.468 190.757 188.125 190.041C187.946 189.951 187.856 189.683 187.946 189.593C188.036 189.414 188.304 189.324 188.394 189.414C189.827 190.22 191.17 191.026 192.514 191.743C192.693 191.832 192.782 192.101 192.603 192.19C192.693 192.369 192.514 192.459 192.424 192.459ZM181.587 186.369C181.498 186.369 181.498 186.369 181.408 186.369C179.975 185.652 178.632 184.846 177.199 184.13C177.019 184.04 176.93 183.861 177.019 183.682C177.109 183.503 177.288 183.413 177.467 183.503C178.9 184.219 180.244 185.025 181.677 185.742C181.856 185.832 181.945 186.011 181.856 186.19C181.856 186.279 181.677 186.369 181.587 186.369ZM170.571 180.547C170.481 180.547 170.481 180.547 170.392 180.547C168.959 179.831 167.526 179.114 166.093 178.398C165.914 178.308 165.824 178.129 165.914 177.95C166.003 177.771 166.183 177.681 166.362 177.771C167.795 178.487 169.228 179.204 170.661 179.92C170.84 180.01 170.929 180.189 170.84 180.368C170.84 180.547 170.75 180.547 170.571 180.547ZM159.465 175.084C159.376 175.084 159.376 175.084 159.286 175.084C157.853 174.368 156.42 173.741 154.987 173.024C154.808 172.935 154.719 172.756 154.808 172.576C154.898 172.397 155.077 172.308 155.256 172.397C156.689 173.114 158.122 173.741 159.555 174.457C159.734 174.547 159.824 174.726 159.734 174.905C159.734 174.995 159.645 175.084 159.465 175.084ZM148.181 169.8C148.091 169.8 148.091 169.8 148.002 169.8C146.569 169.173 145.046 168.457 143.613 167.83C143.434 167.74 143.344 167.561 143.434 167.382C143.523 167.203 143.703 167.113 143.882 167.203C145.315 167.83 146.748 168.457 148.27 169.173C148.449 169.263 148.539 169.442 148.449 169.621C148.449 169.71 148.36 169.8 148.181 169.8ZM136.806 164.874C136.717 164.874 136.717 164.874 136.627 164.874C135.194 164.247 133.672 163.62 132.239 163.083C132.06 162.993 131.97 162.814 132.06 162.635C132.149 162.456 132.328 162.366 132.507 162.456C133.94 163.083 135.463 163.62 136.896 164.247C137.075 164.337 137.165 164.516 137.075 164.695C137.075 164.785 136.985 164.874 136.806 164.874ZM125.343 160.306H125.253C123.73 159.769 122.297 159.142 120.775 158.605C120.596 158.515 120.506 158.336 120.596 158.157C120.685 157.978 120.864 157.888 121.044 157.978C122.566 158.515 123.999 159.053 125.522 159.68C125.701 159.769 125.79 159.948 125.701 160.127C125.611 160.217 125.432 160.306 125.343 160.306ZM113.7 156.008H113.61C112.087 155.47 110.565 154.933 109.132 154.485C108.953 154.395 108.863 154.216 108.863 154.037C108.953 153.858 109.132 153.769 109.311 153.769C110.834 154.306 112.356 154.754 113.789 155.291C113.968 155.381 114.058 155.56 113.968 155.739C113.968 155.918 113.789 156.008 113.7 156.008ZM101.877 152.067H101.788C100.265 151.619 98.7428 151.171 97.2202 150.723C97.0411 150.634 96.9516 150.455 96.9516 150.276C97.0411 150.096 97.2202 150.007 97.3994 150.007C98.9219 150.455 100.444 150.903 101.967 151.35C102.146 151.44 102.236 151.619 102.236 151.798C102.146 151.977 102.057 152.067 101.877 152.067ZM89.9658 148.664H89.8762C88.3537 148.216 86.7416 147.857 85.219 147.499C85.0399 147.41 84.9503 147.231 84.9503 147.051C85.0399 146.872 85.219 146.783 85.3981 146.783C86.9207 147.141 88.4432 147.589 90.0553 147.947C90.2344 148.037 90.324 148.216 90.324 148.395C90.2344 148.574 90.0553 148.664 89.9658 148.664ZM24.4068 146.245C24.3172 146.245 24.1381 146.156 24.0486 146.066C23.959 145.887 24.0486 145.708 24.2277 145.618C25.5711 144.902 27.0041 144.275 28.7058 143.738C28.8849 143.648 29.064 143.738 29.1536 144.006C29.2431 144.185 29.1536 144.365 28.8849 144.454C27.2728 144.991 25.8398 145.618 24.5859 146.335C24.4964 146.245 24.4068 146.245 24.4068 146.245ZM77.875 145.708C77.875 145.708 77.7854 145.708 77.875 145.708C76.2629 145.35 74.6508 145.081 73.1282 144.723C72.9491 144.723 72.77 144.454 72.8595 144.275C72.8595 144.096 73.1282 143.917 73.3073 144.006C74.8299 144.275 76.442 144.633 77.9645 144.991C78.1437 144.991 78.3228 145.26 78.2332 145.439C78.1437 145.618 78.0541 145.708 77.875 145.708ZM65.6946 143.469C65.6051 143.469 65.6051 143.469 65.6946 143.469C64.0825 143.2 62.4704 143.021 60.9479 142.842C60.7687 142.842 60.5896 142.663 60.6792 142.484C60.6792 142.305 60.8583 142.126 61.0374 142.215C62.56 142.394 64.1721 142.663 65.7842 142.842C65.9633 142.842 66.1424 143.021 66.0529 143.29C65.9633 143.379 65.8737 143.469 65.6946 143.469ZM36.1394 142.573C35.9602 142.573 35.7811 142.484 35.7811 142.305C35.7811 142.126 35.8707 141.946 36.0498 141.857C37.5723 141.678 39.1844 141.499 40.7965 141.319C40.9757 141.319 41.1548 141.499 41.1548 141.678C41.1548 141.857 40.9757 142.036 40.7965 142.036C39.274 142.215 37.7515 142.394 36.1394 142.573C36.2289 142.573 36.2289 142.573 36.1394 142.573ZM53.3351 142.126C51.723 142.036 50.1109 141.946 48.5884 141.946C48.4093 141.946 48.2301 141.767 48.2301 141.588C48.2301 141.409 48.3197 141.23 48.5884 141.23C50.1109 141.23 51.723 141.319 53.3351 141.409C53.5143 141.409 53.6934 141.588 53.6934 141.767C53.6934 142.036 53.5143 142.126 53.3351 142.126Z" fill="#183D68"/>
<path d="M287.717 294.022C287.627 294.022 287.627 294.022 287.538 294.022C287.359 293.932 287.269 293.753 287.359 293.574C287.717 292.857 287.986 292.141 288.254 291.424C288.344 291.245 288.523 291.156 288.702 291.156C288.881 291.245 288.971 291.424 288.971 291.604C288.702 292.41 288.433 293.126 287.986 293.843C287.986 294.022 287.896 294.022 287.717 294.022Z" fill="#183D68"/>
<path d="M294.972 164.874C294.793 164.874 294.703 164.785 294.613 164.605C294.434 163.889 294.255 163.083 293.897 162.366C293.807 162.187 293.897 162.008 294.076 161.919C294.255 161.829 294.434 161.919 294.524 162.098C294.793 162.814 295.061 163.62 295.24 164.426C295.419 164.695 295.24 164.874 294.972 164.874C295.061 164.874 295.061 164.874 294.972 164.874Z" fill="#183D68"/>
<path d="M53.066 289.365C52.8869 289.365 52.7078 289.185 52.7078 289.006C52.7078 288.827 52.8869 288.648 53.066 288.648C54.5886 288.648 56.2007 288.558 57.8128 288.469C57.9919 288.469 58.171 288.648 58.171 288.827C58.171 289.006 57.9919 289.185 57.8128 289.185C56.2007 289.275 54.5886 289.365 53.066 289.365ZM45.3637 289.275C43.7516 289.185 42.1395 289.096 40.5274 289.006C40.3483 289.006 40.1692 288.827 40.1692 288.648C40.1692 288.469 40.3483 288.29 40.5274 288.29C42.05 288.379 43.6621 288.558 45.2742 288.558C45.4533 288.558 45.6324 288.738 45.6324 288.917C45.722 289.185 45.6324 289.275 45.3637 289.275ZM65.4255 288.738C65.2464 288.738 65.0673 288.558 65.0673 288.379C65.0673 288.2 65.1568 288.021 65.4255 288.021C66.948 287.932 68.5602 287.752 70.1723 287.573C70.3514 287.573 70.5305 287.663 70.5305 287.932C70.5305 288.111 70.4409 288.29 70.1723 288.29C68.6497 288.469 67.0376 288.558 65.4255 288.738ZM33.0938 288.021C33.0043 288.021 33.0043 288.021 33.0938 288.021C31.3922 287.752 29.7801 287.394 28.3471 287.036C28.168 286.946 28.0784 286.767 28.0784 286.588C28.168 286.409 28.3471 286.319 28.5262 286.319C29.9592 286.678 31.5713 287.036 33.1834 287.305C33.3625 287.305 33.5416 287.484 33.4521 287.752C33.3625 287.932 33.273 288.021 33.0938 288.021ZM77.785 287.305C77.6059 287.305 77.4267 287.215 77.4267 287.036C77.4267 286.857 77.5163 286.678 77.6954 286.678C79.218 286.499 80.8301 286.23 82.4422 285.961C82.6213 285.961 82.8004 286.051 82.89 286.23C82.89 286.409 82.8004 286.588 82.6213 286.678C80.9196 286.857 79.3971 287.125 77.785 287.305ZM90.0549 285.334C89.8758 285.334 89.6966 285.245 89.6966 285.066C89.6966 284.886 89.7862 284.707 89.9653 284.618C91.4879 284.349 93.1 283.991 94.6225 283.722C94.8017 283.722 94.9808 283.812 95.0703 283.991C95.0703 284.17 94.9808 284.349 94.8016 284.439C93.1895 284.707 91.667 285.066 90.0549 285.334ZM21.1822 284.528C21.0926 284.528 21.0926 284.528 21.003 284.528C19.4805 283.812 18.0475 283.006 16.7937 282.2C16.6145 282.11 16.6145 281.841 16.7041 281.662C16.7937 281.483 17.0623 281.483 17.2415 281.573C18.4953 282.379 19.8387 283.185 21.3613 283.901C21.5404 283.991 21.63 284.17 21.5404 284.349C21.4508 284.528 21.3613 284.528 21.1822 284.528ZM102.235 282.827C102.056 282.827 101.967 282.737 101.877 282.558C101.877 282.379 101.967 282.2 102.146 282.11C103.668 281.752 105.191 281.394 106.803 281.035C106.982 280.946 107.161 281.125 107.251 281.304C107.34 281.483 107.161 281.662 106.982 281.752C105.37 282.11 103.847 282.468 102.235 282.827ZM114.236 279.961C114.057 279.961 113.968 279.871 113.878 279.692C113.789 279.513 113.968 279.334 114.147 279.244C115.669 278.886 117.192 278.438 118.804 277.99C118.983 277.901 119.162 278.08 119.252 278.259C119.341 278.438 119.162 278.617 118.983 278.707C117.461 279.155 115.849 279.602 114.236 279.961C114.326 279.961 114.326 279.961 114.236 279.961ZM126.238 276.736C126.059 276.736 125.969 276.647 125.879 276.468C125.79 276.289 125.969 276.109 126.148 276.02C127.671 275.572 129.193 275.124 130.716 274.676C130.895 274.587 131.074 274.766 131.164 274.945C131.253 275.124 131.074 275.303 130.895 275.393C129.372 275.841 127.85 276.289 126.327 276.736H126.238ZM138.149 273.064C137.97 273.064 137.881 272.975 137.791 272.796C137.702 272.617 137.791 272.437 138.06 272.348C139.582 271.9 141.105 271.363 142.627 270.915C142.807 270.825 142.986 270.915 143.075 271.184C143.165 271.363 143.075 271.542 142.807 271.631C141.284 272.169 139.761 272.617 138.239 273.064H138.149ZM149.882 269.213C149.703 269.213 149.613 269.124 149.524 268.945C149.434 268.765 149.524 268.586 149.703 268.497C151.225 267.959 152.658 267.422 154.181 266.885C154.36 266.795 154.539 266.885 154.629 267.064C154.718 267.243 154.629 267.422 154.45 267.512C152.927 268.049 151.404 268.586 149.971 269.124C149.971 269.213 149.971 269.213 149.882 269.213ZM161.614 265.004C161.435 265.004 161.346 264.914 161.256 264.735C161.167 264.556 161.256 264.377 161.435 264.287C162.958 263.75 164.391 263.123 165.913 262.586C166.093 262.496 166.272 262.586 166.361 262.765C166.451 262.944 166.361 263.123 166.182 263.213C164.66 263.75 163.227 264.377 161.704 264.914L161.614 265.004ZM173.168 260.436C172.989 260.436 172.899 260.347 172.81 260.257C172.72 260.078 172.81 259.899 172.989 259.809C174.511 259.182 175.944 258.645 177.377 258.018C177.556 257.928 177.736 258.018 177.825 258.197C177.915 258.376 177.825 258.555 177.646 258.645C176.213 259.272 174.69 259.899 173.257 260.436H173.168ZM184.632 255.689C184.453 255.689 184.363 255.6 184.273 255.51C184.184 255.331 184.273 255.152 184.453 255.062C185.886 254.436 187.408 253.809 188.841 253.182C189.02 253.092 189.199 253.182 189.289 253.361C189.378 253.54 189.289 253.719 189.11 253.809C187.677 254.436 186.244 255.062 184.721 255.689H184.632ZM195.916 250.584C195.737 250.584 195.648 250.495 195.558 250.405C195.469 250.226 195.558 250.047 195.737 249.957C197.17 249.331 198.603 248.614 200.036 247.898C200.215 247.808 200.395 247.898 200.484 248.077C200.574 248.256 200.484 248.435 200.305 248.524C198.872 249.241 197.439 249.868 196.006 250.584C196.006 250.584 196.006 250.584 195.916 250.584ZM207.112 245.211C207.022 245.211 206.843 245.121 206.753 245.032C206.664 244.852 206.753 244.673 206.933 244.584C208.366 243.867 209.799 243.151 211.231 242.434C211.411 242.345 211.59 242.434 211.679 242.613C211.769 242.793 211.679 242.972 211.5 243.061C210.067 243.778 208.634 244.494 207.201 245.211C207.201 245.211 207.201 245.211 207.112 245.211ZM218.128 239.568C218.038 239.568 217.859 239.479 217.769 239.389C217.68 239.21 217.769 239.031 217.949 238.941C219.382 238.225 220.725 237.419 222.158 236.702C222.337 236.613 222.516 236.702 222.606 236.882C222.695 237.061 222.606 237.24 222.427 237.329C221.083 238.046 219.65 238.852 218.217 239.568C218.307 239.568 218.217 239.568 218.128 239.568ZM229.054 233.568C228.965 233.568 228.786 233.478 228.786 233.389C228.696 233.209 228.786 233.03 228.875 232.941C230.308 232.135 231.651 231.329 232.995 230.523C233.174 230.433 233.353 230.523 233.443 230.612C233.532 230.791 233.443 230.97 233.353 231.06C232.01 231.866 230.577 232.672 229.233 233.478C229.144 233.568 229.054 233.568 229.054 233.568ZM239.712 227.209C239.622 227.209 239.443 227.119 239.443 227.03C239.354 226.851 239.354 226.672 239.533 226.582C240.876 225.776 242.22 224.88 243.563 224.074C243.742 223.985 243.921 223.985 244.101 224.164C244.19 224.343 244.19 224.522 244.011 224.701C242.668 225.597 241.324 226.403 239.981 227.209C239.802 227.209 239.712 227.209 239.712 227.209ZM250.101 220.402C250.012 220.402 249.832 220.313 249.832 220.223C249.743 220.044 249.743 219.865 249.922 219.686C251.265 218.79 252.519 217.894 253.863 216.999C254.042 216.909 254.221 216.909 254.4 217.088C254.49 217.268 254.49 217.447 254.311 217.626C253.057 218.521 251.713 219.417 250.37 220.313C250.191 220.402 250.191 220.402 250.101 220.402ZM260.222 213.237C260.132 213.237 260.042 213.148 259.953 213.058C259.863 212.879 259.863 212.7 260.042 212.521C261.296 211.536 262.55 210.55 263.804 209.655C263.983 209.565 264.162 209.565 264.341 209.744C264.431 209.924 264.431 210.103 264.252 210.282C262.998 211.267 261.744 212.252 260.49 213.237C260.311 213.237 260.311 213.237 260.222 213.237ZM269.894 205.445C269.805 205.445 269.715 205.445 269.626 205.356C269.536 205.177 269.536 204.998 269.626 204.819C270.879 203.744 272.044 202.669 273.208 201.684C273.387 201.594 273.566 201.594 273.745 201.684C273.835 201.863 273.835 202.042 273.745 202.221C272.581 203.296 271.417 204.281 270.163 205.356C270.073 205.445 269.984 205.445 269.894 205.445ZM279.029 197.027C278.94 197.027 278.85 197.027 278.761 196.937C278.582 196.758 278.582 196.579 278.761 196.4C279.925 195.235 281 194.071 282.075 192.907C282.164 192.728 282.433 192.728 282.612 192.907C282.791 192.996 282.791 193.265 282.612 193.444C281.537 194.609 280.462 195.773 279.298 196.937C279.209 197.027 279.119 197.027 279.029 197.027ZM287.18 187.712C287.09 187.712 287 187.712 287 187.623C286.821 187.533 286.821 187.264 286.911 187.085C287.896 185.742 288.792 184.488 289.598 183.234C289.687 183.055 289.956 183.055 290.135 183.145C290.314 183.234 290.314 183.503 290.225 183.682C289.419 184.936 288.523 186.279 287.448 187.623C287.359 187.623 287.269 187.712 287.18 187.712ZM293.449 177.054C293.359 177.054 293.359 177.054 293.27 177.054C293.091 176.965 293.001 176.786 293.091 176.607C293.718 175.084 294.165 173.562 294.524 172.129C294.524 171.949 294.792 171.86 294.971 171.86C295.151 171.86 295.33 172.129 295.24 172.308C294.882 173.83 294.434 175.353 293.807 176.875C293.718 176.965 293.628 177.054 293.449 177.054Z" fill="#183D68"/>
<path d="M11.6889 276.736C11.5993 276.736 11.4202 276.647 11.4202 276.557C10.9724 275.841 10.6141 275.124 10.3454 274.408C10.2559 274.229 10.3454 274.05 10.5246 273.96C10.7037 273.87 10.8828 273.96 10.9724 274.139C11.2411 274.856 11.5993 275.572 11.9575 276.199C12.0471 276.378 12.0471 276.557 11.868 276.647C11.868 276.736 11.7784 276.736 11.6889 276.736Z" fill="#183D68"/>
<path d="M119.699 370.865C118.804 370.686 118.087 370.418 117.281 370.059C117.102 369.97 117.012 369.791 117.102 369.611C117.192 369.432 117.371 369.343 117.55 369.432C118.266 369.701 118.983 369.97 119.699 370.149C119.878 370.238 119.968 370.418 119.968 370.597C120.058 370.776 119.878 370.865 119.699 370.865Z" fill="#183D68"/>
<path d="M111.37 365.492C111.281 365.492 111.191 365.492 111.102 365.402C110.117 364.238 109.131 362.984 108.236 361.551C108.146 361.372 108.146 361.193 108.325 361.103C108.504 361.014 108.684 361.014 108.773 361.193C109.669 362.626 110.564 363.88 111.55 364.954C111.639 365.133 111.639 365.313 111.55 365.492C111.55 365.492 111.46 365.492 111.37 365.492ZM105.191 354.834C105.012 354.834 104.922 354.744 104.832 354.565C104.295 353.132 103.758 351.61 103.22 349.998C103.131 349.818 103.31 349.639 103.489 349.55C103.668 349.46 103.847 349.639 103.937 349.818C104.385 351.431 104.922 352.864 105.549 354.297C105.638 354.476 105.549 354.655 105.37 354.744C105.28 354.834 105.191 354.834 105.191 354.834ZM101.698 343.012C101.519 343.012 101.429 342.922 101.34 342.743C100.981 341.221 100.713 339.608 100.444 337.996C100.444 337.817 100.533 337.638 100.713 337.549C100.892 337.549 101.071 337.638 101.16 337.817C101.429 339.429 101.698 340.952 102.056 342.474C102.056 342.743 101.966 342.922 101.698 343.012ZM99.7274 330.742C99.5483 330.742 99.3692 330.563 99.3692 330.384L99.2796 329.846C99.1005 328.503 99.0109 327.07 98.9214 325.637C98.9214 325.458 99.0109 325.279 99.2796 325.279C99.4587 325.279 99.6379 325.368 99.6379 325.637C99.7274 327.07 99.9065 328.413 99.9961 329.757L100.086 330.384C100.086 330.563 99.9961 330.742 99.7274 330.742ZM98.8318 318.382C98.6527 318.382 98.4736 318.203 98.4736 318.024C98.384 316.502 98.384 314.89 98.2944 313.277C98.2944 313.098 98.4736 312.919 98.6527 312.919C98.8318 312.919 99.0109 313.098 99.0109 313.277C99.0109 314.89 99.1005 316.502 99.19 318.024C99.19 318.203 99.0109 318.293 98.8318 318.382ZM98.6527 305.933C98.4736 305.933 98.2944 305.754 98.2944 305.575C98.2944 303.963 98.384 302.44 98.384 300.828C98.384 300.649 98.4736 300.47 98.7422 300.47C98.9214 300.47 99.1005 300.649 99.1005 300.828C99.0109 302.44 99.0109 304.053 99.0109 305.575C99.0109 305.754 98.8318 305.933 98.6527 305.933ZM99.0109 293.484C98.8318 293.484 98.6527 293.305 98.6527 293.126C98.7422 291.514 98.8318 289.991 98.9214 288.379C98.9214 288.2 99.1005 288.021 99.2796 288.021C99.4587 288.021 99.6379 288.2 99.6379 288.379C99.5483 289.991 99.4587 291.604 99.3692 293.126C99.3692 293.395 99.19 293.484 99.0109 293.484ZM99.9065 281.125C99.6379 281.125 99.5483 280.946 99.5483 280.767C99.7274 279.155 99.817 277.632 99.9961 276.02C99.9961 275.841 100.175 275.662 100.354 275.662C100.533 275.662 100.713 275.841 100.713 276.02C100.533 277.632 100.354 279.155 100.265 280.767C100.265 281.035 100.086 281.125 99.9065 281.125ZM101.25 268.765C100.981 268.765 100.892 268.586 100.892 268.407C101.071 266.795 101.25 265.272 101.519 263.66C101.519 263.481 101.698 263.302 101.877 263.392C102.056 263.392 102.235 263.571 102.146 263.75C101.966 265.362 101.698 266.885 101.519 268.497C101.608 268.676 101.429 268.765 101.25 268.765ZM103.041 256.495C102.952 256.495 102.952 256.495 103.041 256.495C102.773 256.495 102.683 256.316 102.683 256.048C102.952 254.525 103.22 252.913 103.399 251.301C103.399 251.122 103.579 250.943 103.847 251.032C104.026 251.032 104.205 251.211 104.116 251.48C103.847 253.092 103.579 254.615 103.399 256.227C103.31 256.406 103.131 256.495 103.041 256.495ZM105.101 244.315C105.012 244.315 105.012 244.226 105.101 244.315C104.832 244.315 104.743 244.046 104.743 243.867C105.012 242.345 105.28 240.733 105.638 239.21C105.638 239.031 105.907 238.852 106.086 238.941C106.265 238.941 106.445 239.21 106.355 239.389C106.086 241.001 105.728 242.524 105.459 244.046C105.37 244.136 105.191 244.315 105.101 244.315ZM107.43 232.045C107.161 231.956 107.071 231.777 107.071 231.597C107.43 230.075 107.698 228.463 108.057 226.94C108.057 226.761 108.325 226.672 108.504 226.672C108.684 226.672 108.863 226.94 108.773 227.119C108.415 228.642 108.057 230.254 107.788 231.777C107.788 231.956 107.609 232.045 107.43 232.045ZM110.117 219.954C109.848 219.865 109.758 219.686 109.758 219.507C110.117 217.984 110.475 216.372 110.833 214.849C110.923 214.67 111.102 214.581 111.281 214.581C111.46 214.67 111.55 214.849 111.55 215.029C111.191 216.551 110.833 218.163 110.475 219.686C110.475 219.865 110.296 219.954 110.117 219.954ZM113.162 207.953H113.072C112.893 207.864 112.803 207.684 112.803 207.505C113.251 205.983 113.609 204.46 114.057 202.848C114.147 202.669 114.326 202.579 114.505 202.579C114.684 202.669 114.774 202.848 114.774 203.027C114.326 204.55 113.968 206.072 113.52 207.595C113.43 207.774 113.341 207.953 113.162 207.953ZM116.475 195.952H116.386C116.207 195.862 116.117 195.683 116.117 195.504C116.565 193.982 117.013 192.459 117.461 190.937C117.55 190.757 117.729 190.668 117.908 190.668C118.088 190.757 118.177 190.937 118.177 191.116C117.729 192.638 117.281 194.161 116.834 195.683C116.744 195.862 116.565 195.952 116.475 195.952ZM120.058 184.04H119.968C119.789 183.951 119.7 183.772 119.7 183.592C120.147 182.07 120.685 180.547 121.133 179.025C121.222 178.846 121.401 178.756 121.58 178.756C121.76 178.846 121.849 179.025 121.849 179.204C121.312 180.727 120.864 182.249 120.416 183.772C120.327 183.951 120.237 184.04 120.058 184.04ZM123.999 172.308H123.909C123.73 172.218 123.64 172.039 123.73 171.86C124.267 170.337 124.805 168.815 125.342 167.382C125.432 167.203 125.611 167.113 125.79 167.203C125.969 167.292 126.058 167.471 125.969 167.651C125.432 169.173 124.894 170.606 124.357 172.129C124.267 172.218 124.088 172.308 123.999 172.308ZM128.208 160.575H128.118C127.939 160.486 127.85 160.306 127.939 160.127C128.477 158.605 129.104 157.172 129.641 155.649C129.73 155.47 129.91 155.381 130.089 155.47C130.268 155.56 130.357 155.739 130.268 155.918C129.73 157.351 129.104 158.874 128.566 160.396C128.477 160.486 128.298 160.575 128.208 160.575ZM132.776 149.111C132.686 149.111 132.686 149.111 132.596 149.111C132.417 149.022 132.328 148.843 132.417 148.664C133.044 147.141 133.671 145.708 134.298 144.275C134.388 144.096 134.567 144.006 134.746 144.096C134.925 144.185 135.015 144.365 134.925 144.544C134.298 145.977 133.671 147.499 133.044 148.932C133.044 149.022 132.865 149.111 132.776 149.111ZM137.701 137.737C137.612 137.737 137.612 137.737 137.522 137.737C137.343 137.647 137.254 137.468 137.343 137.289C137.97 135.856 138.687 134.423 139.403 132.99C139.493 132.811 139.672 132.722 139.851 132.811C140.03 132.901 140.12 133.08 140.03 133.259C139.314 134.692 138.687 136.125 138.06 137.558C137.97 137.647 137.881 137.737 137.701 137.737ZM143.075 126.542C142.986 126.542 142.986 126.542 142.896 126.542C142.717 126.452 142.627 126.273 142.717 126.094C143.433 124.661 144.15 123.228 144.956 121.885C145.045 121.706 145.225 121.616 145.404 121.706C145.583 121.795 145.672 121.974 145.583 122.153C144.866 123.497 144.15 124.93 143.433 126.363C143.344 126.452 143.254 126.542 143.075 126.542ZM148.986 115.615C148.897 115.615 148.897 115.615 148.807 115.526C148.628 115.436 148.538 115.168 148.718 115.078L149.434 113.914C149.971 112.929 150.598 111.943 151.136 110.958C151.225 110.779 151.494 110.689 151.583 110.869C151.763 110.958 151.852 111.227 151.673 111.316C151.136 112.302 150.509 113.287 149.971 114.272L149.255 115.436C149.255 115.526 149.076 115.615 148.986 115.615ZM155.435 104.958C155.345 104.958 155.255 104.958 155.255 104.868C155.076 104.778 155.076 104.51 155.166 104.331C156.062 102.987 156.957 101.644 157.853 100.39C157.942 100.211 158.211 100.211 158.39 100.3C158.569 100.39 158.569 100.659 158.48 100.838C157.584 102.092 156.688 103.435 155.793 104.778C155.614 104.868 155.524 104.958 155.435 104.958ZM162.6 94.8371C162.51 94.8371 162.42 94.8371 162.42 94.7475C162.241 94.658 162.241 94.3893 162.331 94.2102C163.316 92.9563 164.391 91.7024 165.376 90.5382C165.465 90.359 165.734 90.359 165.913 90.5382C166.092 90.6277 166.092 90.8964 165.913 91.0755C164.928 92.2398 163.943 93.4937 162.868 94.7475C162.868 94.8371 162.689 94.8371 162.6 94.8371ZM170.839 85.6123C170.75 85.6123 170.66 85.6123 170.57 85.5227C170.391 85.3436 170.391 85.1645 170.57 84.9853C171.735 83.821 172.989 82.7463 174.153 81.7611C174.332 81.6716 174.511 81.6716 174.69 81.8507C174.78 82.0298 174.78 82.2089 174.601 82.3881C173.436 83.3732 172.272 84.448 171.108 85.6123C171.018 85.5227 170.929 85.6123 170.839 85.6123ZM180.601 77.9996C180.512 77.9996 180.333 77.91 180.333 77.8204C180.243 77.6413 180.333 77.4622 180.422 77.3726C181.945 76.5666 183.378 75.8501 184.811 75.3127C184.99 75.2231 185.169 75.3127 185.259 75.4918C185.348 75.671 185.259 75.8501 185.079 75.9396C183.736 76.477 182.303 77.1039 180.78 77.91C180.78 77.9996 180.691 77.9996 180.601 77.9996Z" fill="#183D68"/>
<path d="M194.842 75.2231C194.842 75.2231 194.752 75.2231 194.842 75.2231C194.036 75.044 193.23 74.8649 192.424 74.8649C192.245 74.8649 192.066 74.6858 192.066 74.5066C192.066 74.3275 192.245 74.1484 192.424 74.1484C193.23 74.238 194.036 74.3275 194.842 74.5962C195.021 74.6858 195.111 74.8649 195.111 75.044C195.111 75.1336 195.021 75.2231 194.842 75.2231Z" fill="#183D68"/>
<path d="M99.7274 287.842C102.398 287.842 104.564 285.677 104.564 283.006C104.564 280.335 102.398 278.169 99.7274 278.169C97.0564 278.169 94.8911 280.335 94.8911 283.006C94.8911 285.677 97.0564 287.842 99.7274 287.842Z" fill="#C93636"/>
<path d="M242.399 230.523C245.07 230.523 247.235 228.357 247.235 225.686C247.235 223.015 245.07 220.85 242.399 220.85C239.728 220.85 237.563 223.015 237.563 225.686C237.563 228.357 239.728 230.523 242.399 230.523Z" fill="#C93636"/>
<path d="M295.33 175.622C298.001 175.622 300.166 173.456 300.166 170.785C300.166 168.114 298.001 165.949 295.33 165.949C292.659 165.949 290.493 168.114 290.493 170.785C290.493 173.456 292.659 175.622 295.33 175.622Z" fill="#C93636"/>
<path d="M22.1671 151.261C24.8382 151.261 27.0034 149.095 27.0034 146.424C27.0034 143.753 24.8382 141.588 22.1671 141.588C19.4961 141.588 17.3308 143.753 17.3308 146.424C17.3308 149.095 19.4961 151.261 22.1671 151.261Z" fill="#C93636"/>
<path d="M127.671 164.337C129.105 164.337 130.268 163.174 130.268 161.739C130.268 160.305 129.105 159.142 127.671 159.142C126.236 159.142 125.073 160.305 125.073 161.739C125.073 163.174 126.236 164.337 127.671 164.337Z" fill="#C93636"/>
<path d="M290.404 288.827C291.839 288.827 293.001 287.664 293.001 286.23C293.001 284.795 291.839 283.633 290.404 283.633C288.97 283.633 287.807 284.795 287.807 286.23C287.807 287.664 288.97 288.827 290.404 288.827Z" fill="#C93636"/>
<path d="M119.7 373.104C121.135 373.104 122.297 371.942 122.297 370.507C122.297 369.073 121.135 367.91 119.7 367.91C118.266 367.91 117.103 369.073 117.103 370.507C117.103 371.942 118.266 373.104 119.7 373.104Z" fill="#C93636"/>
<path d="M11.5099 279.602C12.9443 279.602 14.1072 278.439 14.1072 277.005C14.1072 275.571 12.9443 274.408 11.5099 274.408C10.0754 274.408 8.9126 275.571 8.9126 277.005C8.9126 278.439 10.0754 279.602 11.5099 279.602Z" fill="#C93636"/>
<path d="M194.842 77.4622C196.277 77.4622 197.44 76.2993 197.44 74.8649C197.44 73.4305 196.277 72.2676 194.842 72.2676C193.408 72.2676 192.245 73.4305 192.245 74.8649C192.245 76.2993 193.408 77.4622 194.842 77.4622Z" fill="#C93636"/>
<path d="M290.957 69.6634L233.605 2.68049L195.94 35.038L253.292 102.021L290.957 69.6634Z" fill="#FFFFFE"/>
<path d="M254.733 36.7406L234.131 12.6787L205.72 37.0864L226.322 61.1482L254.733 36.7406Z" fill="#C93636"/>
<path d="M280.7 67.0965L260.098 43.0347L231.687 67.4423L252.289 91.5041L280.7 67.0965Z" fill="#C93636"/>
<path d="M274.058 126.334L331.41 193.317L369.075 160.96L311.723 93.9768L274.058 126.334Z" fill="#FFFFFE"/>
<path d="M310.445 159.127L331.047 183.188L359.459 158.781L338.856 134.719L310.445 159.127Z" fill="#C93636"/>
<path d="M284.472 128.824L305.074 152.885L333.485 128.478L312.883 104.416L284.472 128.824Z" fill="#C93636"/>
<path d="M304.405 130.357C293.844 139.43 279.424 128.872 265.447 112.547C251.469 96.2228 243.249 80.3393 253.811 71.266C264.372 62.1927 289.583 63.4801 303.56 79.8047C317.521 96.343 314.95 121.497 304.405 130.357Z" fill="#183D68"/>
<path d="M299.863 153.913C312.146 143.361 306.461 116.536 287.164 93.9982C267.867 71.4608 242.266 61.7455 229.982 72.2984C217.699 82.8512 223.384 109.676 242.681 132.214C261.977 154.751 287.579 164.466 299.863 153.913Z" fill="#FFFFFE"/>
<path d="M297.079 150.663C307.569 141.65 301.677 117.53 283.918 96.7885C266.158 76.0469 243.257 66.5385 232.767 75.5508C222.276 84.5631 228.168 108.683 245.928 129.425C263.687 150.167 286.588 159.675 297.079 150.663Z" fill="#C4C4C4"/>
<path d="M239.513 145.343C242.83 142.493 243.214 137.49 240.369 134.168C237.524 130.845 232.529 130.463 229.212 133.313C225.894 136.163 225.511 141.166 228.355 144.489C231.2 147.811 236.195 148.194 239.513 145.343Z" fill="#183D68"/>
<path d="M233.236 138.223L263.28 110.018C264.658 108.835 266.807 108.785 267.988 110.164C269.169 111.544 269.219 113.696 267.841 114.879L267.611 115.077L235.205 140.522C234.516 141.114 233.679 140.835 233.073 140.359C232.695 139.686 232.761 138.831 233.236 138.223Z" fill="#183D68"/>
</svg>
