<svg width="122" height="122" viewBox="0 0 122 122" fill="none" xmlns="http://www.w3.org/2000/svg">
<circle cx="61" cy="61" r="59" fill="white" stroke="#183D68" stroke-width="4"/>
<path d="M28.5665 78.887C29.9947 83.9526 34.3637 84.8795 34.6552 85.0573C41.8456 87.0159 82.1494 87.0217 89.4477 85.0573C94.4464 83.6116 95.3645 79.1784 95.5364 78.887C97.4397 68.7615 97.565 55.561 95.449 44.0714L95.5364 44.6427C94.1083 39.577 89.7392 38.6502 89.4477 38.4724C82.3535 36.5458 41.9447 36.4729 34.6552 38.4724C29.6566 39.921 28.7385 44.3512 28.5665 44.6427C26.5292 55.2841 26.4271 67.4936 28.5665 78.887ZM55.049 72.4077V51.1511L73.3122 61.7954L55.049 72.4077Z" fill="#C93636"/>
</svg>
